<?xml version="1.0" standalone="no"?>
<!DOCTYPE svg PUBLIC "-//W3C//DTD SVG 1.1//EN" "http://www.w3.org/Graphics/SVG/1.1/DTD/svg11.dtd" >
<svg xmlns="http://www.w3.org/2000/svg">
<metadata>Generated by IcoMoon</metadata>
<defs>
<font id="icomoon" horiz-adv-x="1024">
<font-face units-per-em="1024" ascent="960" descent="-64" />
<missing-glyph horiz-adv-x="1024" />
<glyph unicode="&#x20;" horiz-adv-x="512" d="" />
<glyph unicode="&#xe900;" horiz-adv-x="1017" d="M155.676 960h705.73c85.977 0 155.676-69.698 155.676-155.676v-712.649c0-85.977-69.698-155.676-155.676-155.676h-705.73c-85.977 0-155.676 69.698-155.676 155.676v712.649c0 85.977 69.698 155.676 155.676 155.676z" />
<glyph unicode="&#xe901;" horiz-adv-x="1017" d="M185.081 930.595h648.649c85.977 0 155.676-69.698 155.676-155.676v-655.568c0-85.977-69.698-155.676-155.676-155.676h-648.649c-85.977 0-155.676 69.698-155.676 155.676v655.568c0 85.977 69.698 155.676 155.676 155.676z" />
<glyph unicode="&#xe902;" horiz-adv-x="1017" d="M128.032 872.066c-3.679-1.672-9.532-6.020-12.877-9.532-12.208-12.877-11.372 4.515-11.372-230.108 0-201.010 0.167-211.546 3.177-217.901 4.013-8.863 12.542-17.225 21.907-21.571 6.689-3.010 11.372-3.511 40.637-4.015l32.944-0.668v-369.244h658.885v200.676h-30.101v-170.576h-598.684v339.309l119.235 0.502c133.283 0.503 125.423-0.166 138.968 12.71 13.713 13.044 12.71-3.344 12.71 203.184v183.451h155.523v-170.575h172.246v-200.675h30.101v221.578l-179.773 179.772h-178.098v12.542c0 7.024-1.005 15.051-2.342 18.228-3.345 8.194-13.546 18.73-21.739 22.576-7.024 3.512-8.863 3.512-175.926 3.512-160.876 0-169.070-0.167-175.425-3.177zM469.516 841.463l3.845-3.512v-410.383l-8.695-8.026h-322.085l-8.696 8.026v409.881l3.679 3.846 3.512 3.846h324.593l3.847-3.679zM749.291 707.178l59.366-59.366h-119.569v59.366c0 32.609 0.168 59.366 0.502 59.366 0.168 0 27.091-26.757 59.702-59.366z" />
<glyph unicode="&#xe903;" horiz-adv-x="1017" d="M145.591 782.431v-51.006h316.065v102.011h-316.065v-51.005zM431.554 782.431v-20.904h-255.862v41.807h255.862v-20.903z" />
<glyph unicode="&#xe904;" horiz-adv-x="1017" d="M180.208 717.212c-3.679-1.171-8.362-4.015-10.703-6.187-7.86-7.358-8.863-11.373-8.863-36.122 0-21.405 0.335-23.747 3.846-28.931 8.362-12.542 20.737-16.221 48.497-14.381 12.374 0.835 16.054 1.671 21.573 5.35 10.368 6.857 13.044 14.55 13.044 38.464 0 27.425-4.181 36.456-19.567 41.974-8.529 3.011-39.466 3.011-47.827-0.166zM217.5 675.404v-14.215h-26.757v28.43h26.757v-14.215z" />
<glyph unicode="&#xe905;" horiz-adv-x="1017" d="M281.884 718.215c-7.358-1.84-13.713-6.355-17.894-13.044-2.842-4.85-3.679-9.365-4.347-23.412-1.84-39.969 7.524-50.671 43.98-50.671 34.617 0 44.316 10.032 44.316 45.319 0 25.251-6.521 37.459-22.241 41.472-8.362 2.008-35.786 2.174-43.814 0.336zM317.838 675.404v-14.215h-28.428v28.43h28.428v-14.215z" />
<glyph unicode="&#xe906;" horiz-adv-x="1017" d="M379.21 717.378c-15.216-5.518-19.397-14.549-19.565-41.974 0-17.726 0.502-21.072 3.847-27.593 6.521-13.044 15.216-16.557 40.469-16.557 22.241-0.166 30.938 3.178 38.964 14.884 3.345 5.016 3.679 7.358 3.679 28.764 0 25.586-1.003 29.431-10.032 36.957-2.844 2.508-7.86 5.184-11.373 6.187-8.863 2.342-38.462 2.006-45.988-0.669zM416.503 675.404v-14.215h-26.757v28.43h26.757v-14.215z" />
<glyph unicode="&#xe907;" horiz-adv-x="1017" d="M175.526 615.535c-4.516-2.508-8.864-6.521-11.205-10.534-3.512-6.021-3.679-8.195-3.345-31.106 0.502-21.739 0.836-25.085 4.013-29.098 7.86-10.704 10.536-11.539 36.79-12.041 21.907-0.502 24.583-0.334 30.436 3.010 3.345 1.84 8.194 6.187 10.368 9.533 3.847 5.518 4.181 8.028 4.85 26.088 0.502 21.573-0.835 29.599-6.857 37.125-6.521 8.362-14.883 10.87-37.459 10.87-17.894 0-21.072-0.502-27.593-3.847zM217.5 575.901v-13.378h-26.755v26.757h26.755v-13.379z" />
<glyph unicode="&#xe908;" horiz-adv-x="1017" d="M276.866 616.204c-13.378-6.187-17.391-15.050-17.558-39.466 0-19.399 1.84-27.091 7.86-34.283 7.526-9.029 11.371-10.032 36.957-10.032 21.405 0 23.747 0.334 28.764 3.845 11.707 7.86 15.050 16.389 15.050 39.633 0 24.583-3.679 32.944-16.723 39.801-6.521 3.178-9.866 3.679-27.593 3.679-15.886 0-21.405-0.669-26.757-3.178zM317.838 575.901v-13.378h-28.43v26.757h28.43v-13.379z" />
<glyph unicode="&#xe909;" horiz-adv-x="1017" d="M380.549 618.211c-6.021-1.505-14.549-9.197-17.726-16.221-2.508-5.518-3.178-10.87-3.178-26.755 0-24.417 2.842-31.941 14.381-38.798 7.024-4.181 8.028-4.181 31.272-3.679 23.078 0.502 24.249 0.669 29.935 5.016 9.7 7.358 11.371 13.044 11.371 38.296 0 20.57-0.334 22.576-4.181 29.265-6.689 11.371-14.213 14.047-38.63 13.879-10.87-0.166-21.405-0.668-23.244-1.003zM416.503 575.901v-13.378h-26.757v26.757h26.757v-13.379z" />
<glyph unicode="&#xe90a;" horiz-adv-x="1017" d="M176.529 516.368c-14.048-7.358-16.389-13.712-15.553-44.148 0.502-20.736 0.836-23.078 4.515-28.262 6.689-9.365 14.717-11.873 38.129-11.873 21.405 0 27.259 1.171 33.78 7.19 7.692 7.19 10.202 15.552 10.202 35.453 0 10.202-0.837 21.072-1.673 24.249-1.84 6.857-10.202 15.72-17.225 18.228-7.692 3.010-46.156 2.34-52.176-0.837zM217.5 475.565v-13.379h-26.755v26.757h26.755v-13.378z" />
<glyph unicode="&#xe90b;" horiz-adv-x="1017" d="M276.867 516.703c-7.024-3.010-13.713-11.371-16.055-19.901-1.003-4.013-1.505-14.717-1.169-25.418 0.668-20.904 2.674-26.256 12.542-33.782 5.852-4.515 6.855-4.682 28.762-5.184 20.904-0.502 23.246-0.166 30.269 3.345 13.881 7.19 18.062 19.063 16.389 47.995-1.171 19.231-6.521 28.93-18.562 33.446-6.857 2.676-45.988 2.174-52.176-0.502zM317.838 475.565v-13.379h-28.428v26.757h28.428v-13.378z" />
<glyph unicode="&#xe90c;" horiz-adv-x="1017" d="M377.204 516.703c-6.187-2.844-13.378-10.368-15.72-16.557-2.34-6.019-2.34-40.135-0.166-47.995 1.839-6.855 10.2-15.72 17.225-18.228 2.676-1.003 13.879-1.839 25.251-1.839 24.417 0 32.778 3.010 39.132 14.215 3.513 6.187 3.679 8.362 3.345 30.936-0.502 22.409-0.835 24.751-4.349 29.767-7.19 9.866-14.047 12.041-38.294 12.041-14.215-0.166-23.078-0.835-26.423-2.34zM416.503 475.565v-13.379h-26.757v26.757h26.757v-13.378z" />
<glyph unicode="&#xe90d;" horiz-adv-x="1017" d="M560.322 560.851v-15.050h30.101v30.101h-30.101v-15.050z" />
<glyph unicode="&#xe90e;" horiz-adv-x="1017" d="M617.18 560.851v-15.050h172.246v30.101h-172.246v-15.050z" />
<glyph unicode="&#xe90f;" horiz-adv-x="1017" d="M560.322 503.993v-15.050h30.101v30.101h-30.101v-15.050z" />
<glyph unicode="&#xe910;" horiz-adv-x="1017" d="M617.18 503.993v-15.050h172.246v30.101h-172.246v-15.050z" />
<glyph unicode="&#xe911;" horiz-adv-x="1017" d="M560.322 447.135v-15.050h30.101v30.101h-30.101v-15.050z" />
<glyph unicode="&#xe912;" horiz-adv-x="1017" d="M617.18 447.135v-15.050h172.246v30.101h-172.246v-15.050z" />
<glyph unicode="&#xe913;" horiz-adv-x="1017" d="M897.289 428.072c-6.689-3.178-33.446-29.265-133.281-129.102l-124.921-125.255-17.726-38.464c-9.866-21.070-18.228-40.469-18.73-42.811-0.837-4.682 1.671-11.036 6.019-14.381 6.021-4.682 13.881-2.342 52.677 15.552l38.63 17.726 126.092 125.59c100.672 100.504 126.76 127.429 129.937 134.118 4.515 9.365 5.352 22.241 2.006 32.944-2.676 8.695-12.876 20.234-22.241 24.583-10.704 5.016-27.259 4.848-38.464-0.502zM926.22 398.137c5.686-5.352 4.85-11.873-2.844-20.068l-6.689-7.023-9.197 9.197-9.365 9.031 5.518 5.686c8.863 9.365 14.884 10.2 22.576 3.178zM886.085 358.002l8.695-8.863-8.362-8.028-18.396 18.060 3.679 3.847c2.006 2.174 4.015 3.847 4.682 3.847 0.502 0 4.85-4.015 9.7-8.863zM855.983 327.9l8.697-8.695-91.643-91.307-91.475-91.475-15.216-6.857c-8.362-3.679-15.72-6.857-16.221-6.857s2.34 7.358 6.521 16.389l7.526 16.221 90.638 90.806c49.835 49.835 90.973 90.638 91.475 90.638s4.85-4.013 9.699-8.863z" />
<glyph unicode="&#xe914;" horiz-adv-x="1017" d="M560.322 390.277v-15.050h30.101v30.101h-30.101v-15.050z" />
<glyph unicode="&#xe915;" horiz-adv-x="1017" d="M617.18 390.277v-15.050h172.246v30.101h-172.246v-15.050z" />
<glyph unicode="&#xe916;" horiz-adv-x="1017" d="M404.964 360.176c-62.544-13.212-109.034-63.715-115.221-125.423-4.85-46.322 10.536-88.298 43.312-119.737 17.894-16.891 32.275-25.418 56.69-33.278 18.73-6.021 51.006-7.692 70.739-3.511 45.319 9.365 82.11 38.294 101.341 79.768 8.528 18.396 11.873 32.107 13.044 52.845 3.845 67.226-38.798 127.261-103.516 146.159-13.879 4.013-53.347 5.852-66.39 3.178zM458.813 328.401c34.282-8.695 61.206-31.104 76.425-63.715 24.749-53.345 0.835-120.071-52.511-146.66-22.91-11.371-52.343-15.050-76.257-9.365-31.104 7.192-61.373 31.106-74.918 59.2-9.365 18.897-12.041 30.602-12.041 51.005s2.842 32.109 12.041 51.006c9.699 19.899 29.599 39.799 49.834 49.834 7.86 3.847 18.73 8.028 24.249 9.365 14.883 3.511 37.961 3.345 53.179-0.669z" />
<glyph unicode="&#xe917;" horiz-adv-x="1017" d="M416.503 297.465c0-4.682-0.835-7.86-2.006-8.195-17.057-4.848-30.602-14.715-36.456-26.254-4.349-8.529-4.516-22.91-0.168-31.44 4.181-8.194 15.218-17.894 24.917-22.075 4.181-1.839 15.72-4.349 25.42-5.518 18.73-2.342 27.091-5.52 30.269-11.371 4.682-8.865-17.726-18.396-34.449-14.717-9.866 2.174-17.225 6.355-18.563 10.368-0.835 2.676-3.010 3.010-15.886 3.010h-14.884v-5.016c0-5.018 4.181-14.717 8.697-20.068 4.515-5.518 15.384-12.374 23.578-15.218 8.697-2.842 8.697-3.010 9.199-10.536l0.502-7.692h29.933v14.717l8.863 3.010c21.909 7.19 34.617 22.409 34.617 40.972 0 8.026-6.857 21.571-13.546 27.425-9.365 7.86-21.739 12.542-37.793 14.215-20.57 2.342-23.414 3.010-28.931 7.86-6.021 5.016-6.187 7.19-1.171 11.873 5.52 5.184 12.542 7.358 23.914 7.358 11.205-0.168 22.576-4.515 26.088-10.368 1.84-2.844 4.015-3.345 16.723-3.345 14.215 0 14.717 0.168 14.717 3.847 0 6.857-8.863 21.739-16.221 27.259-5.853 4.515-15.384 8.863-25.085 11.705-1.337 0.336-2.174 3.513-2.174 8.195v7.524h-30.101v-7.524z" />
<glyph unicode="&#xe918;" horiz-adv-x="1017" d="M155.676 960h705.73c85.977 0 155.676-69.698 155.676-155.676v-712.649c0-85.977-69.698-155.676-155.676-155.676h-705.73c-85.977 0-155.676 69.698-155.676 155.676v712.649c0 85.977 69.698 155.676 155.676 155.676z" />
<glyph unicode="&#xe919;" horiz-adv-x="1017" d="M185.081 930.595h648.649c85.977 0 155.676-69.698 155.676-155.676v-655.568c0-85.977-69.698-155.676-155.676-155.676h-648.649c-85.977 0-155.676 69.698-155.676 155.676v655.568c0 85.977 69.698 155.676 155.676 155.676z" />
<glyph unicode="&#xe91a;" horiz-adv-x="1017" d="M840.955 899.273c-24.995-7.953-46.583-24.239-59.838-45.068-8.332-12.877-15.907-35.79-15.907-47.72v-9.658h-727.156v-605.964h454.094l1.325-12.688c7.007-66.655 48.099-135.016 103.393-172.321 42.986-29.162 85.971-42.228 138.046-42.228 51.506 0 94.113 12.878 137.289 41.282 17.043 11.363 52.454 46.774 63.815 63.815 28.406 43.176 41.282 85.782 41.282 137.289 0 67.982-23.102 123.655-71.389 172.132l-19.504 19.693v292.945l5.302 1.136c20.451 4.546 40.145 14.77 53.4 27.837 21.966 21.777 32.192 45.826 32.192 76.503 0 21.398-2.84 33.328-12.497 51.885-12.12 23.102-33.898 41.092-60.029 49.992-17.989 5.87-47.152 6.438-63.817 1.136zM902.12 864.43c14.013-6.438 30.298-22.534 36.926-36.737 4.544-9.847 5.113-13.255 5.113-30.866s-0.569-21.019-5.113-30.867c-6.628-14.013-22.914-30.298-36.926-36.926-9.847-4.544-13.255-5.111-30.865-5.111-17.612 0-21.020 0.567-30.867 5.111-14.013 6.628-30.298 22.914-36.926 36.926-4.544 9.847-5.113 13.257-5.113 30.867s0.569 21.019 4.925 30.298c9.090 19.126 24.618 33.328 43.932 40.145 14.77 5.302 40.334 3.977 54.915-2.84zM776.003 749.866l7.953-16.476-44.501-44.499-44.31-44.501-41.849 0.379-25.942 25.564 0.946 14.77c1.325 17.61-1.136 26.133-10.605 36.547-9.278 10.415-19.126 14.582-34.275 14.582s-24.995-4.167-34.275-14.582c-9.469-10.415-11.93-18.747-10.603-36.357l0.946-14.393-72.147-72.526-14.582 0.948c-17.61 1.325-26.133-1.136-36.547-10.605-10.226-9.090-14.58-19.126-14.58-33.896 0-27.648 17.989-45.826 45.447-45.826 15.149 0 24.996 4.165 34.275 14.58 9.469 10.415 11.93 18.937 10.605 36.547l-0.948 14.582 36.357 35.79 36.169 35.79h20.452l20.451-0.19 12.876-12.876 13.066-12.878-0.946-14.77c-1.325-17.61 1.136-26.131 10.605-36.547 9.278-10.415 19.126-14.58 34.275-14.58s24.996 4.165 34.275 14.58c9.469 10.416 11.93 18.937 10.603 36.547l-0.946 14.582 89.759 89.757 10.224-5.869c10.038-5.303 21.589-9.659 32.761-12.12l5.111-1.136v-136.341c0-74.989-0.377-136.342-0.946-136.342-0.567 0-7.007 3.030-14.391 6.817-17.422 8.711-42.797 16.854-63.626 20.641-21.587 3.788-63.436 3.788-85.025 0-45.635-7.953-90.136-30.677-124.98-63.815l-14.013-13.445v64.951h-90.894v-181.788h17.232c13.634 0 17.043-0.569 16.285-2.463-0.567-1.514-1.515-8.332-2.273-15.149l-1.325-12.688h-423.796v545.368l699.698-0.19 7.953-16.474zM592.889 700.252c2.083-2.083 3.788-6.25 3.788-9.469s-1.706-7.384-3.788-9.467c-2.083-2.084-6.25-3.788-9.469-3.788s-7.384 1.704-9.467 3.788c-2.084 2.083-3.788 6.248-3.788 9.467s1.704 7.386 3.788 9.469c2.083 2.083 6.248 3.788 9.467 3.788s7.386-1.706 9.469-3.788zM683.783 609.358c2.084-2.083 3.788-6.25 3.788-9.469s-1.704-7.386-3.788-9.469c-2.083-2.083-6.248-3.786-9.467-3.786s-7.386 1.704-9.469 3.786c-2.083 2.083-3.788 6.25-3.788 9.469s1.706 7.386 3.788 9.469c2.083 2.083 6.25 3.786 9.469 3.786s7.384-1.704 9.467-3.786zM456.548 563.911c2.083-2.084 3.786-6.25 3.786-9.469s-1.704-7.386-3.786-9.469c-2.084-2.083-6.25-3.788-9.469-3.788s-7.386 1.706-9.469 3.788c-2.083 2.083-3.788 6.25-3.788 9.469s1.706 7.384 3.788 9.469c2.083 2.083 6.25 3.786 9.469 3.786s7.384-1.704 9.469-3.786zM719.763 387.044v-29.162l-8.899-1.325c-14.582-2.084-36.547-9.847-50.75-17.801-36.169-20.262-62.869-55.673-73.095-96.576-5.68-22.912-4.544-60.786 2.652-82.562 2.84-8.332 4.355-15.718 3.598-16.285-0.758-0.758-11.93-7.386-24.806-14.582l-23.671-13.445-3.408 7.574c-5.682 12.688-12.309 35.98-14.77 51.318-3.409 21.020-1.515 64.574 3.786 83.51 21.398 79.154 82.941 137.667 162.852 154.71 8.901 1.894 18.368 3.598 21.398 3.598l5.113 0.189v-29.162zM775.625 412.608c79.723-16.662 141.456-74.42 163.231-152.626 5.871-21.398 7.953-63.059 4.355-85.592-2.461-15.528-9.088-38.82-14.959-51.508l-3.219-7.574-24.050 13.824c-13.255 7.574-24.427 14.203-24.996 14.582-0.379 0.567 1.515 7.763 4.167 15.907 3.977 12.497 5.113 19.883 5.871 40.903 0.946 31.433-2.652 48.287-15.907 75.555-7.574 15.149-11.741 20.641-27.079 36.169-24.996 24.996-52.644 39.578-83.888 44.312l-9.090 1.325v29.162c0 33.896-2.461 31.434 25.564 25.564zM522.825 364.132v-38.82l-6.438-12.876c-3.409-7.007-7.765-16.664-9.657-21.589-2.842-7.953-3.977-9.088-8.711-9.088h-5.492v121.192h30.298v-38.819zM764.074 322.282c41.661-10.036 76.314-44.878 87.107-87.106 3.977-14.96 3.977-43.176 0-58.325-9.469-36.547-38.063-68.928-73.095-82.562-66.467-25.754-141.454 13.065-159.633 82.373-3.598 14.391-3.598 44.31 0 58.702 16.664 63.626 81.616 102.445 145.621 86.917zM624.514 101.674c30.865-32.192 65.898-47.151 110.398-47.151 44.689 0 80.1 15.149 110.398 47.151 7.007 7.574 13.445 13.445 14.393 13.066 7.005-2.84 47.53-27.269 47.53-28.594 0-3.219-19.126-25.754-29.919-35.6-62.68-56.052-149.597-70.634-225.721-37.872-18.937 8.142-43.176 23.67-59.082 37.872-10.794 9.846-29.919 32.381-29.919 35.6 0 1.515 44.501 28.406 47.72 28.783 0.567 0.19 7.005-5.869 14.203-13.255z" />
<glyph unicode="&#xe91b;" horiz-adv-x="1017" d="M98.65 721.081v-15.149h30.298v30.3h-30.298v-15.151z" />
<glyph unicode="&#xe91c;" horiz-adv-x="1017" d="M159.247 721.081v-15.149h212.086v30.3h-212.086v-15.151z" />
<glyph unicode="&#xe91d;" horiz-adv-x="1017" d="M98.65 660.485v-15.149h30.298v30.298h-30.298v-15.149z" />
<glyph unicode="&#xe91e;" horiz-adv-x="1017" d="M159.247 660.485v-15.149h212.086v30.298h-212.086v-15.149z" />
<glyph unicode="&#xe91f;" horiz-adv-x="1017" d="M98.65 599.889v-15.149h30.298v30.298h-30.298v-15.149z" />
<glyph unicode="&#xe920;" horiz-adv-x="1017" d="M159.247 599.889v-15.149h212.086v30.298h-212.086v-15.149z" />
<glyph unicode="&#xe921;" horiz-adv-x="1017" d="M98.65 539.293v-15.149h30.298v30.298h-30.298v-15.149z" />
<glyph unicode="&#xe922;" horiz-adv-x="1017" d="M159.247 539.293v-15.149h212.086v30.298h-212.086v-15.149z" />
<glyph unicode="&#xe923;" horiz-adv-x="1017" d="M341.035 372.653v-121.194h90.896v242.387h-90.896v-121.194zM401.633 372.653v-90.894h-30.3v181.788h30.3v-90.894z" />
<glyph unicode="&#xe924;" horiz-adv-x="1017" d="M98.65 327.206v-75.747h90.895v151.491h-90.895v-75.745zM159.247 327.206v-45.447h-30.298v90.894h30.298v-45.447z" />
<glyph unicode="&#xe925;" horiz-adv-x="1017" d="M219.843 312.057v-60.598h90.894v121.194h-90.894v-60.596zM280.439 312.057v-30.298h-30.298v60.596h30.298v-30.298z" />
<glyph unicode="&#xe926;" horiz-adv-x="1017" d="M706.129 293.31c-14.014-4.546-27.269-13.066-37.874-24.429-17.232-18.368-24.237-36.736-24.237-62.869 0-26.131 7.005-44.499 24.237-62.869 17.991-19.126 39.009-28.025 66.657-28.025 27.646 0 48.666 8.899 66.655 28.025 17.233 18.37 24.239 36.738 24.239 62.869 0 26.133-7.005 44.501-24.239 62.869-10.794 11.551-24.048 19.883-38.44 24.429-15.339 4.734-42.039 4.734-56.998 0zM761.045 259.224c10.224-5.302 21.776-16.664 27.267-27.079 3.598-6.817 4.355-10.984 4.355-26.133 0-20.641-3.219-28.783-16.095-41.659-12.878-12.878-21.020-16.097-41.661-16.097-15.149 0-19.316 0.758-26.133 4.355-10.415 5.68-21.776 17.043-27.079 27.269-5.113 9.846-6.817 31.056-3.786 42.607 4.544 17.043 21.966 35.221 38.819 40.334 10.226 3.219 35.222 1.136 44.312-3.598z" />
</font>
</defs>
</svg>
