<svg width="245" height="250" viewBox="0 0 245 250" fill="none" xmlns="http://www.w3.org/2000/svg">
<path d="M61.2 36.5C28 56.5 0.699997 73 0.499997 73.2C0.299997 73.4 55 73.5 122 73.5C189.1 73.5 243.6 73.2 243.2 72.9C242.2 72 122.2 0 121.8 0C121.6 0 94.3 16.4 61.2 36.5ZM94.8 40.6C97.1 42.2 97.8 46.8 96 48.6C95.2 49.4 95.4 50.6 96.7 52.7C98.3 55.6 98.3 55.9 96.7 58.3C94.8 61.2 90.8 62.3 84.5 61.8L80.5 61.5L80.2 50.2L79.9 39H86.2C90.3 39 93.3 39.5 94.8 40.6ZM116.7 50C119.2 56.1 120.5 60.9 120 61.4C118.7 62.7 115.9 61.3 115.3 59C114.9 57.4 113.9 57 110 57C106 57 105.2 57.3 104.2 59.5C103.1 61.9 99 63.1 99 61.1C99 60.5 100.9 55.3 103.2 49.5C107.1 39.6 107.5 38.9 109.9 39.2C112.2 39.5 113 40.8 116.7 50ZM132.2 46L137.5 53.1L137.8 46C138.1 39.8 138.3 39 140 39C141.9 39 142 39.7 142 49.9C142 64.8 140.6 65.4 132.5 53.8L127.5 46.7L127 54.1C126.6 59.8 126.2 61.5 125 61.5C123.8 61.5 123.4 59.5 123.2 50.2C122.9 39.5 123 39 125 39C126.3 39 128.8 41.4 132.2 46ZM151 43.8L151.5 48L155 43.6C157.3 40.7 159.3 39.1 160.8 39C163.8 39 163.6 39.6 159.1 45L155.1 49.7L159.6 55.1C164.5 61.1 164.8 62 162 62C161 62 158.4 60 156.3 57.5C154.3 55 152.2 53 151.8 53C151.4 53 151 54.9 150.8 57.2C150.6 60.7 150.1 61.5 148.5 61.5C146.6 61.5 146.5 60.7 146.2 50.2C145.9 38.9 145.9 38.9 148.2 39.2C150.1 39.4 150.6 40.3 151 43.8Z" fill="#151515"/>
<path d="M84 45.5C84 47.7 84.4 48 87.9 48C92.2 48 93.4 47.1 92.4 44.6C92 43.5 90.5 43 87.9 43C84.4 43 84 43.3 84 45.5Z" fill="#151515"/>
<path d="M84 54.4C84 56.8 84.3 57 88.6 57C92.7 57 93.1 56.8 92.8 54.7C92.6 52.9 91.8 52.4 88.3 52.2C84.3 51.9 84 52.1 84 54.4Z" fill="#151515"/>
<path d="M108.6 47.4C108.3 48.7 107.7 50.5 107.4 51.4C106.9 52.7 107.5 53 109.9 53C113.5 53 113.4 53.3 111.5 48.6C109.7 44.3 109.4 44.2 108.6 47.4Z" fill="#151515"/>
<path d="M168 18.5C166.5 20.3 166.3 20 171.6 23.3C175.6 25.8 175.7 25.8 176.9 23.8C177.6 22.7 178 21.7 177.8 21.6C176.3 20.5 170.2 17 169.8 17C169.5 17 168.7 17.7 168 18.5Z" fill="#151515"/>
<path d="M65.3 22.1C61.8 24.3 61.6 24.8 62.9 26.8C63.6 28 64.2 27.9 66.6 26.6C72.3 23.6 72.5 23.3 71.1 21.6C69.4 19.6 69.2 19.6 65.3 22.1Z" fill="#151515"/>
<path d="M184 27.9C183.1 29.8 183.3 30.3 186.2 32C188 33.1 195.8 37.8 203.5 42.4C216.1 50 217.6 50.7 218.8 49.2C220.4 47 220.3 47 203.5 37C195.8 32.4 188.5 28 187.3 27.3C185.4 26 185 26.1 184 27.9Z" fill="#151515"/>
<path d="M34.6 40.5C24.3 46.7 15.4 52.2 14.9 52.7C14.4 53.2 14.5 54.3 15.2 55.2C16.4 56.7 18.7 55.6 36.7 44.7C54.3 34.1 56.7 32.4 55.9 30.8C55.4 29.8 54.6 29 54.2 29C53.8 29.1 45 34.2 34.6 40.5Z" fill="#151515"/>
<path d="M8 85.5V92H122H236V85.5V79H122H8V85.5Z" fill="#151515"/>
<path d="M17 103.2V109H20.5H24V161.5V214H39H54V161.5V109H57.5H61V103.5V98.1L39 97.8L17 97.5V103.2Z" fill="#151515"/>
<path d="M73 103.2V109H76.5H80V161.5V214H95H110V161.7V109.5L113.5 109.2L117 108.9V103.5V98.1L95 97.8L73 97.5V103.2Z" fill="#151515"/>
<path d="M129 103.5V109H132.5H136V161.5V214H150.5H165L165.2 161.7L165.5 109.5L169.3 109.2L173 108.9V103.4V98H151H129V103.5Z" fill="#151515"/>
<path d="M184.8 103.5L185.2 109H188.6H192V161.5V214H206.5H221V161.5V109H225H229V103.5V98H206.8H184.5L184.8 103.5Z" fill="#151515"/>
<path d="M9 226V232H122.5H236V226V220H122.5H9V226Z" fill="#151515"/>
<path d="M0 244V250H122.5H245V244V238H122.5H0V244Z" fill="#151515"/>
</svg>
