<svg width="4037" height="5976" viewBox="0 0 4037 5976" fill="none" xmlns="http://www.w3.org/2000/svg">
<path d="M1300.26 2796.48C805.923 3094.27 399.431 3339.96 396.453 3342.93C393.475 3345.91 1207.95 3347.4 2205.56 3347.4C3204.67 3347.4 4016.16 3342.93 4010.21 3338.47C3995.32 3325.07 2208.54 2253 2202.59 2253C2199.61 2253 1793.12 2497.19 1300.26 2796.48ZM1800.56 2857.53C1834.81 2881.35 1845.23 2949.84 1818.43 2976.64C1806.52 2988.56 1809.5 3006.42 1828.85 3037.69C1852.68 3080.87 1852.68 3085.34 1828.85 3121.08C1800.56 3164.26 1741 3180.63 1647.2 3173.19L1587.64 3168.72L1583.17 3000.47L1578.7 2833.7H1672.51C1733.56 2833.7 1778.23 2841.15 1800.56 2857.53ZM2126.65 2997.49C2163.87 3088.32 2183.23 3159.79 2175.78 3167.23C2156.43 3186.59 2114.74 3165.74 2105.8 3131.5C2099.85 3107.67 2084.96 3101.72 2026.89 3101.72C1967.33 3101.72 1955.42 3106.19 1940.53 3138.94C1924.15 3174.68 1863.1 3192.55 1863.1 3162.77C1863.1 3153.83 1891.39 3076.41 1925.64 2990.05C1983.71 2842.64 1989.66 2832.21 2025.4 2836.68C2059.64 2841.15 2071.56 2860.5 2126.65 2997.49ZM2357.44 2937.93L2436.36 3043.65L2440.82 2937.93C2445.29 2845.61 2448.27 2833.7 2473.58 2833.7C2501.87 2833.7 2503.36 2844.13 2503.36 2996C2503.36 3217.86 2482.51 3226.79 2361.91 3054.07L2287.46 2948.35L2280.01 3058.54C2274.06 3143.41 2268.1 3168.72 2250.23 3168.72C2232.37 3168.72 2226.41 3138.94 2223.43 3000.47C2218.96 2841.15 2220.45 2833.7 2250.23 2833.7C2269.59 2833.7 2306.81 2869.44 2357.44 2937.93ZM2637.37 2905.17L2644.81 2967.71L2696.93 2902.2C2731.17 2859.02 2760.95 2835.19 2783.29 2833.7C2827.96 2833.7 2824.98 2842.64 2757.98 2923.04L2698.42 2993.02L2765.42 3073.43C2838.38 3162.77 2842.85 3176.17 2801.16 3176.17C2786.27 3176.17 2747.55 3146.39 2716.28 3109.16C2686.5 3071.94 2655.24 3042.16 2649.28 3042.16C2643.32 3042.16 2637.37 3070.45 2634.39 3104.7C2631.41 3156.81 2623.97 3168.72 2600.14 3168.72C2571.85 3168.72 2570.36 3156.81 2565.9 3000.47C2561.43 2832.21 2561.43 2832.21 2595.68 2836.68C2623.97 2839.66 2631.41 2853.06 2637.37 2905.17Z" fill="#151515"/>
<path d="M1639.74 2930.49C1639.74 2963.24 1645.7 2967.71 1697.81 2967.71C1761.84 2967.71 1779.71 2954.31 1764.82 2917.09C1758.86 2900.71 1736.53 2893.26 1697.81 2893.26C1645.7 2893.26 1639.74 2897.73 1639.74 2930.49Z" fill="#151515"/>
<path d="M1639.74 3063.01C1639.74 3098.74 1644.21 3101.72 1708.24 3101.72C1769.28 3101.72 1775.24 3098.74 1770.77 3067.47C1767.79 3040.67 1755.88 3033.23 1703.77 3030.25C1644.21 3025.78 1639.74 3028.76 1639.74 3063.01Z" fill="#151515"/>
<path d="M2006.05 2958.78C2001.59 2978.13 1992.65 3004.94 1988.19 3018.34C1980.74 3037.69 1989.67 3042.16 2025.41 3042.16C2079.01 3042.16 2077.52 3046.63 2049.23 2976.64C2022.43 2912.62 2017.96 2911.13 2006.05 2958.78Z" fill="#151515"/>
<path d="M2890.5 2528.45C2868.16 2555.26 2865.18 2550.79 2944.1 2599.92C3003.66 2637.15 3005.15 2637.15 3023.01 2607.37C3033.44 2590.99 3039.39 2576.1 3036.42 2574.61C3014.08 2558.23 2923.25 2506.12 2917.3 2506.12C2912.83 2506.12 2900.92 2516.54 2890.5 2528.45Z" fill="#151515"/>
<path d="M1361.32 2582.06C1309.2 2614.82 1306.22 2622.26 1325.58 2652.04C1336 2669.91 1344.94 2668.42 1380.67 2649.06C1465.55 2604.39 1468.52 2599.93 1447.68 2574.62C1422.37 2544.84 1419.39 2544.84 1361.32 2582.06Z" fill="#151515"/>
<path d="M3128.74 2668.43C3115.34 2696.72 3118.32 2704.17 3161.5 2729.48C3188.3 2745.86 3304.44 2815.84 3419.09 2884.33C3606.71 2997.49 3629.04 3007.92 3646.91 2985.58C3670.73 2952.82 3669.24 2952.82 3419.09 2803.93C3304.44 2735.43 3195.75 2669.92 3177.88 2659.5C3149.59 2640.14 3143.63 2641.63 3128.74 2668.43Z" fill="#151515"/>
<path d="M904.162 2856.04C750.797 2948.36 618.278 3030.25 610.833 3037.7C603.388 3045.14 604.877 3061.52 615.3 3074.92C633.167 3097.26 667.414 3080.88 935.43 2918.58C1197.49 2760.75 1233.23 2735.44 1221.31 2711.61C1213.87 2696.72 1201.96 2684.81 1196 2684.81C1190.05 2686.3 1059.02 2762.24 904.162 2856.04Z" fill="#151515"/>
<path d="M508.117 3526.08V3622.86H2205.55H3902.99V3526.08V3429.29H2205.55H508.117V3526.08Z" fill="#151515"/>
<path d="M642.125 3789.63V3875.99H694.239H746.354V4657.7V5439.42H969.701H1193.05V4657.7V3875.99H1245.16H1297.28V3794.09V3713.69L969.701 3709.22L642.125 3704.75V3789.63Z" fill="#151515"/>
<path d="M1475.95 3789.63V3875.99H1528.07H1580.18V4657.7V5439.42H1803.53H2026.88V4660.68V3883.43L2078.99 3878.97L2131.1 3874.5V3794.09V3713.69L1803.53 3709.22L1475.95 3704.75V3789.63Z" fill="#151515"/>
<path d="M2309.79 3794.09V3875.99H2361.9H2414.01V4657.7V5439.42H2629.92H2845.82L2848.8 4660.68L2853.26 3883.43L2909.84 3878.97L2964.94 3874.5V3792.6V3712.2H2637.36H2309.79V3794.09Z" fill="#151515"/>
<path d="M3140.63 3794.09L3146.59 3875.99H3197.22H3247.84V4657.7V5439.42H3463.74H3679.65V4657.7V3875.99H3739.2H3798.76V3794.09V3712.2H3468.21H3136.17L3140.63 3794.09Z" fill="#151515"/>
<path d="M523.008 5618.09V5707.43H2213H3902.99V5618.09V5528.76H2213H523.008V5618.09Z" fill="#151515"/>
<path d="M389 5886.11V5975.45H2213H4037V5886.11V5796.77H2213H389V5886.11Z" fill="#151515"/>
<path d="M2091.81 245.548C1924.33 273.866 1765.39 307.529 1738.47 323.962C1688.47 354.48 1709.89 631.751 1779.22 805.877C1799.7 856.726 1825.47 994.088 1839.5 1112.22C1853.53 1230.35 1889.35 1366.86 1919.86 1416.86C1973.86 1505.33 1966.17 1510.02 1595.34 1525.2C1387.5 1530.64 1206.78 1545.92 1195.24 1552.96C1172.16 1567.05 1258.29 3446.6 1286.46 3492.76C1298.2 3511.99 1391.75 3518.23 1497.5 3501.2C1631.86 3487.82 1693.8 3502.81 1710.43 3556C1729.41 3613.05 1790.5 3617.99 1986.4 3567.05C2184.65 3519.95 2255.78 3524.05 2291 3581.74C2333.25 3650.97 2366.37 3636.04 2831.75 3351.98L3324.06 3051.49L3139.06 2705.14C2961.09 2370.32 2953.85 2332.51 2944.27 1884.36L2932.99 1416.14L2700.08 1172.93C2471.87 937.408 2394.85 767.978 2487.16 711.636C2525.62 688.161 2475.83 338.462 2424.18 253.847C2407.75 226.923 2257.8 223.424 2091.81 245.548ZM2949.2 2636.26L3138.25 3006.54L2761.33 3236.6L2380.56 3469L2164.58 3115.16C2044.86 2919 1854.51 2581.19 1745.47 2367.95L1538.49 1976.94L1776.95 1831.39C1907.72 1751.58 2027.8 1688.84 2046.38 1693.34C2061.12 1700.18 2115.96 1798.68 2168.65 1919.61C2225.19 2038.19 2280.88 2146.74 2304.16 2158.92C2350.71 2183.3 2443.72 2015.67 2408.51 1957.98C2395.92 1928.71 2376.74 1845.39 2367.61 1761.23C2351.87 1623.01 2358.92 1634.55 2552.91 1943.75C2667.1 2122.17 2843.36 2436.9 2949.2 2636.26ZM1556.92 1860.11C1495.38 1897.67 1432.15 1915.15 1418.06 1892.07C1392.24 1849.77 1550.58 1737.28 1614.86 1756.12C1686.84 1770.25 1676.15 1787.34 1556.92 1860.11ZM2187.3 3359.96C2182.16 3394.77 1843.35 3453.76 1826.92 3426.84C1789.36 3365.3 1509.91 2284.73 1518.05 2237.53C1527.04 2200.37 2190.1 3321.3 2187.3 3359.96ZM1669.33 3332.98C1667.18 3355.4 1601.59 3369.04 1528.12 3361.1L1397.4 3345.86L1367.39 2751.81C1351.77 2423.49 1350.42 2144.52 1361.96 2137.48C1388.88 2121.04 1685.81 3264.85 1669.33 3332.98Z" fill="#151515"/>
<path d="M2432.48 2265.37C2319.94 2202.08 2087.68 2349.13 2092.52 2478.15C2102.9 2624.9 2177.83 2721.7 2297.01 2743.98C2597.3 2803.53 2705.6 2410.13 2432.48 2265.37Z" fill="#151515"/>
<path d="M2417.25 1890.71C2431.64 2005.35 2408 2075.89 2347.26 2112.96C2262.22 2164.87 2254.73 2152.6 2132.77 1907.25L2003.32 1649.64L1768.46 1792.99C1590.28 1901.74 1539.52 1955.16 1549.22 2016.57C1559.52 2060.78 1746.97 2395.2 1969.01 2759L2375.69 3425.28L2742.95 3234.77C2947.3 3132.49 3113.33 3031.15 3122.04 3009C3126.7 2989.33 2961.71 2691.69 2762.73 2347.48C2421.54 1770.27 2392.54 1731.86 2417.25 1890.71ZM2593.02 2552.05C2575.31 2641.4 2529.87 2730.86 2493.42 2753.1C2408.38 2805 2117.94 2729.81 2065.55 2643.97C2003.17 2541.78 2063.8 2285.97 2165.03 2224.18C2266.27 2162.39 2527.1 2216.39 2586.98 2314.49C2611.93 2355.37 2617.28 2464.31 2593.02 2552.05Z" fill="#ECECEC"/>
<path d="M1640.32 2807.37C1717.85 3130.7 1794.25 3417.14 1815.66 3444.43C1849.29 3487.32 2209.91 3368.23 2222.93 3313.94C2222.55 3301.64 2065.08 3053.6 1867.85 2754.87L1504.74 2221L1640.32 2807.37Z" fill="#ECECEC"/>
<path d="M1368.18 2687.08C1394.66 3055.97 1418.72 3377.21 1432.2 3395.54C1445.68 3413.87 1520.32 3415.47 1593.5 3404.01C1719.17 3375.12 1716.77 3327.47 1555 2796.82C1459.67 2478.56 1374.46 2174.06 1356.64 2116.55C1338.83 2059.04 1347.01 2314.29 1368.18 2687.08Z" fill="#ECECEC"/>
</svg>
