<svg width="3405" height="3009" viewBox="0 0 3405 3009" fill="none" xmlns="http://www.w3.org/2000/svg">
<path d="M2997.51 66.2288C2919.37 104.213 2852.09 140.026 2847.75 146.538C2842.32 156.305 3070.23 652.267 3090.85 673.972C3099.53 682.655 3376.27 560.021 3402.31 536.145C3412.08 526.378 3386.03 463.433 3291.62 262.66C3223.25 119.406 3161.39 1.11345 3153.79 0.0281962C3146.19 -1.05706 3075.65 29.3301 2997.51 66.2288ZM3090.85 142.197C3107.12 162.817 3100.61 202.971 3078.91 217.08C3053.95 232.273 3007.28 218.165 3000.77 193.204C2988.83 144.367 3058.29 104.213 3090.85 142.197Z" fill="#151515"/>
<path d="M1755.98 371.186L1414.12 571.958H779.25V1537.84H854.133C939.868 1537.84 927.93 1520.47 960.488 1699.54L980.022 1811.32L1023.43 1804.81C1047.31 1801.55 1082.04 1796.13 1100.49 1791.79L1133.04 1785.27L1185.14 1919.85C1214.44 1992.56 1238.31 2054.42 1240.48 2056.59C1241.57 2057.67 1520.48 1951.32 1860.17 1818.92C2199.85 1687.6 2537.37 1556.29 2611.16 1529.15C2730.54 1483.57 2743.56 1475.98 2739.22 1455.36C2731.63 1424.97 2529.77 907.303 2522.17 900.791C2520 897.535 2476.59 901.876 2426.67 910.558L2336.59 924.667L2334.42 1293.65L2297.52 1304.51C2249.77 1317.53 2172.72 1395.67 2162.95 1439.08L2155.36 1472.72H1029.94L1009.32 1426.06C985.449 1371.79 923.589 1315.36 878.008 1304.51L844.365 1296.91V812.885L874.753 807.459C937.697 794.436 990.875 742.344 1018.01 666.376L1028.86 637.074H1591.02C2068.53 637.074 2161.87 634.903 2210.7 619.71C2311.63 590.408 2276.9 577.385 2069.62 571.958L1880.79 566.532L2007.76 535.06L2134.74 502.502L2196.59 522.037C2258.45 541.571 2309.46 579.555 2309.46 607.772C2309.46 616.454 2234.58 645.756 2098.92 689.166C1910.09 749.94 1885.13 759.708 1854.74 794.436C1817.84 836.761 1809.16 898.621 1836.29 935.519C1854.74 961.565 1873.19 960.48 2185.74 913.814C2608.99 850.869 2599.23 853.04 2819.53 757.537C2929.14 709.786 3021.39 666.376 3023.56 660.949C3025.73 653.353 2886.82 344.055 2835.81 247.467L2819.53 214.909L2751.16 246.381C2714.26 264.831 2667.6 278.939 2648.06 278.939C2618.76 278.939 2506.98 253.978 2200.94 180.181C2119.54 160.646 2107.6 164.987 1755.98 371.186ZM2542.79 1120.01L2599.23 1265.44L2574.26 1289.31C2557.99 1304.51 2543.88 1309.93 2538.45 1303.42C2533.02 1297.99 2518.92 1232.88 2504.81 1158C2491.78 1083.11 2478.76 1007.15 2475.51 989.782C2463.57 929.008 2486.36 972.418 2542.79 1120.01ZM2435.35 1122.18C2449.46 1198.15 2461.4 1268.69 2461.4 1278.46C2461.4 1292.57 2421.24 1320.79 2401.71 1320.79C2398.45 1320.79 2396.28 1241.56 2396.28 1144.97C2396.28 1048.39 2399.54 972.418 2402.79 976.759C2407.13 980.015 2421.24 1046.22 2435.35 1122.18ZM2076.13 1548.69C2072.88 1554.12 2058.77 1559.54 2045.74 1559.54C2032.72 1559.54 1841.72 1593.18 1620.32 1634.42C1267.62 1699.54 1217.69 1707.14 1207.93 1691.94C1158 1615.97 1107 1577.99 1036.46 1564.97C925.76 1544.35 1037.54 1537.84 1540.01 1537.84C1899.23 1537.84 2080.47 1541.09 2076.13 1548.69ZM2276.9 1588.84C2268.22 1593.18 2155.36 1636.59 2027.29 1686.52C1899.23 1736.44 1716.91 1806.98 1622.49 1843.88L1452.11 1908.99L1404.36 1865.58C1357.69 1822.17 1314.28 1805.89 1240.48 1804.81C1219.86 1803.72 1207.93 1798.3 1207.93 1788.53C1207.93 1775.51 1325.13 1750.55 1723.42 1677.83C2190.08 1592.1 2324.66 1570.39 2276.9 1588.84Z" fill="#151515"/>
<path d="M538.321 2241.08C450.415 2286.66 377.703 2328.99 377.703 2333.33C377.703 2342.01 526.383 2670.84 563.282 2744.64L583.902 2784.8L651.188 2753.32C689.172 2734.87 735.838 2720.77 756.458 2720.77C775.992 2720.77 937.695 2757.66 1114.59 2803.24C1380.48 2871.62 1441.25 2884.64 1466.22 2874.87C1482.49 2868.36 1637.69 2785.88 1812.41 2691.46C2045.74 2564.49 2143.42 2505.88 2186.83 2465.73C2242.17 2412.55 2244.34 2408.21 2244.34 2355.03C2244.34 2295.34 2225.89 2264.96 2190.08 2264.96C2179.23 2264.96 2105.43 2292.09 2025.12 2325.73C1945.9 2359.37 1789.62 2422.32 1678.93 2466.82L1478.15 2546.04L1294.74 2527.59C1147.15 2512.4 1110.25 2505.88 1100.48 2490.69C1075.52 2449.45 1103.74 2446.2 1303.43 2466.82C1480.32 2484.18 1496.6 2484.18 1521.56 2467.9C1553.04 2447.28 1569.31 2385.42 1554.12 2343.1C1535.67 2291 1494.43 2279.07 1111.34 2216.12C910.564 2183.56 734.753 2156.43 721.729 2157.52C708.706 2157.52 626.227 2195.5 538.321 2241.08Z" fill="#151515"/>
<path d="M149.801 2389.76C59.7248 2432.09 2.20624 2465.73 0.0357257 2476.58C-3.22004 2492.86 217.087 2984.48 237.707 3007.27C248.559 3019.21 551.346 2884.64 558.943 2864.02C562.199 2856.42 512.277 2737.04 448.247 2598.13C333.209 2349.61 316.931 2318.14 302.822 2320.31C299.567 2320.31 230.11 2351.78 149.801 2389.76ZM401.581 2814.1C423.286 2861.85 351.659 2907.43 314.76 2870.53C294.14 2849.91 299.567 2810.84 324.527 2793.48C352.744 2772.86 387.472 2782.62 401.581 2814.1Z" fill="#151515"/>
</svg>
