<svg width="6373" height="6373" viewBox="0 0 6373 6373" fill="none" xmlns="http://www.w3.org/2000/svg">
<path d="M1676.35 734.74C1657.23 779.351 1650.86 976.914 1663.61 1161.73L1682.73 1505.88L2020.5 1525L2351.89 1544.11V2914.31V4278.13H3244.11H4142.7L4034.36 4131.55C3938.77 4004.09 3881.41 3991.35 3473.54 4010.47L3021.06 4029.58L2925.46 3819.28C2868.1 3691.82 2785.26 3615.34 2721.53 3615.34C2613.18 3628.09 2606.81 3526.12 2606.81 2296.13C2606.81 1008.78 2600.44 964.168 2479.35 964.168C2377.38 964.168 2351.89 1008.78 2351.89 1187.22C2351.89 1410.28 2351.89 1410.28 2065.11 1410.28H1778.32V1091.63V772.978L3607.37 785.724L5430.05 804.843V1091.63V1378.42L5149.64 1397.54L4862.85 1416.65L4888.35 1187.22C4913.84 996.033 4894.72 964.168 4780 964.168C4646.17 964.168 4646.17 983.287 4646.17 2264.26C4646.17 3366.79 4658.92 3583.47 4748.14 3666.32C4799.12 3723.68 4856.48 3768.29 4869.23 3768.29C4881.97 3768.29 4888.35 3271.2 4888.35 2665.76V1569.61L5162.38 1550.49C5315.34 1537.74 5474.66 1499.5 5519.27 1461.27C5621.24 1378.42 5627.61 823.962 5525.65 721.994C5404.56 600.907 1720.96 613.653 1676.35 734.74Z" fill="#151515"/>
<path d="M3320.59 1601.47C3040.18 1862.76 3218.62 2302.5 3594.63 2302.5C3747.58 2302.5 3843.17 2257.89 3938.77 2136.8C4110.84 1920.12 4104.47 1850.02 3913.28 1639.71C3728.46 1442.15 3511.78 1429.4 3320.59 1601.47Z" fill="#151515"/>
<path d="M4958.45 3303.06C4977.57 3870.26 4990.31 3927.62 5136.89 4042.33C5219.74 4112.43 5277.1 4182.54 5251.61 4201.65C5232.49 4220.77 4920.21 3946.73 4556.95 3589.85C3881.41 2920.68 3734.83 2844.21 3543.64 3054.51C3365.2 3252.08 3416.18 3379.54 3881.41 3857.51C4327.52 4316.37 4327.52 4322.74 4327.52 4679.63V5042.89H4964.82H5602.12V4182.54V3315.81L5308.96 3003.53C5143.27 2825.09 4996.69 2684.88 4971.19 2684.88C4952.08 2684.88 4945.7 2965.29 4958.45 3303.06Z" fill="#151515"/>
<path d="M4391.25 5157.61C4353.02 5170.35 4327.52 5291.44 4327.52 5431.64V5680.19H4971.2H5608.5L5589.38 5418.9L5570.26 5157.61L5009.43 5151.23C4703.53 5144.86 4423.12 5144.86 4391.25 5157.61Z" fill="#151515"/>
</svg>
