<svg width="7430" height="7430" viewBox="0 0 7430 7430" fill="none" xmlns="http://www.w3.org/2000/svg">
<path d="M1307.68 1798.06C1203.66 2058.11 1114.5 2310.73 1114.5 2362.74C1114.5 2459.33 1523.15 2667.37 1827.78 2719.38C1916.94 2734.24 2132.41 2815.97 2310.73 2897.7C2489.05 2979.43 2711.95 3046.3 2808.54 3046.3C2979.43 3046.3 2979.43 3061.16 2682.23 3596.12C2511.34 3893.32 2377.6 4160.8 2377.6 4183.09C2377.6 4227.67 5096.98 5721.1 5186.14 5721.1C5223.29 5721.1 5312.45 5594.79 5379.32 5431.33C5475.91 5230.72 5550.21 5156.42 5639.37 5178.71C5735.96 5201 5795.4 5119.27 5891.99 4799.78C5996.01 4480.29 6062.88 4383.7 6174.33 4383.7C6308.07 4383.7 6315.5 4324.26 6315.5 3425.23V2474.19L5669.09 2437.04C5044.97 2399.89 4985.53 2377.6 4346.55 2006.1L3677.85 1619.74L3135.46 1738.62C2607.93 1857.5 2303.3 1820.35 2303.3 1642.03C2303.3 1567.73 1768.34 1337.4 1604.88 1337.4C1552.87 1337.4 1419.13 1545.44 1307.68 1798.06ZM5409.04 2645.08L6092.6 2697.09V3425.23V4160.8H5409.04C5030.11 4160.8 4391.13 4138.51 3997.34 4108.79L3269.2 4064.21V3603.55C3269.2 3350.93 3284.06 3128.03 3306.35 3105.74C3328.64 3090.88 3514.39 3098.31 3729.86 3128.03C3945.33 3150.32 4145.94 3165.18 4183.09 3142.89C4257.39 3098.31 4101.36 2823.4 3989.91 2823.4C3937.9 2815.97 3804.16 2771.39 3677.85 2711.95C3469.81 2615.36 3492.1 2615.36 4093.93 2607.93C4443.14 2600.5 5037.54 2622.79 5409.04 2645.08ZM3120.6 3937.9C3120.6 4056.78 3090.88 4160.8 3046.3 4160.8C2964.57 4160.8 2942.28 3841.31 3024.01 3767.01C3105.74 3677.85 3120.6 3707.57 3120.6 3937.9ZM5773.11 4339.12C5817.69 4376.27 5609.65 4903.8 5557.64 4903.8C5438.76 4903.8 3677.85 4368.84 3618.41 4316.83C3573.83 4272.25 5721.1 4301.97 5773.11 4339.12ZM5290.16 5044.97C5319.88 5067.26 5282.73 5171.28 5208.43 5267.87L5074.69 5438.76L4212.81 4970.67C3737.29 4710.62 3343.5 4472.86 3343.5 4450.57C3343.5 4398.56 5208.43 4963.24 5290.16 5044.97Z" fill="#151515"/>
<path d="M4443.14 3053.73C4257.39 3157.75 4264.82 3610.98 4450.57 3715C4666.04 3826.45 4866.65 3804.16 5000.39 3655.56C5342.17 3284.06 4881.51 2793.68 4443.14 3053.73Z" fill="#151515"/>
<path d="M3997.34 2778.82C4160.8 2853.12 4235.1 2942.28 4235.1 3053.73C4235.1 3209.76 4212.81 3209.76 3789.3 3172.61L3343.5 3135.46V3566.4C3343.5 3893.32 3373.22 4004.77 3462.38 4041.92C3529.25 4064.21 4123.65 4086.5 4784.92 4086.5H5996.01L6040.59 3440.09C6070.31 3083.45 6070.31 2778.82 6048.02 2749.1C6025.73 2726.81 5498.2 2704.52 4881.51 2689.66C3841.31 2674.8 3767.01 2682.23 3997.34 2778.82ZM5015.25 3083.45C5119.27 3180.04 5201 3313.78 5201 3380.65C5201 3536.68 4866.65 3863.6 4710.62 3863.6C4524.87 3863.6 4235.1 3573.83 4235.1 3388.08C4235.1 3202.33 4517.44 2897.7 4695.76 2897.7C4770.06 2897.7 4918.66 2979.43 5015.25 3083.45Z" fill="#ECECEC"/>
<path d="M4569.45 4569.45C5022.68 4710.62 5431.33 4829.5 5483.34 4829.5C5565.07 4829.5 5758.25 4465.43 5706.24 4420.85C5691.38 4413.42 5253.01 4383.7 4718.05 4353.98L3752.15 4309.4L4569.45 4569.45Z" fill="#ECECEC"/>
<path d="M4272.25 4933.52C4680.9 5156.42 5037.54 5349.6 5067.26 5349.6C5096.98 5349.6 5156.42 5282.73 5201 5208.43C5267.87 5074.69 5215.86 5044.97 4532.3 4836.93C4123.65 4710.62 3737.29 4584.31 3662.99 4562.02C3588.69 4539.73 3863.6 4703.19 4272.25 4933.52Z" fill="#ECECEC"/>
</svg>
