<svg width="7648" height="7648" viewBox="0 0 7648 7648" fill="none" xmlns="http://www.w3.org/2000/svg">
<g clip-path="url(#clip0_35_23)">
<path d="M1628.01 239.346C874.797 581.719 395.475 1180.87 155.814 2071.05C-186.559 3372.05 -100.965 3440.52 1833.44 3389.17L3511.07 3337.82V1711.54V85.279L2826.33 51.0417C2449.72 16.8044 1919.04 102.398 1628.01 239.346ZM3083.1 1711.54V3098.16L1764.97 3046.81L429.712 2995.44L481.067 2396.29C498.186 2071.05 652.254 1625.95 789.204 1403.41C1148.69 872.736 2038.86 342.059 2620.89 342.059H3083.1V1711.54Z" fill="#151515"/>
<path d="M4230.05 119.516C4161.57 170.871 4110.22 941.211 4110.22 1831.38V3423.42H5822.08H7533.95V2584.6C7533.95 1574.6 7020.38 735.787 6164.46 307.82C5565.31 -0.314447 4435.47 -103.026 4230.05 119.516ZM6010.39 598.838C6660.89 941.211 7191.57 1814.26 7191.57 2533.24V3098.16L5873.43 3046.81L4538.18 2995.44L4486.83 1899.86C4452.59 1300.7 4469.71 701.549 4521.06 581.719C4640.9 256.465 5377 273.584 6010.39 598.838Z" fill="#151515"/>
<path d="M53.1013 4382.05C-118.085 4844.26 327 6196.63 823.439 6727.31C1337 7257.98 2244.28 7583.24 2997.5 7497.65L3511.06 7446.3V5820.02V4193.76L1833.45 4142.39C395.474 4108.16 155.813 4142.39 53.1013 4382.05ZM3083.1 5820.02C3083.1 7172.39 3083.1 7189.51 2638.01 7189.51C1730.73 7189.51 772.084 6402.06 498.186 5443.41C412.592 5083.92 378.355 4707.31 429.711 4621.72C481.067 4519 1114.46 4450.53 1816.32 4450.53H3083.1V5820.02Z" fill="#151515"/>
<path d="M4777.84 4587.47C4298.52 5015.45 4195.8 5220.87 4195.8 5820.02C4195.8 6419.17 4298.52 6624.6 4760.72 7035.44C5377 7583.24 5941.9 7651.71 6678.01 7275.1C8133.09 6521.89 7705.13 4382.05 6061.74 4159.51C5445.47 4073.92 5274.28 4142.39 4777.84 4587.47ZM6763.61 4878.5C7037.5 5135.27 7191.57 5494.76 7191.57 5820.02C7191.57 6470.53 6523.95 7189.51 5924.79 7189.51C5377 7189.51 4675.13 6556.11 4521.06 5956.96C4435.46 5580.35 4521.06 5374.94 4931.91 4964.08C5565.29 4330.7 6198.69 4296.46 6763.61 4878.5Z" fill="#151515"/>
</g>
<defs>
<clipPath id="clip0_35_23">
<rect width="7648" height="7648" fill="white"/>
</clipPath>
</defs>
</svg>
