<svg width="7485" height="7485" viewBox="0 0 7485 7485" fill="none" xmlns="http://www.w3.org/2000/svg">
<path d="M6002.97 950.594C5965.54 1025.44 5823.33 1362.27 5688.6 1699.09L5449.08 2320.35H3211.06H973.047V3742.5V5164.65H3742.5H6511.95V3742.5V2320.35H6294.88H6077.82L6302.37 1788.91C6571.83 1152.69 6564.34 868.259 6272.43 838.319C6137.7 823.349 6047.88 860.774 6002.97 950.594ZM5913.15 2095.8C5696.08 2634.72 5508.96 3061.36 5486.5 3046.39C5471.53 3023.94 5636.2 2574.84 5845.78 2028.43C6062.85 1489.51 6249.97 1062.87 6272.43 1085.32C6287.4 1100.29 6130.21 1556.88 5913.15 2095.8ZM5314.35 2657.17C5314.35 2679.63 5232.01 2904.18 5127.22 3158.67C4932.61 3645.19 4887.7 4071.84 5022.43 4161.66C5172.13 4251.48 5501.47 3824.83 5726.02 3233.52C5905.66 2784.42 5988 2649.69 6122.73 2634.72C6287.4 2612.26 6287.4 2612.26 6287.4 3772.44V4940.1H3742.5H1197.6V3779.92V2619.75H3255.97C4386.21 2619.75 5314.35 2634.72 5314.35 2657.17ZM5351.77 3517.95C5321.83 3607.77 5284.41 3660.16 5261.95 3645.19C5239.5 3622.74 5246.98 3532.92 5276.92 3443.1C5306.86 3353.28 5344.29 3300.88 5366.74 3315.85C5389.2 3338.31 5381.71 3428.13 5351.77 3517.95Z" fill="#151515"/>
<path d="M1624.25 2889.21C1594.31 2919.15 1571.85 2986.51 1571.85 3046.39C1571.85 3121.24 1818.86 3143.7 2776.94 3143.7C3877.23 3143.7 3974.54 3136.21 3952.08 3008.97C3929.63 2896.69 3802.38 2881.72 2799.39 2859.27C2185.62 2851.78 1654.19 2866.75 1624.25 2889.21Z" fill="#151515"/>
<path d="M1571.85 3480.52C1571.85 3577.83 1781.43 3592.8 2994 3592.8C4206.57 3592.8 4416.15 3577.83 4416.15 3480.52C4416.15 3383.22 4206.57 3368.25 2994 3368.25C1781.43 3368.25 1571.85 3383.22 1571.85 3480.52Z" fill="#151515"/>
<path d="M1609.28 3899.68C1497 4079.32 1736.52 4116.75 2814.36 4101.78C3749.99 4079.32 3929.63 4064.35 3929.63 3967.05C3929.63 3869.74 3742.5 3854.77 2791.91 3832.32C2020.95 3817.35 1639.22 3839.8 1609.28 3899.68Z" fill="#151515"/>
<path d="M1571.85 4453.58C1571.85 4543.4 1706.58 4565.85 2320.35 4565.85C2934.12 4565.85 3068.85 4543.4 3068.85 4453.58C3068.85 4363.76 2934.12 4341.3 2320.35 4341.3C1706.58 4341.3 1571.85 4363.76 1571.85 4453.58Z" fill="#151515"/>
<path d="M4416.15 4453.58C4416.15 4543.4 4550.88 4565.85 5164.65 4565.85C5778.42 4565.85 5913.15 4543.4 5913.15 4453.58C5913.15 4363.76 5778.42 4341.3 5164.65 4341.3C4550.88 4341.3 4416.15 4363.76 4416.15 4453.58Z" fill="#151515"/>
</svg>
