<svg width="3606" height="6320" viewBox="0 0 3606 6320" fill="none" xmlns="http://www.w3.org/2000/svg">
<path fill-rule="evenodd" clip-rule="evenodd" d="M2347 0L2347 3158L704 3158L704 -7.18178e-05L2347 0ZM1796.16 1400.39L1796.16 1757.61C1796.16 1760.44 1793.33 1763.27 1790.5 1763.27L1735.47 1763.27C1732.64 1763.27 1729.81 1760.44 1729.81 1757.61L1729.81 1645.82C1708.98 1663.81 1684.3 1676.15 1657.81 1681.8L1657.81 1757.61C1657.81 1760.44 1654.98 1763.27 1652.15 1763.27L1597.12 1763.27C1594.29 1763.27 1591.46 1760.44 1591.46 1757.61L1591.46 1681.8C1559.32 1675.12 1529.74 1658.16 1507.11 1634.51C1477.8 1604.19 1459.8 1561.52 1459.8 1515.01L1459.8 1510.38L1231.18 1711.35C1224.49 1717.01 1211.38 1707.5 1211.38 1702.87L1210.35 1610.1L1454.91 1396.02C1456.71 1394.22 1459.54 1394.22 1462.37 1394.22L1551.6 1394.22L1551.6 1515.52C1551.6 1537.37 1560.09 1557.16 1573.46 1571.55C1579.12 1577.2 1584.78 1582.08 1591.46 1585.68L1591.46 1399.87C1591.46 1397.04 1594.29 1394.22 1597.12 1394.22L1652.15 1394.22C1654.98 1394.22 1657.81 1397.04 1657.81 1399.87L1657.81 1585.68C1664.5 1581.83 1670.15 1577.2 1675.81 1571.55C1689.18 1557.41 1697.67 1537.37 1697.67 1515.52L1697.67 1394.22L1789.73 1394.22C1792.56 1394.22 1795.39 1397.04 1795.39 1399.87L1796.16 1400.39ZM2008.58 1578.49C2008.58 1845.76 1792.3 2061.64 1525.11 2061.64C1257.67 2061.64 1041.65 1845.51 1041.65 1578.49C1041.65 1311.21 1257.92 1095.33 1525.11 1095.33C1792.3 1095.33 2008.58 1311.21 2008.58 1578.49ZM2096.78 526.847L2096.78 2626.53C1963.06 2626.53 1854.02 2735.49 1854.02 2869.13L1204.69 2869.13C1204.69 2735.49 1095.66 2626.53 961.932 2626.53L961.932 526.847C1095.66 526.847 1204.69 417.88 1204.69 284.241L1854.02 284.241C1854.02 417.88 1963.06 526.847 2096.78 526.847Z" fill="black"/>
<rect x="92.5" y="2778.5" width="2718" height="3449" stroke="black" stroke-width="185"/>
<path d="M704 5246V3229H895.5V5246H704Z" fill="black"/>
<path d="M1139 5246.5V3229.5H1330.5V5246.5H1139Z" fill="black"/>
<path d="M1574 5246.5V3229.5H1765.5V5246.5H1574Z" fill="black"/>
<path d="M2009 5246.5V3229.5H2200.5V5246.5H2009Z" fill="black"/>
<path d="M2961.99 4580.18C2981.11 5147.38 2993.86 5204.73 3140.44 5319.45C3223.28 5389.55 3280.64 5459.65 3255.15 5478.77C3236.03 5497.89 2923.75 5223.85 2560.49 4866.97C1884.95 4197.8 1738.38 4121.32 1547.19 4331.63C1368.74 4529.2 1419.73 4656.66 1884.96 5134.63C2331.07 5593.49 2331.07 5599.86 2331.07 5956.75V6320.01H2968.36H3605.67V5459.65V4592.93L3312.51 4280.65C3146.81 4102.21 3000.23 3962 2974.74 3962C2955.62 3962 2949.25 4242.41 2961.99 4580.18Z" fill="#151515"/>
<circle cx="1498.5" cy="1594.5" r="385.5" fill="black"/>
</svg>
