<svg width="5909" height="3843" viewBox="0 0 5909 3843" fill="none" xmlns="http://www.w3.org/2000/svg">
<g clip-path="url(#clip0_35_55)">
<path d="M1483.6 1042.78V2085.57H3629.31H5775.01V1042.78V0H3629.31H1483.6V1042.78ZM5554.31 932.37C5566.57 1374.02 5566.57 1766.6 5542.05 1791.13C5517.53 1815.67 4646.98 1840.21 3604.78 1840.21H1728.82V981.442V122.68H3617.05H5505.27L5554.31 932.37Z" fill="#151515"/>
<path d="M1679.78 2392.27C1434.56 2514.95 1287.42 2539.48 1238.38 2453.61C1201.6 2380 919.588 2343.2 613.059 2380L73.5671 2429.07L36.7835 3116.08L0 3803.09H625.32C993.155 3803.09 1238.38 3754.02 1238.38 3668.14C1238.38 3570 1471.34 3557.73 2072.14 3631.34C3702.88 3827.63 4622.46 3631.34 5198.74 2944.33C5505.27 2576.29 5321.35 2380 4965.78 2711.24C4732.81 2919.79 4512.11 2981.13 3850.01 3005.67C3396.35 3017.94 3187.91 3005.67 3408.61 2981.13C3617.05 2956.6 3862.27 2858.45 3935.84 2760.31C4095.23 2564.02 3972.62 2527.22 2954.94 2404.54C2648.41 2367.73 2317.36 2306.39 2219.27 2269.59C2121.18 2232.78 1875.96 2294.12 1679.78 2392.27ZM993.155 3067.01C993.155 3336.91 944.111 3557.73 870.543 3557.73C809.238 3557.73 747.932 3336.91 747.932 3067.01C747.932 2797.11 809.238 2576.29 870.543 2576.29C944.111 2576.29 993.155 2797.11 993.155 3067.01Z" fill="#151515"/>
<path d="M2037 512L5221 512L5221 703L2037 703L2037 512Z" fill="black"/>
<path d="M2036 947L5220 947L5220 1138L2036 1138L2036 947Z" fill="black"/>
<path d="M2036 1382L5220 1382L5220 1573L2036 1573L2036 1382Z" fill="black"/>
</g>
<defs>
<clipPath id="clip0_35_55">
<rect width="5909" height="3843" fill="white"/>
</clipPath>
</defs>
</svg>
