<svg width="5446" height="5446" viewBox="0 0 5446 5446" fill="none" xmlns="http://www.w3.org/2000/svg">
<g clip-path="url(#clip0_36_63)">
<path d="M852.45 4.72742C622.697 45.1469 456.765 219.589 428.044 452.533C413.154 574.856 466.336 741.852 553.558 840.773C697.153 1006.71 946.053 1055.64 1149.21 958.842C1240.69 914.167 1301.32 864.174 1349.18 789.718C1539.58 498.271 1402.37 118.54 1070.5 17.4916C1015.19 0.47274 912.015 -4.84561 852.45 4.72742ZM1089.65 201.507C1153.47 236.608 1206.65 290.855 1242.82 357.866C1263.03 396.158 1267.28 419.559 1267.28 504.653C1267.28 596.129 1264.09 611.021 1236.44 662.076C1200.27 725.896 1146.02 780.144 1079.01 815.246C1040.72 835.455 1017.32 839.71 932.226 839.71C847.131 839.71 823.731 835.455 785.439 815.246C718.427 779.081 657.798 720.579 625.888 659.949C600.359 612.084 597.168 594.001 597.168 504.653C597.168 415.305 600.359 397.222 625.888 349.358C667.37 270.646 749.274 202.571 836.494 173.852C851.386 168.533 901.378 166.406 948.18 167.469C1018.38 170.661 1043.91 175.979 1089.65 201.507Z" fill="#151515"/>
<path d="M437.615 1065.21C370.604 1108.82 281.254 1206.68 244.025 1275.81C168.506 1420.47 172.759 1361.97 168.506 2317.14C166.378 2911.75 169.568 3194.68 177.014 3234.03C183.396 3264.88 203.606 3310.63 221.689 3335.09C249.344 3373.38 264.236 3423.37 322.738 3672.26L390.813 3963.72L213.179 4480.66C116.385 4765.73 27.0368 5028.46 15.3364 5065.67C-11.2554 5149.7 -3.8097 5208.21 41.9281 5277.35C70.6474 5320.96 90.8571 5335.85 181.269 5380.52C270.618 5425.2 297.21 5432.64 348.265 5432.64C425.914 5432.64 495.053 5394.36 532.281 5330.53C586.528 5236.93 1083.26 4086.03 1091.77 4032.86C1101.35 3976.47 1092.84 3889.26 1049.23 3591.43C1037.53 3513.78 1027.95 3447.83 1027.95 3444.64C1027.95 3442.51 1111.98 3440.39 1214.09 3440.39H1400.24V4328.55V5217.78L1373.65 5243.3C1349.18 5268.85 1340.67 5269.9 1230.05 5269.9C1119.43 5269.9 1110.92 5268.85 1086.45 5243.3L1059.86 5217.78V4900.81V4583.83L974.769 4775.3L890.738 4966.75L889.674 5084.83C889.674 5156.09 896.057 5222.04 904.566 5251.82C924.775 5318.83 974.769 5379.45 1035.4 5409.25C1081.14 5431.59 1101.35 5434.77 1224.73 5434.77C1413 5434.77 1473.63 5408.18 1534.26 5299.69L1565.11 5243.3L1570.42 4322.16L1575.74 3401.03L1609.79 3372.32C1627.86 3357.43 1654.45 3321.26 1668.28 3293.6C1691.68 3246.8 1692.75 3229.78 1695.94 2993.64L1700.19 2742.62L1614.04 2709.64L1527.88 2676.68V2952.16V3226.6L1500.22 3247.87C1472.57 3270.19 1461.93 3270.2 926.903 3270.2H382.303L359.966 3245.74L336.566 3220.21L338.693 2333.1L341.883 1446L370.603 1385.37C420.595 1277.94 512.07 1197.1 628.011 1157.75L678.005 1140.73L619.502 1110.95C586.528 1093.93 546.108 1070.53 529.09 1058.83C490.798 1031.17 489.734 1031.17 437.615 1065.21ZM898.184 3692.48C917.331 3831.82 932.221 3963.72 932.221 3984.99C932.221 4012.63 854.573 4201.97 665.24 4633.83C519.517 4968.89 394.004 5248.62 387.621 5256.07C370.603 5277.35 334.439 5273.1 266.364 5242.25C186.588 5206.09 166.378 5188 166.378 5152.9C166.378 5124.18 171.696 5108.22 409.958 4410.46L561 3971.15L498.244 3706.3L435.487 3440.39H649.284H863.083L898.184 3692.48Z" fill="#151515"/>
<path d="M1332.16 1058.83C1317.27 1070.53 1277.91 1093.93 1244.94 1109.88L1186.44 1140.73L1236.43 1157.75C1352.37 1197.1 1443.85 1277.94 1493.84 1385.37C1517.24 1435.37 1522.56 1465.15 1525.75 1554.5L1530 1662.99L1601.27 1690.65C1639.56 1706.6 1677.86 1722.56 1686.36 1725.74C1699.13 1730 1700.18 1709.79 1694.87 1593.85C1687.43 1443.88 1671.47 1373.67 1620.42 1275.82C1582.12 1204.55 1491.71 1107.75 1424.7 1065.21C1370.45 1031.17 1368.32 1030.11 1332.16 1058.83Z" fill="#151515"/>
<path d="M580.143 1514.08C563.125 1531.1 549.297 1555.56 549.297 1567.26C549.297 1615.12 595.035 1640.65 889.672 1764.04C1811.88 2146.97 2127.79 2280.98 2145.87 2298C2170.34 2320.35 2171.39 2360.76 2149.07 2415.01C2125.66 2472.45 2093.75 2504.36 2059.72 2504.36C2033.12 2504.36 1867.18 2443.72 1167.29 2175.68C1013.06 2116.12 872.654 2068.25 856.698 2068.25C817.342 2068.25 783.305 2105.48 783.305 2148.03C783.305 2188.45 802.451 2207.59 873.718 2237.38C1027.95 2301.19 1986.32 2661.77 2020.35 2668.16C2075.67 2678.79 2160.75 2652.2 2212.87 2609.65C2257.56 2571.37 2319.25 2456.5 2330.95 2387.35C2335.2 2360.76 2332.02 2323.53 2320.31 2284.18C2292.65 2187.38 2245.85 2151.22 2049.08 2069.32C1799.1 1966.13 1608.72 1886.37 1103.47 1675.76C850.316 1570.45 635.455 1483.23 626.945 1483.23C618.436 1483.23 597.163 1497.06 580.143 1514.08Z" fill="#151515"/>
<path d="M1924.62 1664.05C1889.52 1678.94 1866.13 1720.43 1870.38 1766.16C1873.57 1804.46 1875.7 1806.59 1956.53 1840.62L2038.45 1874.67V1849.14V1823.61H2549H3059.57V2334.17V2844.74H2524.54C2079.93 2844.74 1979.94 2841.54 1936.33 2828.78C1907.61 2820.26 1881.02 2812.83 1876.77 2812.83C1871.45 2812.83 1868.25 2843.67 1868.25 2880.9C1868.25 2938.34 1872.5 2955.35 1893.78 2979.82L1919.3 3009.6H2547.93H3175.51L3199.97 2985.14L3224.43 2960.66V2334.17V1707.67L3199.97 1683.2L3175.51 1658.74L2561.77 1656.6C2219.26 1655.55 1937.39 1658.74 1924.62 1664.05Z" fill="#151515"/>
<path d="M4931.63 2731.98C4910.35 2743.68 4878.44 2811.76 4769.95 3080.86C4264.71 4324.3 4167.91 4557.25 4156.21 4572.14C4143.45 4588.1 4073.24 4589.15 3486.09 4587.03L2830.87 4583.83L2770.25 4424.29C2737.27 4336 2709.63 4261.54 2708.56 4256.22C2708.56 4251.97 2820.23 4248.77 2957.45 4248.77C3204.22 4248.77 3207.42 4248.77 3236.14 4224.31C3273.37 4192.4 3275.5 4140.28 3241.45 4107.3C3219.11 4084.98 3209.54 4083.91 2929.81 4078.59L2640.48 4073.27L2600.07 3966.9C2577.73 3908.4 2556.45 3852.03 2553.25 3841.39C2547.95 3824.37 2574.53 3823.31 3005.32 3823.31H3462.7L3491.41 3798.84C3531.84 3763.74 3530.78 3712.69 3490.36 3676.53L3460.57 3651L2978.72 3654.19C2671.33 3656.32 2492.63 3654.19 2486.24 3647.8C2480.93 3641.42 2459.65 3591.43 2439.44 3536.13C2419.24 3480.81 2399.03 3426.55 2394.78 3415.92C2387.32 3398.91 2433.06 3397.84 3261.66 3397.84H4136L4166.84 3367C4183.87 3349.97 4197.69 3325.52 4197.69 3312.74C4197.69 3299.99 4183.87 3275.51 4166.84 3258.51L4136 3227.65H3235.07C2259.69 3227.65 2289.47 3225.53 2242.67 3286.15C2197.99 3343.59 2201.19 3365.93 2288.4 3599.93C2334.14 3720.13 2436.26 3996.69 2518.16 4213.67C2680.9 4651.9 2683.03 4657.22 2726.63 4696.59C2790.46 4756.16 2759.61 4754.02 3458.45 4757.21C4195.57 4761.48 4196.64 4761.48 4265.76 4691.27C4302.99 4654.04 4324.27 4611.49 4404.05 4413.65C4456.17 4284.95 4543.38 4069.02 4598.7 3934.99C4652.96 3799.91 4771.02 3510.58 4860.37 3291.47L5022.04 2892.59L5204.99 2887.27C5376.24 2881.95 5390.08 2880.9 5411.35 2858.56C5442.2 2827.72 5442.2 2776.66 5411.35 2745.8C5389.01 2723.48 5378.37 2722.41 5173.08 2720.28C5005.02 2718.16 4952.9 2720.28 4931.63 2731.98Z" fill="#151515"/>
<path d="M3082.96 4939.11C3028.73 4952.93 2964.9 5000.8 2931.92 5052.92C2856.4 5173.11 2896.83 5329.47 3023.41 5403.93C3062.76 5427.32 3086.16 5432.64 3144.65 5433.71C3207.41 5433.71 3224.43 5429.45 3268.05 5401.79C3396.75 5323.08 3433.98 5167.79 3353.15 5048.66C3294.64 4961.43 3179.77 4914.63 3082.96 4939.11ZM3203.16 5126.31C3281.87 5203.96 3174.45 5316.7 3087.22 5247.57C3052.12 5219.91 3050 5167.79 3081.9 5127.38C3111.69 5090.15 3166.99 5089.08 3203.16 5126.31Z" fill="#151515"/>
<path d="M3848.81 4939.11C3763.71 4961.43 3683.94 5044.4 3664.79 5132.7C3641.4 5233.73 3691.38 5343.29 3787.12 5401.79C3860.51 5447.53 3960.5 5447.53 4033.89 5401.79C4095.58 5364.56 4148.77 5289.05 4159.4 5229.48C4175.36 5129.49 4122.17 5018.87 4036.01 4967.82C3986.02 4939.11 3903.06 4926.34 3848.81 4939.11ZM3967.93 5122.06C4005.16 5151.84 4006.23 5207.14 3969 5243.3C3892.42 5320.96 3779.66 5213.52 3847.74 5127.38C3875.4 5092.26 3927.52 5090.15 3967.93 5122.06Z" fill="#151515"/>
</g>
<defs>
<clipPath id="clip0_36_63">
<rect width="5446" height="5446" fill="white"/>
</clipPath>
</defs>
</svg>
