<svg width="18921" height="16364" viewBox="0 0 18921 16364" fill="none" xmlns="http://www.w3.org/2000/svg">
<path d="M10049.6 944.658C9520.01 1032.25 9002.93 1183.63 8509.69 1395.49C8097.69 1571.71 7702.99 1785.91 7330.72 2035.34C6966.69 2278.33 6627.79 2557.03 6319.07 2867.29C6123.21 3061.93 5940.03 3268.92 5770.64 3486.99H7766.06C8431.23 2557.98 9197.07 1705.35 10049.6 944.658ZM840.977 7580.13H11612.8C11835.1 7581.35 12048 7670.21 12205.2 7827.42C12362.4 7984.63 12451.3 8197.5 12452.5 8419.83V15523.2C12451.3 15745.5 12362.4 15958.4 12205.2 16115.6C12048 16272.8 11835.1 16361.7 11612.8 16362.9H5804.73C5872.89 16177 5933.31 15984.9 5985.99 15785H11612.8C11681.5 15784 11747.1 15756.2 11795.6 15707.5C11820 15683.4 11839.5 15654.7 11852.8 15623.1C11866.1 15591.5 11873 15557.5 11873.1 15523.2V11541.6H580.705V12424.7C389.806 12473.4 196.378 12511.7 1.2911 12539.3V8419.83C1.70062 8197.25 90.2987 7983.91 247.682 7826.52C405.064 7669.14 618.404 7580.54 840.977 7580.13ZM8232.38 12492.8C8407.95 12492.5 8581.14 12533.4 8738.01 12612.3C8894.89 12691.1 9031.06 12805.7 9135.58 12946.8C9276.92 12756.8 9474.51 12616.2 9700.29 12545C9926.08 12473.8 10168.6 12475.5 10393.3 12550C10618.1 12624.4 10813.6 12767.8 10952.2 12959.7C11090.9 13151.6 11165.5 13382.4 11165.5 13619.1C11165.5 13855.9 11090.9 14086.6 10952.2 14278.6C10813.6 14470.5 10618.1 14613.9 10393.3 14688.3C10168.6 14762.8 9926.08 14764.5 9700.29 14693.3C9474.51 14622 9276.92 14481.5 9135.58 14291.5C9020.85 14445.7 8868.58 14568 8693.26 14646.7C8517.93 14725.4 8325.39 14757.9 8133.94 14741.2C7942.49 14724.4 7758.5 14659 7599.49 14551.1C7440.47 14443.1 7311.72 14296.3 7225.48 14124.6C7139.24 13952.8 7098.38 13761.9 7106.78 13569.9C7115.19 13377.9 7172.58 13191.2 7273.51 13027.7C7374.43 12864.1 7515.52 12729.1 7683.36 12635.5C7851.2 12541.9 8040.2 12492.8 8232.38 12492.8ZM580.705 9313.75H11873.1V8419.83C11872.7 8350.92 11845.1 8284.96 11796.4 8236.24C11747.7 8187.51 11681.7 8159.96 11612.8 8159.55H840.977C806.74 8159.35 772.803 8165.94 741.132 8178.95C709.462 8191.95 680.688 8211.12 656.478 8235.33C632.269 8259.54 613.105 8288.31 600.098 8319.98C587.091 8351.65 580.499 8385.59 580.705 8419.83V9313.75ZM17174.6 11129.5C17305.5 10896.3 17423.9 10656.4 17529.3 10410.6L17538.6 10388.9C17711.7 9979.22 17843 9553.08 17930.6 9116.99C17993.1 8801.05 18033.5 8481.13 18051.4 8159.55H16136.6C16074.7 9203.88 15773.6 10220 15256.6 11129.5H17174.6ZM16613.7 11983.1H14725.2C14501.6 12305.4 14261.1 12615.7 14004.8 12912.7V11129.5H14269.7C14855.2 10242 15204.4 9219.74 15284.5 8159.55H14004.8V7304.36H15265.9C15162.6 6329.36 14793.4 5339.9 14158.2 4335.98H11614.4V5925.52H10760.7V4339.08H8216.88C7894.04 4837.23 7628.97 5370.51 7426.77 5928.62H6528.22C6703.31 5375.45 6937.02 4842.58 7225.37 4339.08H5200.52C5067.62 4571.11 4947.13 4810.04 4839.55 5054.84L4830.26 5074.98C4713.76 5351.63 4615.94 5635.78 4537.45 5925.52H3662.13C3758.94 5520.94 3889 5125.05 4050.99 4741.89L4060.29 4717.1C4257.74 4257 4497.34 3816.17 4776.03 3400.23C5327.38 2579.2 6032.95 1873.09 6853.56 1321.13C7269.31 1042.14 7710.17 802.516 8170.41 605.37C9125.67 200.054 10153.7 -5.56404 11191.4 1.15973C11711.6 2.25877 12230.5 54.1468 12740.7 156.086C13234.1 255.661 13716.3 404.624 14179.9 600.723L14203.1 610.018C14663.4 807.164 15104.2 1046.79 15520 1325.78C16341.7 1877.43 17048.3 2583.56 17600.6 3404.88C17879.4 3820.5 18118.5 4261.39 18314.8 4721.75C18516.4 5192.88 18669 5683.47 18770.3 6185.8C18970 7208.98 18970 8261.13 18770.3 9284.31C18668.2 9778.04 18516.6 10260.2 18317.9 10723.6L18307.1 10746.8C18111.1 11207.3 17872 11648.3 17592.9 12063.7C17041.2 12885.9 16334.5 13592.7 15512.2 14144.3C15096.5 14422.9 14655.6 14662 14195.4 14858.5C14130.3 14886.4 14065.2 14914.3 13998.6 14939.1V14009.6C14360.4 13845.8 14708.1 13652.5 15038.2 13431.7C15402.6 13188.6 15741.5 12909.4 16049.8 12598.2C16245.7 12403.5 16428.9 12196.5 16598.2 11978.5L16613.7 11983.1ZM16128.8 7304.36H18059.2C18038.4 6984.69 17995.4 6666.84 17930.6 6353.12C17842.1 5909.33 17708.2 5475.84 17530.9 5059.49C17424.6 4813.88 17305.7 4573.94 17174.6 4340.63H15149.7C15683.2 5248.71 16014.6 6261.2 16121.1 7309.01L16128.8 7304.36ZM8824.18 3480.79H10760.7V1451.27C10056.6 2069.29 9408.53 2748.45 8824.18 3480.79ZM11612.8 3480.79H13549.4C12965 2748.45 12317 2069.29 11612.8 1451.27V3480.79ZM14607.5 3480.79H16613.7C16444.4 3262.72 16261.2 3055.73 16065.3 2861.09C15756.6 2550.83 15417.7 2272.13 15053.7 2029.14C14678.6 1780.72 14280.7 1568.55 13865.4 1395.49L13845.3 1386.2C13435.3 1212.39 13008.5 1081.05 12571.8 994.234C12491.2 978.742 12416.9 963.249 12327 950.855C13178.4 1707.7 13943.7 2556.15 14609 3480.79H14607.5Z" fill="black"/>
<path d="M1 16363.2V12414.2H577.5V15854.7L6136.5 15753.2L5848.5 16363.2H1Z" fill="black"/>
<path d="M10049.6 944.658C9520.01 1032.25 9002.93 1183.63 8509.69 1395.49C8097.69 1571.71 7702.99 1785.91 7330.72 2035.34C6966.69 2278.33 6627.79 2557.03 6319.07 2867.29C6123.21 3061.93 5940.03 3268.92 5770.64 3486.99H7766.06C8431.23 2557.98 9197.07 1705.35 10049.6 944.658ZM840.977 7580.13H11612.8C11835.1 7581.35 12048 7670.21 12205.2 7827.42C12362.4 7984.63 12451.3 8197.5 12452.5 8419.83V15523.2C12451.3 15745.5 12362.4 15958.4 12205.2 16115.6C12048 16272.8 11835.1 16361.7 11612.8 16362.9H5804.73C5872.89 16177 5933.31 15984.9 5985.99 15785H11612.8C11681.5 15784 11747.1 15756.2 11795.6 15707.5C11820 15683.4 11839.5 15654.7 11852.8 15623.1C11866.1 15591.5 11873 15557.5 11873.1 15523.2V11541.6H580.705V12424.7C389.806 12473.4 196.378 12511.7 1.2911 12539.3V8419.83C1.70062 8197.25 90.2987 7983.91 247.682 7826.52C405.064 7669.14 618.404 7580.54 840.977 7580.13ZM8232.38 12492.8C8407.95 12492.5 8581.14 12533.4 8738.01 12612.3C8894.89 12691.1 9031.06 12805.7 9135.58 12946.8C9276.92 12756.8 9474.51 12616.2 9700.29 12545C9926.08 12473.8 10168.6 12475.5 10393.3 12550C10618.1 12624.4 10813.6 12767.8 10952.2 12959.7C11090.9 13151.6 11165.5 13382.4 11165.5 13619.1C11165.5 13855.9 11090.9 14086.6 10952.2 14278.6C10813.6 14470.5 10618.1 14613.9 10393.3 14688.3C10168.6 14762.8 9926.08 14764.5 9700.29 14693.3C9474.51 14622 9276.92 14481.5 9135.58 14291.5C9020.85 14445.7 8868.58 14568 8693.26 14646.7C8517.93 14725.4 8325.39 14757.9 8133.94 14741.2C7942.49 14724.4 7758.5 14659 7599.49 14551.1C7440.47 14443.1 7311.72 14296.3 7225.48 14124.6C7139.24 13952.8 7098.38 13761.9 7106.78 13569.9C7115.19 13377.9 7172.58 13191.2 7273.51 13027.7C7374.43 12864.1 7515.52 12729.1 7683.36 12635.5C7851.2 12541.9 8040.2 12492.8 8232.38 12492.8ZM580.705 9313.75H11873.1V8419.83C11872.7 8350.92 11845.1 8284.96 11796.4 8236.24C11747.7 8187.51 11681.7 8159.96 11612.8 8159.55H840.977C806.74 8159.35 772.803 8165.94 741.132 8178.95C709.462 8191.95 680.688 8211.12 656.478 8235.33C632.269 8259.54 613.105 8288.31 600.098 8319.98C587.091 8351.65 580.499 8385.59 580.705 8419.83V9313.75ZM17174.6 11129.5C17305.5 10896.3 17423.9 10656.4 17529.3 10410.6L17538.6 10388.9C17711.7 9979.22 17843 9553.08 17930.6 9116.99C17993.1 8801.05 18033.5 8481.13 18051.4 8159.55H16136.6C16074.7 9203.88 15773.6 10220 15256.6 11129.5H17174.6ZM16613.7 11983.1H14725.2C14501.6 12305.4 14261.1 12615.7 14004.8 12912.7V11129.5H14269.7C14855.2 10242 15204.4 9219.74 15284.5 8159.55H14004.8V7304.36H15265.9C15162.6 6329.36 14793.4 5339.9 14158.2 4335.98H11614.4V5925.52H10760.7V4339.08H8216.88C7894.04 4837.23 7628.97 5370.51 7426.77 5928.62H6528.22C6703.31 5375.45 6937.02 4842.58 7225.37 4339.08H5200.52C5067.62 4571.11 4947.13 4810.04 4839.55 5054.84L4830.26 5074.98C4713.76 5351.63 4615.94 5635.78 4537.45 5925.52H3662.13C3758.94 5520.94 3889 5125.05 4050.99 4741.89L4060.29 4717.1C4257.74 4257 4497.34 3816.17 4776.03 3400.23C5327.38 2579.2 6032.95 1873.09 6853.56 1321.13C7269.31 1042.14 7710.17 802.516 8170.41 605.37C9125.67 200.054 10153.7 -5.56404 11191.4 1.15973C11711.6 2.25877 12230.5 54.1468 12740.7 156.086C13234.1 255.661 13716.3 404.624 14179.9 600.723L14203.1 610.018C14663.4 807.164 15104.2 1046.79 15520 1325.78C16341.7 1877.43 17048.3 2583.56 17600.6 3404.88C17879.4 3820.5 18118.5 4261.39 18314.8 4721.75C18516.4 5192.88 18669 5683.47 18770.3 6185.8C18970 7208.98 18970 8261.13 18770.3 9284.31C18668.2 9778.04 18516.6 10260.2 18317.9 10723.6L18307.1 10746.8C18111.1 11207.3 17872 11648.3 17592.9 12063.7C17041.2 12885.9 16334.5 13592.7 15512.2 14144.3C15096.5 14422.9 14655.6 14662 14195.4 14858.5C14130.3 14886.4 14065.2 14914.3 13998.6 14939.1V14009.6C14360.4 13845.8 14708.1 13652.5 15038.2 13431.7C15402.6 13188.6 15741.5 12909.4 16049.8 12598.2C16245.7 12403.5 16428.9 12196.5 16598.2 11978.5L16613.7 11983.1ZM16128.8 7304.36H18059.2C18038.4 6984.69 17995.4 6666.84 17930.6 6353.12C17842.1 5909.33 17708.2 5475.84 17530.9 5059.49C17424.6 4813.88 17305.7 4573.94 17174.6 4340.63H15149.7C15683.2 5248.71 16014.6 6261.2 16121.1 7309.01L16128.8 7304.36ZM8824.18 3480.79H10760.7V1451.27C10056.6 2069.29 9408.53 2748.45 8824.18 3480.79ZM11612.8 3480.79H13549.4C12965 2748.45 12317 2069.29 11612.8 1451.27V3480.79ZM14607.5 3480.79H16613.7C16444.4 3262.72 16261.2 3055.73 16065.3 2861.09C15756.6 2550.83 15417.7 2272.13 15053.7 2029.14C14678.6 1780.72 14280.7 1568.55 13865.4 1395.49L13845.3 1386.2C13435.3 1212.39 13008.5 1081.05 12571.8 994.234C12491.2 978.742 12416.9 963.249 12327 950.855C13178.4 1707.7 13943.7 2556.15 14609 3480.79H14607.5Z" stroke="black"/>
<path d="M1 16363.2V12414.2H577.5V15854.7L6136.5 15753.2L5848.5 16363.2H1Z" stroke="black"/>
</svg>
