<svg width="8532" height="9016" viewBox="0 0 8532 9016" fill="none" xmlns="http://www.w3.org/2000/svg">
<path d="M3481.61 737.387C3467.14 755.479 3405.63 831.465 3342.31 903.832C3280.79 978.008 3165.01 1131.79 3087.21 1245.77C2953.33 1444.78 2759.75 1775.86 2759.75 1808.42C2759.75 1840.99 2725.38 1822.9 2513.7 1679.97C2287.55 1529.81 2166.34 1433.92 2180.81 1421.26C2504.65 1144.45 2904.49 909.26 3284.41 773.571C3505.13 693.967 3514.18 692.158 3481.61 737.387ZM5703.29 782.617C6028.94 905.641 6463.14 1157.12 6674.81 1339.84L6747.18 1403.17L6611.49 1509.91C6466.76 1625.69 6235.18 1779.47 6226.14 1768.62C6222.52 1765 6170.05 1670.92 6106.73 1562.37C5978.28 1336.23 5786.51 1061.23 5636.35 885.74C5471.71 692.158 5469.9 693.967 5703.29 782.617ZM5100.83 1135.41C5247.37 1298.23 5343.26 1421.26 5468.09 1607.6C5567.6 1755.96 5717.76 2021.9 5706.9 2030.95C5703.29 2034.57 5621.87 2063.52 5529.6 2094.27C5366.78 2148.55 5021.22 2224.53 4836.69 2248.05L4749.85 2258.91V789.854L4863.83 892.977C4925.34 950.871 5032.08 1059.42 5100.83 1135.41ZM4207.09 1546.09V2262.53L4094.92 2249.86C3845.26 2224.53 3490.66 2146.74 3311.55 2077.99L3262.7 2059.9L3347.73 1902.5C3449.05 1717.96 3602.83 1482.77 3734.9 1318.13C3819.93 1211.39 4183.57 829.656 4199.86 829.656C4203.48 829.656 4207.09 1151.69 4207.09 1546.09ZM7391.25 2130.46C7686.15 2570.09 7894.2 3138.17 7959.33 3682.73L7972 3778.62H7364.11C6799.65 3778.62 6758.04 3776.81 6758.04 3746.05C6756.23 3489.15 6606.07 2734.72 6490.28 2401.83L6454.1 2298.71L6618.73 2197.4C6711 2139.5 6866.59 2029.14 6966.09 1949.54L7147.01 1804.8L7206.71 1873.55C7239.28 1911.55 7322.5 2027.33 7391.25 2130.46ZM1869.63 1913.35C2003.51 2023.71 2231.47 2182.92 2385.25 2271.57C2495.61 2334.89 2524.56 2360.22 2513.7 2383.74C2477.52 2468.77 2372.59 2855.94 2334.59 3045.9C2296.6 3228.63 2235.09 3673.69 2235.09 3755.1C2235.09 3773.19 2099.4 3778.62 1610.92 3778.62H984.945L997.609 3682.73C1055.5 3199.68 1225.57 2691.3 1462.57 2293.28C1563.88 2123.22 1761.08 1842.8 1779.17 1842.8C1782.79 1842.8 1822.6 1875.36 1869.63 1913.35ZM5996.37 2732.91C6075.98 2989.82 6137.49 3275.67 6170.05 3543.42C6184.53 3666.45 6197.19 3771.38 6197.19 3773.19C6197.19 3776.81 5871.54 3778.62 5473.52 3778.62H4749.85V2821.56L4836.69 2810.71C5247.37 2758.24 5607.4 2676.83 5826.31 2586.37C5876.97 2566.47 5922.2 2550.19 5927.62 2550.19C5933.05 2548.38 5963.81 2631.6 5996.37 2732.91ZM3212.04 2638.83C3440 2711.2 3752.99 2776.33 4004.47 2803.47L4207.09 2825.18V3778.62H2794.12L2804.98 3682.73C2844.78 3337.18 2886.39 3120.08 2978.66 2787.19C3009.42 2676.83 3036.55 2584.56 3038.36 2584.56C3038.36 2584.56 3117.97 2609.89 3212.04 2638.83ZM6189.96 4487.82C6168.24 4751.96 6124.82 5010.67 6050.65 5296.52C6012.66 5450.3 5976.47 5580.56 5971.04 5584.18C5965.62 5589.61 5873.35 5564.28 5766.61 5528.09C5507.9 5441.25 5238.33 5377.93 4979.61 5343.56C4862.02 5329.08 4762.51 5316.42 4757.08 5316.42C4753.47 5316.42 4749.85 5095.7 4749.85 4827.94V4339.46H6202.62L6189.96 4487.82ZM7959.33 4433.54C7917.72 4782.71 7794.7 5220.53 7648.15 5537.14C7528.75 5795.85 7212.14 6280.71 7147.01 6306.04C7134.35 6309.66 7047.51 6253.58 6955.24 6177.59C6862.97 6103.41 6716.43 6000.29 6631.4 5946.02L6475.81 5850.13L6533.7 5665.59C6644.06 5321.85 6725.47 4885.84 6750.8 4514.95L6763.46 4339.46H7972L7959.33 4433.54ZM5102.64 5933.35C5285.36 5967.73 5744.9 6103.41 5744.9 6123.31C5744.9 6143.22 5623.68 6367.55 5535.03 6512.29C5355.92 6799.95 5012.18 7210.63 4820.41 7362.6L4749.85 7418.69V5877.27L4827.64 5888.12C4869.25 5893.55 4994.09 5913.45 5102.64 5933.35ZM6428.77 6492.39C6515.61 6552.09 6618.73 6629.88 6658.53 6664.26L6730.9 6727.58L6667.58 6783.67C6555.41 6881.36 6231.57 7089.42 6045.22 7183.49C5887.82 7263.1 5656.25 7360.79 5625.49 7360.79C5620.06 7360.79 5668.91 7293.85 5732.23 7210.63C5882.39 7018.86 6050.65 6761.96 6164.63 6550.28C6213.47 6459.82 6258.7 6383.84 6264.13 6383.84C6267.75 6383.84 6343.74 6432.68 6428.77 6492.39Z" fill="#151515"/>
<path d="M3100.23 4024.57C3077.69 4027.46 3040.14 4036.7 3016.45 4045.37C2980.63 4058.66 2966.19 4067.9 2937.3 4096.21C2892.81 4140.7 2877.79 4177.1 2870.86 4261.45C2863.35 4354.47 2860.46 4367.75 2841.97 4404.73C2820.59 4448.06 2783.62 4482.15 2733.93 4505.84L2695.22 4524.33L2149.24 4526.06C1561.67 4527.79 1570.91 4528.37 1502.16 4497.17C1420.7 4460.77 1377.94 4396.06 1368.7 4293.8C1361.19 4213.49 1349.63 4167.27 1329.41 4137.81C1295.32 4088.12 1249.68 4059.23 1175.73 4038.43C1144.53 4030.35 1092.53 4029.19 673.661 4030.35C232.257 4031.5 203.947 4032.08 170.437 4042.48C98.7959 4064.43 40.4428 4122.21 13.8661 4196.74L0 4235.45V6518.15C0 8776.02 0 8802.01 11.5551 8838.41C39.865 8930.85 117.284 8996.14 214.924 9011.16C237.457 9014.63 647.084 9015.78 1307.46 9015.21L2363.59 9013.47L2309.28 8974.76C2234.75 8921.61 2190.84 8885.79 2122.09 8822.24L2063.74 8767.93H1202.88C267.5 8767.93 324.12 8769.66 284.833 8736.73C275.011 8728.64 261.722 8709 254.789 8693.4L242.657 8664.51L245.545 4362.55L261.722 4335.4C272.122 4317.49 287.144 4302.47 305.054 4292.07L332.208 4275.89L651.706 4274.16C1010.49 4272.42 994.314 4270.69 1044.58 4316.33C1092.53 4359.67 1113.91 4413.4 1121.42 4512.77C1126.04 4574.59 1128.35 4586.72 1146.84 4623.7C1171.11 4672.81 1199.99 4699.96 1256.61 4727.12C1345.59 4769.29 1287.81 4766.4 2065.47 4768.72C2564.65 4769.87 2777.84 4768.72 2810.19 4764.09C2869.7 4755.43 2944.23 4728.27 2986.99 4699.38C3058.05 4652.01 3096.18 4590.77 3110.63 4500.06C3121.03 4434.2 3129.69 4403.58 3144.14 4375.27C3161.47 4340.6 3200.76 4301.31 3232.53 4286.87L3261.42 4273H3891.75L3922.95 4288.6C3942.59 4299 3960.5 4314.02 3971.48 4329.62L3989.39 4355.04L3992.28 6201.54L4031.57 6223.5C4083.56 6252.39 4160.98 6302.65 4202 6333.27L4234.94 6358.69L4232.05 4212.34L4219.34 4185.18C4188.71 4118.16 4141.34 4071.37 4080.68 4046.52L4047.17 4033.23L3613.85 4029.19C3375.82 4027.46 3171.29 4024.57 3160.31 4022.84C3149.34 4021.1 3122.18 4022.26 3100.23 4024.57Z" fill="#151515"/>
<path d="M1744.82 4273H2490.12V4030.35H1744.82V4273Z" fill="#151515"/>
<path d="M999.514 6017.82H3235.42V5775.16H999.514V6017.82Z" fill="#151515"/>
<path d="M3130.27 6278.39C3005.48 6288.21 2826.95 6332.7 2703.89 6384.69C2590.07 6432.65 2460.08 6512.38 2363.01 6594.42C2050.45 6856.72 1871.92 7238.61 1871.92 7644.2C1871.92 7953.87 1976.5 8251.99 2171.78 8499.27C2216.26 8556.47 2339.32 8677.8 2398.26 8723.44C2616.65 8892.72 2872.01 8989.21 3156.27 9010.58C3424.35 9030.23 3723.62 8955.7 3958.77 8810.1C4081.25 8734.42 4229.16 8603.84 4311.2 8499.27C4458.53 8310.92 4550.39 8105.82 4591.41 7874.72C4605.85 7790.95 4607.59 7770.72 4607.59 7644.2C4607.59 7517.67 4605.85 7497.45 4591.41 7413.67C4542.3 7135.2 4421.55 6897.16 4227.42 6695.52C4030.41 6491 3781.4 6355.23 3506.39 6301.5C3369.46 6274.92 3262.58 6267.99 3130.27 6278.39ZM4187.56 7008.09C4203.16 7016.76 4248.8 7065.86 4262.09 7088.97C4270.76 7104 4271.91 7141.55 4263.82 7155.99C4260.36 7162.35 4174.27 7240.35 4071.43 7330.48C3969.17 7420.03 3777.35 7588.73 3645.63 7704.86C3082.32 8199.99 2950.59 8314.97 2939.03 8321.32C2921.7 8331.15 2888.19 8330.57 2873.17 8320.17C2847.75 8302.26 2355.5 7737.21 2347.41 7716.42C2335.28 7685.22 2346.84 7662.68 2397.1 7618.77C2435.23 7586.42 2440.43 7583.53 2465.85 7583.53C2481.45 7583.53 2497.63 7587 2502.83 7590.46C2508.03 7594.51 2603.94 7701.97 2715.44 7829.08C2826.95 7956.18 2920.55 8059.6 2922.28 8058.45C2926.32 8056.71 3170.14 7843.52 3706.29 7372.65C4105.52 7021.96 4113.03 7015.02 4128.05 7006.93C4144.23 6997.69 4169.07 6998.27 4187.56 7008.09Z" fill="#151515"/>
<path d="M999.514 6890.23H1800.28L1825.7 6845.16C1854.01 6795.48 1910.63 6707.66 1936.05 6675.88C1945.3 6664.33 1952.81 6652.77 1952.81 6651.04C1952.81 6649.3 1738.46 6647.57 1476.16 6647.57H999.514V6890.23Z" fill="#151515"/>
<path d="M999.514 7762.64H1617.71V7519.98H999.514V7762.64Z" fill="#151515"/>
</svg>
