<svg width="5162" height="4448" viewBox="0 0 5162 4448" fill="none" xmlns="http://www.w3.org/2000/svg">
<path d="M3444.9 2155.83C3280.38 2567.08 3480.15 2684.59 4338.01 2684.59H5160.6V1979.58H4338.01C3703.43 1979.58 3491.91 2026.58 3444.9 2155.83Z" fill="#151515"/>
<path d="M3437.73 3095.75C3273.22 3507 3472.99 3624.5 4330.85 3624.5H5153.44V2919.5H4330.85C3696.27 2919.5 3484.75 2966.5 3437.73 3095.75Z" fill="#151515"/>
<path d="M3444.9 3918.36C3280.38 4329.61 3480.15 4447.11 4338.01 4447.11H5160.6V3742.1H4338.01C3703.43 3742.1 3491.91 3789.11 3444.9 3918.36Z" fill="#151515"/>
<path d="M2571 2478.5C2203.73 2478.5 1906 2180.77 1906 1813.5C1906 1446.23 2203.73 1148.5 2571 1148.5C2938.27 1148.5 3236 1446.23 3236 1813.5C3236 2180.77 2938.27 2478.5 2571 2478.5Z" fill="black"/>
<path d="M5157.5 1H1V3598H3108.5V2799.5C2570 2795.33 1448.4 2789.5 1270 2799.5C1195.6 2447.9 863.667 2351.67 707 2347.5C694.5 2081.33 677 1479.6 707 1202C1157.8 1241.6 1356.83 884.5 1400 701C2157.33 703 3721.5 705.8 3919.5 701C4043.1 1062.6 4449.67 1152.67 4637.5 1152.5V1660.5H5157.5V1Z" fill="black"/>
<path d="M3444.9 2155.83C3280.38 2567.08 3480.15 2684.59 4338.01 2684.59H5160.6V1979.58H4338.01C3703.43 1979.58 3491.91 2026.58 3444.9 2155.83Z" stroke="black"/>
<path d="M3437.73 3095.75C3273.22 3507 3472.99 3624.5 4330.85 3624.5H5153.44V2919.5H4330.85C3696.27 2919.5 3484.75 2966.5 3437.73 3095.75Z" stroke="black"/>
<path d="M3444.9 3918.36C3280.38 4329.61 3480.15 4447.11 4338.01 4447.11H5160.6V3742.1H4338.01C3703.43 3742.1 3491.91 3789.11 3444.9 3918.36Z" stroke="black"/>
<path d="M2571 2478.5C2203.73 2478.5 1906 2180.77 1906 1813.5C1906 1446.23 2203.73 1148.5 2571 1148.5C2938.27 1148.5 3236 1446.23 3236 1813.5C3236 2180.77 2938.27 2478.5 2571 2478.5Z" stroke="black"/>
<path d="M5157.5 1H1V3598H3108.5V2799.5C2570 2795.33 1448.4 2789.5 1270 2799.5C1195.6 2447.9 863.667 2351.67 707 2347.5C694.5 2081.33 677 1479.6 707 1202C1157.8 1241.6 1356.83 884.5 1400 701C2157.33 703 3721.5 705.8 3919.5 701C4043.1 1062.6 4449.67 1152.67 4637.5 1152.5V1660.5H5157.5V1Z" stroke="black"/>
</svg>
