<svg width="4597" height="4597" viewBox="0 0 4597 4597" fill="none" xmlns="http://www.w3.org/2000/svg">
<path d="M3269.2 18.4701C3250.73 36.9402 3250.73 48.9457 3250.73 664.923C3250.73 1280.9 3250.73 1292.91 3269.2 1311.38C3287.67 1329.85 3299.68 1329.85 3915.66 1329.85C4531.64 1329.85 4543.64 1329.85 4562.11 1311.38C4580.58 1292.91 4580.58 1280.9 4580.58 664.923C4580.58 48.9457 4580.58 36.9402 4562.11 18.4701C4543.64 0 4531.64 0 3915.66 0C3299.68 0 3287.67 0 3269.2 18.4701ZM3694.02 350.932C3694.02 542.097 3694.94 555.026 3712.48 572.573C3738.34 598.431 3782.67 595.66 3855.63 566.108L3915.66 541.174L3975.69 566.108C4048.64 595.66 4092.97 598.431 4118.83 572.573C4136.37 555.026 4137.3 542.097 4137.3 350.932V147.761H4285.06H4432.82V664.923V1182.09H3915.66H3398.5V664.923V147.761H3546.26H3694.02V350.932ZM3989.54 273.357C3989.54 389.719 3988.61 398.954 3973.84 391.566C3964.6 386.949 3938.75 384.178 3915.66 384.178C3892.57 384.178 3866.71 386.949 3858.4 391.566C3842.7 398.954 3841.78 389.719 3841.78 273.357V147.761H3915.66H3989.54V273.357Z" fill="#151515"/>
<path d="M2022.48 308.45C1792.52 344.467 1594.89 405.418 1405.57 498.692C796.062 800.679 386.949 1381.56 304.756 2059.42C300.139 2101.89 295.521 2155.46 295.521 2176.7V2216.41H166.231C48.9457 2216.41 35.0932 2218.26 18.4701 2234.88C6.46453 2246.89 0 2265.36 0 2288.45C0 2317.07 23.0876 2357.71 153.301 2553.49C237.34 2680.93 313.068 2789.91 321.38 2795.45C339.85 2811.14 398.954 2811.14 417.424 2795.45C425.735 2789.91 501.463 2680.93 585.501 2553.49C715.713 2357.71 738.804 2317.07 738.804 2288.45C738.804 2265.36 732.341 2246.89 720.33 2234.88C703.709 2218.26 689.859 2216.41 576.267 2216.41H449.747L455.287 2139.76C486.687 1731.57 670.466 1325.23 959.519 1023.24C1251.35 717.565 1616.13 529.168 2036.33 466.369C2236.73 435.894 2522.09 449.746 2715.1 498.692C2752.97 508.851 2787.13 513.468 2790.83 509.774C2793.6 506.08 2803.76 477.451 2811.14 446.052C2819.46 414.653 2828.69 383.254 2831.46 375.866C2836.08 362.937 2778.83 347.237 2622.75 317.685C2516.55 297.368 2132.37 291.827 2022.48 308.45ZM501.463 2390.95C430.353 2501.77 373.096 2585.81 369.402 2585.81C364.784 2585.81 238.264 2397.41 232.723 2381.72C229.029 2372.49 281.669 2367.86 413.73 2366.02L519.009 2364.17L501.463 2390.95Z" fill="#151515"/>
<path d="M2000.31 1039.87C1533.94 1126.68 1176.55 1462.83 1056.49 1925.51C1031.56 2020.63 1029.71 2038.17 1029.71 2211.79C1029.71 2384.49 1031.56 2402.96 1055.57 2497.16C1115.6 2727.11 1226.42 2919.2 1387.11 3071.58C1543.18 3219.34 1714.03 3313.54 1925.51 3368.02C2052.95 3400.34 2307.84 3407.73 2433.44 3381.87L2516.55 3365.25L2571.97 3411.43C2634.76 3463.14 2751.12 3520.4 2824.08 3536.1C2892.42 3549.95 3031.87 3548.1 3100.21 3532.41C3308 3483.46 3483.46 3307.99 3532.41 3101.13C3548.11 3031.87 3549.96 2892.42 3536.1 2824.07C3520.4 2751.12 3463.15 2634.76 3411.43 2571.96L3365.26 2516.55L3381.88 2433.43C3404.04 2316.15 3404.04 2107.44 3380.95 1987.38C3309.84 1619.83 3072.5 1308.61 2738.19 1142.37C2662.47 1105.43 2584.89 1077.73 2480.54 1050.95C2379.88 1026.01 2108.36 1019.55 2000.31 1039.87ZM2373.41 1201.48C2491.62 1219.95 2586.74 1255.04 2519.32 1255.97C2507.32 1255.97 2436.21 1260.58 2359.56 1265.2C2217.34 1274.44 1914.43 1262.43 1899.65 1247.65C1884.88 1232.88 2062.19 1194.09 2165.62 1189.47C2227.5 1185.78 2301.38 1190.4 2373.41 1201.48ZM1702.95 1376.95L1743.58 1387.11L1708.48 1461.91C1689.09 1503.47 1666.01 1561.65 1656.77 1590.27C1644.76 1630.91 1636.46 1643.84 1622.6 1643.84C1602.28 1643.84 1511.78 1621.68 1447.13 1601.36L1403.73 1586.58L1450.83 1532.09C1504.39 1470.22 1629.07 1366.79 1649.38 1366.79C1656.77 1366.79 1681.7 1371.4 1702.95 1376.95ZM2865.63 1422.2C2904.43 1452.67 2956.14 1502.54 2982 1532.09L3029.1 1586.58L2985.69 1601.36C2921.05 1621.68 2830.55 1643.84 2810.23 1643.84C2796.38 1643.84 2788.06 1630.91 2776.06 1590.27C2766.83 1561.65 2745.58 1507.16 2728.03 1469.29C2710.49 1431.43 2696.64 1397.26 2696.64 1393.57C2696.64 1385.26 2746.51 1368.63 2776.98 1367.71C2788.99 1366.79 2825.93 1389.88 2865.63 1422.2ZM2089.89 1422.2H2142.53V1560.72V1699.25L2062.19 1698.32C2016.94 1698.32 1938.44 1692.79 1886.72 1687.24L1792.52 1676.16L1827.62 1588.43C1846.09 1540.41 1873.79 1480.38 1888.57 1455.44L1914.43 1410.19L1975.38 1416.66C2008.62 1419.43 2060.34 1422.2 2089.89 1422.2ZM2545.18 1455.44C2559.03 1478.53 2585.82 1537.64 2605.21 1586.58L2640.3 1676.16L2596.9 1682.63C2572.88 1685.4 2494.39 1691.86 2422.35 1695.56L2290.29 1702.02V1562.57V1423.12L2366.95 1419.43C2408.5 1418.5 2460.22 1415.73 2481.46 1414.81C2518.4 1412.96 2521.17 1414.81 2545.18 1455.44ZM1392.65 1749.12C1428.66 1761.12 1489.61 1778.67 1527.48 1786.98C1566.27 1795.29 1597.66 1803.61 1597.66 1804.53C1597.66 1805.45 1592.13 1847.93 1584.74 1898.73C1577.35 1948.6 1568.11 2024.32 1565.34 2065.88L1558.88 2142.53H1375.1C1163.62 2142.53 1182.09 2154.53 1206.1 2031.71C1227.34 1918.12 1298.45 1726.95 1318.77 1726.95C1323.39 1726.95 1355.71 1737.11 1392.65 1749.12ZM3138.99 1761.12C3168.54 1821.15 3211.95 1953.21 3226.73 2031.71C3250.74 2154.53 3269.21 2142.53 3057.72 2142.53H2873.95L2867.49 2065.88C2864.72 2024.32 2855.48 1948.6 2848.09 1898.73C2840.71 1847.93 2835.16 1805.45 2835.16 1804.53C2835.16 1803.61 2866.56 1795.29 2904.43 1786.98C2943.21 1778.67 3002.32 1762.05 3036.49 1750.04C3070.65 1738.03 3103.9 1727.87 3109.44 1727.87C3115.91 1726.95 3128.84 1742.65 3138.99 1761.12ZM1907.04 1847.01C1963.37 1851.63 2039.1 1856.24 2076.04 1856.24H2142.53V1999.39V2142.53H1929.21H1715.87L1722.34 2070.5C1728.8 1997.54 1741.73 1899.65 1750.97 1853.47C1755.58 1831.31 1759.28 1828.54 1780.52 1832.23C1794.37 1835 1851.63 1841.47 1907.04 1847.01ZM2681.86 1853.47C2691.09 1899.65 2704.02 1998.47 2710.49 2070.5L2716.95 2142.53H2503.62H2290.29V1999.39V1856.24L2371.56 1855.32C2436.21 1854.4 2544.26 1845.16 2666.16 1829.46C2671.7 1829.46 2679.09 1839.62 2681.86 1853.47ZM1565.34 2370.63C1569.04 2415.89 1577.35 2490.69 1584.74 2538.71C1592.13 2586.74 1596.74 2626.45 1595.82 2627.37C1593.97 2628.3 1564.42 2636.6 1528.4 2644.92C1493.31 2653.23 1431.44 2670.78 1391.72 2683.7C1352.01 2695.71 1316 2704.02 1312.3 2701.25C1284.59 2684.63 1208.87 2450.06 1195.02 2338.32L1188.55 2290.29H1374.18H1558.88L1565.34 2370.63ZM2142.53 2433.43V2576.58H2070.5C2000.31 2576.58 1816.53 2591.35 1776.83 2599.66C1758.36 2603.36 1755.58 2597.82 1746.35 2546.1C1736.19 2488.84 1717.72 2337.39 1717.72 2305.99C1717.72 2291.22 1734.35 2290.29 1930.13 2290.29H2142.53V2433.43ZM2710.49 2352.17C2706.79 2387.26 2703.1 2414.96 2703.1 2415.89C2702.18 2416.81 2679.09 2428.82 2651.38 2443.59C2623.68 2458.37 2575.66 2495.31 2544.26 2525.78L2487 2581.2L2388.18 2578.42L2290.29 2574.73V2432.51V2290.29H2503.62H2716.95L2710.49 2352.17ZM3236.89 2342.93C3228.57 2411.27 3223.96 2422.35 3205.48 2414.04C3126.07 2378.95 3081.74 2369.71 2981.08 2366.02L2872.1 2362.33V2326.31V2290.29H3057.72H3243.35L3236.89 2342.93ZM3083.58 2538.71C3185.17 2570.11 3281.22 2648.61 3335.7 2742.81C3411.43 2873.02 3406.81 3057.72 3325.54 3185.17C3289.52 3240.58 3210.11 3316.3 3162.08 3341.24C3030.02 3408.66 2857.33 3404.96 2731.73 3331.08C2681.86 3302.45 2594.13 3211.02 2569.19 3163.01C2537.8 3100.2 2521.17 3029.09 2521.17 2955.21C2521.17 2881.33 2537.8 2810.22 2569.19 2747.42C2594.13 2699.4 2681.86 2607.98 2731.73 2579.35C2830.55 2521.17 2973.69 2504.54 3083.58 2538.71ZM2142.53 2872.1V3010.63H2083.43C2052.03 3010.63 2000.31 3013.39 1969.84 3016.16L1914.43 3021.71L1888.57 2977.38C1873.79 2952.44 1846.09 2892.42 1827.62 2844.39C1797.14 2767.74 1794.37 2756.66 1808.23 2753.89C1860.86 2745.58 1983.69 2735.42 2057.57 2734.5L2142.53 2733.57V2872.1ZM2381.72 2795.45C2370.64 2833.31 2364.17 2887.8 2364.17 2933.98V3010.63H2327.23H2290.29V2872.1V2733.57H2344.78H2398.34L2381.72 2795.45ZM1657.69 2844.39C1666.93 2872.1 1688.17 2928.43 1705.71 2968.14C1739.89 3048.49 1739.89 3051.26 1678.01 3060.49C1630.91 3068.81 1595.82 3045.72 1484.07 2933.05C1416.66 2866.56 1404.66 2849.01 1416.66 2842.55C1441.6 2828.69 1629.99 2781.6 1635.53 2788.06C1639.22 2790.83 1648.46 2816.69 1657.69 2844.39ZM2351.24 3167.62C2392.8 3167.62 2399.27 3170.39 2409.43 3191.63C2414.96 3205.48 2418.66 3218.41 2415.89 3220.26C2391.88 3244.27 2146.23 3248.89 2034.48 3227.65C1939.37 3209.18 1883.03 3190.71 1902.43 3182.4C1924.59 3173.16 2176.7 3159.31 2244.12 3163.92C2277.36 3165.78 2325.39 3167.62 2351.24 3167.62Z" fill="#151515"/>
<path d="M3008.78 2869.33L2853.63 3024.48L2804.68 2975.53C2777.9 2949.67 2752.04 2927.51 2746.5 2927.51C2734.5 2927.51 2641.23 3022.63 2641.23 3034.64C2641.23 3040.18 2680.01 3082.66 2728.03 3128.84C2856.4 3255.35 2838.85 3260.9 3078.04 3021.71C3183.32 2916.43 3269.2 2825.93 3269.2 2821.3C3269.2 2812.07 3175.93 2715.11 3167.62 2715.11C3164.85 2715.11 3093.74 2784.36 3008.78 2869.33Z" fill="#151515"/>
<path d="M4163.16 1784.21C4154.85 1790.68 4079.12 1899.65 3995.08 2027.09C3874.1 2209.02 3841.78 2264.43 3841.78 2288.45C3841.78 2358.63 3873.18 2373.41 4024.63 2373.41H4130.83L4124.37 2444.51C4097.59 2772.36 3981.23 3081.74 3777.13 3373.56C3700.48 3482.54 3484.38 3698.63 3375.41 3776.21C3148.22 3935.98 2925.66 4035.71 2672.62 4091.13C2420.51 4145.61 2103.74 4141.92 1863.63 4080.97C1824.85 4071.73 1789.75 4063.42 1785.14 4063.42C1773.13 4063.42 1733.42 4202.87 1742.65 4211.18C1751.89 4219.49 1850.7 4243.5 1957.83 4262.9C2064.04 4283.22 2388.18 4290.6 2512.85 4276.75C3290.45 4187.17 3945.21 3656.15 4187.17 2918.27C4242.58 2749.28 4285.06 2524.86 4285.06 2403.88V2364.17H4414.35C4531.64 2364.17 4545.49 2362.33 4562.11 2345.7C4574.12 2333.69 4580.58 2315.23 4580.58 2292.14C4580.58 2263.51 4557.49 2222.87 4427.28 2027.09C4343.24 1899.65 4267.52 1790.68 4259.2 1784.21C4250.89 1778.67 4229.65 1773.13 4211.18 1773.13C4192.71 1773.13 4171.47 1778.67 4163.16 1784.21ZM4286.91 2103.75L4358.94 2211.79L4285.06 2214.57C4244.43 2216.41 4177.93 2216.41 4137.3 2214.57L4063.42 2211.79L4135.45 2103.75C4174.24 2043.71 4208.41 1994.77 4211.18 1994.77C4213.95 1994.77 4248.12 2043.71 4286.91 2103.75Z" fill="#151515"/>
<path d="M18.4701 3269.21C0 3287.68 0 3299.68 0 3915.66C0 4531.64 0 4543.64 18.4701 4562.12C36.9402 4580.58 48.9457 4580.58 664.923 4580.58C1280.9 4580.58 1292.91 4580.58 1311.37 4562.12C1329.85 4543.64 1329.85 4531.64 1329.85 3915.66C1329.85 3299.68 1329.85 3287.68 1311.37 3269.21C1292.91 3250.74 1280.9 3250.74 664.923 3250.74C48.9457 3250.74 36.9402 3250.74 18.4701 3269.21ZM443.282 3601.67C443.282 3792.83 444.206 3805.76 461.752 3823.31C487.61 3849.17 531.939 3846.39 604.896 3816.84L664.923 3791.91L724.953 3816.84C797.908 3846.39 842.236 3849.17 868.091 3823.31C885.638 3805.76 886.564 3792.83 886.564 3601.67V3398.5H1034.33H1182.09V3915.66V4432.82H664.923H147.761V3915.66V3398.5H295.521H443.282V3601.67ZM738.804 3524.09C738.804 3640.46 737.878 3649.69 723.102 3642.3C701.863 3632.14 627.983 3632.14 607.666 3642.3C591.966 3649.69 591.043 3640.46 591.043 3524.09V3398.5H664.923H738.804V3524.09Z" fill="#151515"/>
</svg>
