<svg width="4625" height="4673" viewBox="0 0 4625 4673" fill="none" xmlns="http://www.w3.org/2000/svg">
<path d="M940.459 2966.96V1910.57H1432.89M940.459 2966.96H588.359V4241.52M940.459 2966.96H1362.72M588.359 4241.52H87V4586H4538V4241.52H4115.74M588.359 4241.52H2606.55M4115.74 4241.52V3006.51M4115.74 4241.52H2606.55M2309.31 2966.96H4115.74V3006.51M2309.31 2966.96H1862.81M2309.31 2966.96V1910.57H1768.4M1768.4 1910.57H1432.89M1768.4 1910.57V2239.74H1432.89V1910.57M1862.81 2966.96V3381.61H1362.72V2966.96M1862.81 2966.96H1362.72M2606.55 4241.52V3006.51H3161.49V3381.61H3599.07V3006.51H4115.74M2801.74 1198.65V2395.39H4295.61V486.736H3396.23M2801.74 1198.65C3346.73 1167.01 3425.14 710.858 3396.23 486.736M2801.74 1198.65C2402.44 1198.65 2198.32 636.009 2402.44 299.188C2606.13 103.559 3090.05 -132.811 3396.23 486.736M2551.7 486.736L2801.74 800.592L3098.98 486.736M3290.34 990.691H3925.65M3229.11 1327.51H3864.42M3229.11 1638.82H3864.42M3229.11 2039.43H3864.42" stroke="black" stroke-width="174"/>
</svg>
