<svg width="8482" height="7346" viewBox="0 0 8482 7346" fill="none" xmlns="http://www.w3.org/2000/svg">
<path fill-rule="evenodd" clip-rule="evenodd" d="M2844.94 6632.18L2754.53 4356.74L3778.08 4316.02C4214.96 4376.76 4658.75 4594.85 5103.23 4850.89L5898.33 4819.15C6259.29 4826.74 6462.21 5183.55 6121.95 5437.53C5851.39 5652.85 5482.83 5656.3 5104.61 5636.98C4844.41 5634.22 4846.48 5984.13 5117.73 5975.16C5212.28 5978.61 5313.74 5952.38 5403.46 5948.93C5874.17 5929.6 6257.91 5824.7 6480.15 5443.05L6588.51 5160.08L7748.02 4526.52C8331.92 4308.43 8725.33 4858.49 8306.38 5306.4C7474.71 5963.42 6668.57 6563.17 5786.52 7013.15C5149.47 7436.21 4496.56 7448.63 3828.46 7091.13L2844.94 6632.18ZM8093.12 1028.13L8104.16 3238.69C8104.85 3353.95 8031.69 3453.33 7928.85 3495.43V3496.12L6007.38 4272.54C5990.81 4275.31 5974.25 4277.38 5956.99 4277.38C5919.72 4277.38 5883.14 4269.78 5848.63 4255.29L3957.52 3532.01V3531.32C3855.38 3488.53 3783.6 3386.39 3783.6 3266.99L3793.95 1084.72C3792.57 1061.26 3793.95 1037.79 3798.09 1014.33C3798.78 981.2 3805.68 948.073 3818.8 917.706C3848.47 845.93 3905.76 792.788 3974.09 765.182L5822.41 21.1961C5897.64 -9.1707 5978.39 -5.71993 6047.41 23.9567L7892.27 691.336C8002.7 731.365 8072.41 830.747 8077.24 937.721C8087.59 966.707 8093.12 997.074 8093.12 1028.13ZM5594.64 3812.9L5608.45 1887.37L4128.69 1247.6L4097.63 3181.41L5594.64 3812.9ZM7777.01 1248.29L6123.33 1888.06L6136.44 3811.52L7786.67 3195.21L7777.01 1248.29ZM0 4278.07L2437.74 4149.7L2546.09 6872.36L108.359 7000.03L0 4278.07Z" fill="black"/>
</svg>
