<svg width="3681" height="3727" viewBox="0 0 3681 3727" fill="none" xmlns="http://www.w3.org/2000/svg">
<path d="M62.5 3648.5V62.5H2837.5V2720.5V2994L62.5 3648.5Z" stroke="black" stroke-width="124"/>
<path d="M531.5 571H2271" stroke="black" stroke-width="148"/>
<path d="M532 1079H2271.5" stroke="black" stroke-width="148"/>
<path d="M464 1538H1450" stroke="black" stroke-width="148"/>
<path d="M464 2154H1765" stroke="black" stroke-width="148"/>
<path d="M1723.5 2341.5L82 3631L2788.5 2966.5L1723.5 2341.5Z" fill="#D9D9D9"/>
<path d="M1567.5 1452H2007L3306.5 2496.48L3551 2693C3625.83 2866.71 3668 3184.21 3238 3064.5C3179.24 3024.78 3102.26 2966.69 3013.5 2896.31C2630.35 2592.49 2027.7 2059.47 1723.5 1784.5L1567.5 1452Z" fill="#D9D9D9"/>
<path d="M3306.5 2496.48L2007 1452H1567.5L1723.5 1784.5C2027.7 2059.47 2630.35 2592.49 3013.5 2896.31M3306.5 2496.48L3551 2693C3625.83 2866.71 3668 3184.21 3238 3064.5C3179.24 3024.78 3102.26 2966.69 3013.5 2896.31M3306.5 2496.48C3306.67 2619.76 3248.3 2872.31 3013.5 2896.31M82 3631L1723.5 2341.5L2788.5 2966.5L82 3631Z" stroke="black" stroke-width="163"/>
</svg>
