<svg width="4032" height="4203" viewBox="0 0 4032 4203" fill="none" xmlns="http://www.w3.org/2000/svg">
<g clip-path="url(#clip0_36_102)">
<path d="M2354.43 193.424L2347.36 389.206L2227.04 403.359C1969.89 436.383 1767.01 582.63 1653.77 823.231C1599.51 941.173 1592.43 990.708 1585.35 1266.69L1575.91 1580.41H1774.08H1974.61L1988.77 1302.07C2007.64 917.584 2045.38 851.536 2260.07 813.795L2359.15 797.283V1000.14C2359.15 1111.01 2366.23 1203 2378.02 1200.64C2413.41 1198.28 3173.06 620.371 3173.06 596.783C3173.06 570.836 2411.05 2.35882 2378.02 0C2368.59 0 2359.15 87.2767 2354.43 193.424Z" fill="#151515"/>
<path d="M0 398.643V610.937L228.837 618.013L455.316 625.09L700.667 1356.33C835.139 1757.33 943.66 2101.72 943.66 2118.23C943.66 2134.74 882.322 2231.45 806.829 2330.52C644.048 2542.82 625.175 2578.2 606.301 2689.06C573.273 2870.69 674.717 3057.04 842.216 3127.8C903.554 3153.75 1170.14 3160.83 2241.19 3160.83H3562.32V2948.53V2736.24H2300.17H1038.03L1170.14 2559.33L1302.25 2382.42H2243.55C2887.6 2382.42 3201.37 2372.98 3241.47 2356.47C3286.29 2335.24 3364.15 2184.27 3630.73 1578.06C3814.74 1162.9 3963.37 809.078 3963.37 787.849C3963.37 740.673 3918.55 655.755 3871.36 620.372C3850.13 603.861 3786.43 589.708 3727.46 589.708H3618.93L3316.96 1273.77L3014.99 1957.83H2182.21H1349.43L1056.9 1077.98L762.005 200.501L382.182 193.425L0 188.707V398.643Z" fill="#151515"/>
<path d="M903.551 3349.53C688.868 3399.07 559.115 3611.36 601.579 3837.81C625.171 3972.26 783.234 4118.51 924.784 4139.74C1104.08 4165.69 1281.02 4083.13 1356.51 3939.24C1403.69 3849.61 1401.33 3646.75 1351.79 3545.32C1283.37 3396.71 1078.13 3307.08 903.551 3349.53Z" fill="#151515"/>
<path d="M3069.25 3349.53C2807.39 3408.5 2677.64 3712.79 2814.47 3948.68C2875.8 4059.54 3033.87 4151.54 3161.26 4151.54C3288.66 4151.54 3446.72 4059.54 3508.06 3948.68C3684.99 3639.67 3416.05 3274.05 3069.25 3349.53Z" fill="#151515"/>
</g>
<defs>
<clipPath id="clip0_36_102">
<rect width="4032" height="4203" fill="white"/>
</clipPath>
</defs>
</svg>
