<svg width="4365" height="4365" viewBox="0 0 4365 4365" fill="none" xmlns="http://www.w3.org/2000/svg">
<path d="M2182.5 871.295C2182.5 736.594 2182.5 601.893 2182.5 467.191C2182.5 375.117 2240.47 315.439 2332.55 313.734C2468.95 313.734 2605.36 313.734 2741.77 313.734C2844.07 313.734 2900.34 371.707 2900.34 475.717C2900.34 741.709 2900.34 1007.7 2898.63 1275.4C2898.63 1312.91 2908.86 1321.44 2944.67 1321.44C3084.49 1319.73 3226.01 1321.44 3365.82 1319.73C3410.16 1319.73 3445.96 1328.26 3466.42 1370.88C3486.88 1413.51 3461.31 1444.2 3435.73 1474.89C3164.62 1790.33 2891.81 2107.48 2620.7 2422.92C2566.14 2486 2513.28 2486 2460.43 2422.92C2187.62 2105.77 1914.8 1786.92 1641.99 1469.78C1616.41 1439.09 1595.95 1410.1 1614.71 1369.18C1633.46 1328.26 1669.27 1318.03 1710.19 1318.03C1855.12 1318.03 2000.06 1318.03 2144.99 1319.73C2173.97 1319.73 2182.5 1311.21 2180.79 1282.22C2180.79 1147.52 2182.5 1009.41 2182.5 871.295Z" fill="black"/>
<path d="M1300.98 3077.67C1357.24 3052.09 1415.22 3045.27 1476.6 3045.27C1826.14 3045.27 2177.39 3045.27 2526.93 3045.27C2886.7 3045.27 3244.77 3045.27 3604.54 3045.27C3693.2 3045.27 3742.65 3006.05 3764.82 2919.09C3775.05 2876.47 3785.28 2835.55 3797.21 2792.92C3928.5 2269.46 4058.09 1744.29 4189.38 1219.13C4196.2 1193.55 4199.61 1169.68 4192.79 1144.11C4175.74 1077.61 4119.47 1033.28 4052.97 1033.28C3981.36 1033.28 3930.21 1077.61 3909.75 1156.04C3780.16 1674.39 3650.57 2192.73 3522.69 2712.78C3514.17 2748.59 3500.53 2758.82 3463.02 2758.82C2850.89 2757.11 2238.77 2757.11 1626.65 2758.82C1585.73 2758.82 1568.67 2748.59 1555.03 2707.66C1452.73 2371.76 1345.31 2035.86 1241.3 1698.26C1121.94 1323.14 1004.29 946.318 886.643 571.201C862.772 496.178 813.325 458.666 738.301 458.666C598.485 458.666 460.374 458.666 320.557 458.666C231.893 460.371 168.805 521.754 170.51 603.598C170.51 685.441 235.303 746.824 322.262 746.824C409.221 746.824 496.18 748.529 583.139 745.119C625.766 743.414 644.522 755.35 656.458 797.977C857.657 1447.61 1062.27 2097.25 1265.17 2746.88C1275.4 2780.98 1265.17 2787.8 1236.18 2798.03C1029.87 2867.94 890.053 3048.68 888.348 3246.47C884.938 3492 1052.04 3694.9 1300.98 3746.06C1324.85 3751.17 1343.6 3754.58 1355.54 3781.86C1427.15 3950.67 1556.74 4044.45 1740.89 4049.56C1928.45 4054.68 2063.15 3962.6 2143.29 3795.5C2155.22 3771.63 2165.45 3763.11 2192.73 3763.11C2378.59 3764.81 2564.44 3763.11 2750.29 3763.11C2774.16 3763.11 2786.1 3768.22 2796.33 3792.09C2874.76 3957.49 3004.35 4049.56 3188.5 4049.56C3372.65 4049.56 3502.23 3957.49 3580.67 3793.8C3592.6 3768.22 3606.24 3763.11 3631.82 3763.11C3720.48 3764.81 3809.15 3763.11 3896.11 3763.11C3986.48 3763.11 4051.27 3701.72 4051.27 3618.18C4051.27 3534.63 3986.48 3474.95 3894.4 3474.95C3804.03 3474.95 3715.37 3474.95 3625 3474.95C3602.83 3474.95 3592.6 3469.83 3582.37 3447.67C3503.94 3282.28 3374.35 3190.2 3191.91 3188.5C3006.06 3186.79 2874.76 3280.57 2796.33 3447.67C2786.1 3468.13 2775.87 3474.95 2753.7 3474.95C2564.44 3474.95 2376.88 3474.95 2187.62 3474.95C2165.45 3474.95 2153.52 3468.13 2144.99 3445.96C2122.82 3391.4 2088.72 3343.66 2046.1 3302.74C1836.37 3106.65 1500.47 3164.63 1369.18 3422.09C1360.65 3439.14 1360.65 3463.01 1326.55 3451.08C1244.71 3420.39 1185.03 3352.18 1178.21 3270.34C1171.39 3191.91 1217.43 3116.88 1300.98 3077.67ZM3191.91 3463.01C3277.16 3464.72 3348.78 3538.04 3347.07 3621.59C3345.37 3710.25 3273.75 3780.16 3185.09 3778.45C3099.83 3776.75 3028.22 3703.43 3029.93 3619.88C3031.63 3531.22 3103.24 3461.31 3191.91 3463.01ZM1754.53 3463.01C1839.78 3463.01 1911.4 3536.33 1909.69 3621.59C1907.98 3710.25 1836.37 3780.16 1749.41 3780.16C1664.16 3780.16 1592.55 3705.13 1594.25 3621.59C1594.25 3531.22 1665.86 3461.31 1754.53 3463.01Z" fill="black"/>
</svg>
