<svg width="4665" height="4666" viewBox="0 0 4665 4666" fill="none" xmlns="http://www.w3.org/2000/svg">
<path d="M3987.7 18.1079C3863.55 57.6086 3756.33 138.491 3690.51 241.945C3649.11 305.9 3611.5 419.699 3611.5 478.951V526.916H0V3536.49H2255.3L2261.89 3599.52C2296.68 3930.57 2500.77 4270.09 2775.4 4455.37C2988.88 4600.2 3202.39 4665.09 3461.02 4665.09C3716.84 4665.09 3928.44 4601.15 4142.88 4460.07C4227.53 4403.64 4403.39 4227.77 4459.83 4143.11C4600.9 3928.69 4664.85 3717.07 4664.85 3461.25C4664.85 3123.62 4550.12 2847.12 4310.29 2606.36L4213.42 2508.54V1053.59L4239.75 1047.95C4341.31 1025.38 4439.14 974.591 4504.98 909.696C4614.06 801.54 4664.85 682.098 4664.85 529.737C4664.85 423.46 4650.74 364.21 4602.78 272.041C4542.59 157.301 4434.44 67.9542 4304.64 23.7508C4215.3 -5.40451 4070.45 -8.22599 3987.7 18.1079ZM4291.47 191.159C4361.08 223.136 4441.95 303.077 4474.88 373.616C4497.44 422.52 4500.26 439.45 4500.26 526.916C4500.26 614.382 4497.44 631.31 4474.88 680.216C4441.95 749.814 4361.08 830.696 4291.47 863.613C4242.58 886.185 4225.65 889.006 4138.18 889.006C4050.7 889.006 4033.77 886.185 3984.88 863.613C3915.27 830.696 3834.4 749.814 3801.47 680.216C3778.91 631.31 3776.09 614.382 3776.09 526.916C3776.09 439.45 3778.91 422.52 3800.54 376.437C3845.68 281.447 3922.81 210.91 4018.73 177.052C4092.1 150.718 4219.07 157.301 4291.47 191.159ZM3704.6 841.981L3483.58 1063L3263.51 1284.01L3055.66 1282.13L2926.81 1155.17L2931.53 1081.81C2938.11 994.341 2925.88 952.019 2878.85 900.293C2832.78 848.565 2783.86 827.874 2708.62 827.874C2633.39 827.874 2584.47 848.565 2538.4 900.293C2491.37 952.019 2479.14 993.401 2485.72 1080.87L2490.42 1152.34L2132.11 1512.55L2059.68 1507.85C1972.21 1501.27 1929.89 1513.49 1878.17 1560.52C1827.38 1605.66 1805.75 1655.51 1805.75 1728.87C1805.75 1866.18 1895.1 1956.46 2031.47 1956.46C2106.71 1956.46 2155.62 1935.78 2201.69 1884.05C2248.72 1832.32 2260.95 1790 2254.37 1702.53L2249.65 1630.12L2430.23 1452.36L2609.87 1274.61H2711.44L2813.03 1275.55L2876.97 1339.5L2941.86 1403.46L2937.16 1476.81C2930.58 1564.28 2942.81 1606.6 2989.84 1658.33C3035.91 1710.06 3084.82 1730.75 3160.06 1730.75C3235.3 1730.75 3284.21 1710.06 3330.29 1658.33C3377.32 1606.6 3389.55 1564.28 3382.97 1476.81L3378.25 1404.4L3824.05 958.603L3874.83 987.757C3924.69 1014.09 3982.05 1035.72 4037.54 1047.95L4062.94 1053.59V1730.75C4062.94 2103.19 4061.05 2407.9 4058.24 2407.9C4055.4 2407.9 4023.44 2392.85 3986.77 2374.06C3900.23 2330.78 3774.21 2290.35 3670.76 2271.54C3563.54 2252.72 3355.69 2252.72 3248.47 2271.54C3021.82 2311.03 2800.8 2423.9 2627.74 2588.47L2558.15 2655.25V2332.66H2106.71V3235.53H2192.3C2260 3235.53 2276.93 3238.37 2273.17 3247.77C2270.35 3255.28 2265.65 3289.14 2261.89 3323.01L2255.3 3386.01H150.479V677.395L3625.62 678.335L3704.6 841.981ZM2755.65 1006.57C2766 1016.91 2774.47 1037.6 2774.47 1053.59C2774.47 1069.58 2766 1090.27 2755.65 1100.62C2745.3 1110.96 2724.6 1119.43 2708.62 1119.43C2692.65 1119.43 2671.95 1110.96 2661.6 1100.62C2651.25 1090.27 2642.78 1069.58 2642.78 1053.59C2642.78 1037.6 2651.25 1016.91 2661.6 1006.57C2671.95 996.223 2692.65 987.757 2708.62 987.757C2724.6 987.757 2745.3 996.223 2755.65 1006.57ZM3207.09 1458.01C3217.44 1468.35 3225.9 1489.04 3225.9 1505.03C3225.9 1521.02 3217.44 1541.71 3207.09 1552.05C3196.74 1562.4 3176.04 1570.86 3160.06 1570.86C3144.08 1570.86 3123.38 1562.4 3113.04 1552.05C3102.69 1541.71 3094.22 1521.02 3094.22 1505.03C3094.22 1489.04 3102.69 1468.35 3113.04 1458.01C3123.38 1447.66 3144.08 1439.19 3160.06 1439.19C3176.04 1439.19 3196.74 1447.66 3207.09 1458.01ZM2078.5 1683.72C2088.84 1694.07 2097.31 1714.76 2097.31 1730.75C2097.31 1746.74 2088.84 1767.43 2078.5 1777.77C2068.15 1788.12 2047.45 1796.58 2031.47 1796.58C2015.49 1796.58 1994.79 1788.12 1984.44 1777.77C1974.09 1767.43 1965.63 1746.74 1965.63 1730.75C1965.63 1714.76 1974.09 1694.07 1984.44 1683.72C1994.79 1673.38 2015.49 1664.91 2031.47 1664.91C2047.45 1664.91 2068.15 1673.38 2078.5 1683.72ZM3385.78 2706.97L3341.57 2713.56C3269.16 2723.91 3160.06 2762.47 3089.52 2801.98C2909.9 2902.6 2777.28 3078.47 2726.49 3281.63C2698.28 3395.43 2703.93 3583.52 2739.65 3691.67C2753.77 3733.07 2761.28 3769.75 2757.54 3772.56C2753.77 3776.33 2698.28 3809.24 2634.32 3844.99L2516.77 3911.76L2499.84 3874.13C2471.62 3811.12 2438.69 3695.44 2426.48 3619.27C2409.55 3514.86 2418.95 3298.56 2445.28 3204.51C2551.56 2811.38 2857.22 2520.77 3254.12 2436.11C3298.31 2426.71 3345.34 2418.25 3360.38 2418.25L3385.78 2417.32V2706.97ZM3663.23 2435.18C4059.17 2517.93 4365.78 2804.8 4473.93 3193.23C4503.09 3299.49 4513.44 3506.4 4495.56 3618.32C4483.35 3695.44 4450.42 3811.12 4421.27 3874.13L4405.27 3911.76L4285.84 3843.1C4220 3805.47 4164.51 3772.56 4161.69 3770.68C4159.81 3767.86 4169.2 3732.12 4182.39 3691.67C4202.14 3629.62 4207.77 3592.94 4211.53 3488.53C4216.23 3332.4 4198.37 3248.7 4132.53 3113.27C4094.92 3038.03 4074.22 3010.77 3998.05 2933.64C3873.9 2809.49 3736.58 2737.07 3581.4 2713.56L3536.26 2706.97V2562.15C3536.26 2393.8 3524.03 2406.02 3663.23 2435.18ZM2407.67 2868.75L2375.69 2932.69C2358.76 2967.51 2337.13 3015.47 2327.73 3039.91C2313.61 3079.43 2307.98 3085.06 2284.47 3085.06H2257.19V2483.14H2407.67V2868.75ZM3605.85 2883.8C3812.77 2933.64 3984.88 3106.69 4038.49 3316.42C4058.24 3390.71 4058.24 3530.86 4038.49 3606.1C3991.46 3787.61 3849.45 3948.44 3675.46 4016.14C3345.34 4144.06 2972.91 3951.25 2882.62 3607.03C2864.75 3535.56 2864.75 3386.97 2882.62 3315.47C2965.37 2999.47 3287.96 2806.68 3605.85 2883.8ZM2912.71 3979.47C3066.01 4139.36 3240 4213.65 3461.02 4213.65C3682.97 4213.65 3858.85 4138.41 4009.33 3979.47C4044.12 3941.86 4076.1 3912.69 4080.8 3914.57C4115.6 3928.69 4316.87 4050.01 4316.87 4056.59C4316.87 4072.59 4221.88 4184.51 4168.27 4233.4C3856.97 4511.79 3425.27 4584.22 3047.19 4421.5C2953.16 4381.06 2832.77 4303.94 2753.77 4233.4C2700.16 4184.51 2605.17 4072.59 2605.17 4056.59C2605.17 4049.07 2826.19 3915.53 2842.17 3913.64C2844.99 3912.69 2876.97 3942.79 2912.71 3979.47Z" fill="#151515"/>
<path d="M300.958 978.353H451.438V827.874H300.958V978.353Z" fill="#151515"/>
<path d="M601.917 978.353H1655.27V827.874H601.917V978.353Z" fill="#151515"/>
<path d="M300.958 1279.31H451.438V1128.83H300.958V1279.31Z" fill="#151515"/>
<path d="M601.917 1279.31H1655.27V1128.83H601.917V1279.31Z" fill="#151515"/>
<path d="M300.958 1580.27H451.438V1429.79H300.958V1580.27Z" fill="#151515"/>
<path d="M601.917 1580.27H1655.27V1429.79H601.917V1580.27Z" fill="#151515"/>
<path d="M300.958 1881.23H451.438V1730.75H300.958V1881.23Z" fill="#151515"/>
<path d="M601.917 1881.23H1655.27V1730.75H601.917V1881.23Z" fill="#151515"/>
<path d="M1504.79 3235.54H1956.23V2031.7H1504.79V3235.54ZM1805.75 3085.06H1655.27V2182.18H1805.75V3085.06Z" fill="#151515"/>
<path d="M300.958 3235.54H752.396V2483.14H300.958V3235.54ZM601.917 3085.06H451.438V2633.62H601.917V3085.06Z" fill="#151515"/>
<path d="M902.875 3235.53H1354.31V2633.62H902.875V3235.53ZM1203.83 3085.06H1053.35V2784.1H1203.83V3085.06Z" fill="#151515"/>
<path d="M3318.06 3027.7C3248.47 3050.26 3182.62 3092.59 3129.97 3149.01C3044.38 3240.23 3009.58 3331.47 3009.58 3461.25C3009.58 3591.05 3044.38 3682.27 3129.97 3773.51C3219.32 3868.5 3323.71 3912.69 3461.02 3912.69C3598.34 3912.69 3702.72 3868.5 3792.07 3773.51C3877.66 3682.27 3912.46 3591.05 3912.46 3461.25C3912.46 3331.47 3877.66 3240.23 3792.07 3149.01C3738.47 3091.64 3672.62 3050.26 3601.15 3027.7C3524.98 3004.19 3392.36 3004.19 3318.06 3027.7ZM3590.8 3196.97C3641.6 3223.32 3698.97 3279.75 3726.23 3331.47C3744.12 3365.34 3747.86 3386.01 3747.86 3461.25C3747.86 3563.77 3731.88 3604.22 3667.92 3668.18C3603.97 3732.12 3563.54 3748.12 3461.02 3748.12C3385.78 3748.12 3365.08 3744.35 3331.24 3726.49C3279.51 3698.27 3223.07 3641.83 3196.74 3591.05C3171.34 3542.14 3162.88 3436.81 3177.93 3379.43C3200.51 3294.79 3287.03 3204.51 3370.73 3179.11C3421.53 3163.13 3545.66 3173.46 3590.8 3196.97Z" fill="#151515"/>
</svg>
