<svg width="5467" height="7162" viewBox="0 0 5467 7162" fill="none" xmlns="http://www.w3.org/2000/svg">
<path d="M1679.78 5750.48C1434.56 5873.16 1287.42 5897.69 1238.38 5811.82C1201.6 5738.21 919.588 5701.4 613.059 5738.21L73.5671 5787.28L0 7161.3H625.32C993.155 7161.3 1238.38 7112.23 1238.38 7026.35C1238.38 6928.21 1471.34 6915.94 2072.14 6989.55C3702.88 7185.84 4622.46 6989.55 5198.74 6302.54C5505.27 5934.5 5321.35 5738.21 4965.78 6069.45C4732.81 6278 4512.11 6339.34 3850.01 6363.88C3396.35 6376.15 3187.91 6363.88 3408.61 6339.34C3617.05 6314.81 3862.27 6216.66 3935.84 6118.52C4095.23 5922.23 3972.62 5885.42 2954.94 5762.74C2648.41 5725.94 2317.36 5664.6 2219.27 5627.8C2121.18 5590.99 1875.96 5652.33 1679.78 5750.48ZM993.155 6425.22C993.155 6695.12 944.111 6915.94 870.543 6915.94C809.238 6915.94 747.932 6695.12 747.932 6425.22C747.932 6155.32 809.238 5934.5 870.543 5934.5C944.111 5934.5 993.155 6155.32 993.155 6425.22Z" fill="#151515"/>
<path d="M679 4829H5467V5033H679V4829Z" fill="black"/>
<path d="M1719 3100H2288V4829H1719V3100Z" fill="black"/>
<path d="M2461 2284H3030V4829H2461V2284Z" fill="black"/>
<path d="M3288 1758H3857V4829H3288V1758Z" fill="black"/>
<path d="M4115 2628H4684V4829H4115V2628Z" fill="black"/>
<path d="M1473.5 1858C1075.5 2519.67 281.099 3854 287.499 3898L366.5 3937.5L1331.5 2577.5V3257.5L2280.5 1692L2383 2143C2910.17 1718.5 3981.9 814.2 4051.5 593C4121.1 371.8 3938.17 105.5 3838 0L2541 1629V909.5L1592.5 2475L1473.5 1858Z" fill="black"/>
</svg>
