<svg width="4691" height="6020" viewBox="0 0 4691 6020" fill="none" xmlns="http://www.w3.org/2000/svg">
<path d="M3273.52 193.424L3266.44 389.206L3146.12 403.359C2888.98 436.383 2686.09 582.63 2572.85 823.231C2518.59 941.173 2511.51 990.708 2504.44 1266.69L2495 1580.41H2693.17H2893.7L2907.85 1302.07C2926.72 917.584 2964.47 851.536 3179.15 813.795L3278.24 797.283V1000.14C3278.24 1111.01 3285.31 1203 3297.11 1200.64C3332.5 1198.28 4092.14 620.371 4092.14 596.783C4092.14 570.836 3330.14 2.35882 3297.11 0C3287.67 0 3278.24 87.2767 3273.52 193.424Z" fill="#151515"/>
<g clip-path="url(#clip0_36_174)">
<path d="M154.992 2063.66C71.3881 2063.66 0 1992.28 0 1904.86C0 1821.26 71.3881 1749.87 154.992 1749.87H369.538C373.356 1749.87 381.373 1749.87 385.572 1749.87C528.73 1753.69 655.854 1781.56 762.746 1849.13C881.853 1924.71 969.275 2039.61 1016.99 2210.63C1016.99 2214.45 1016.99 2218.65 1020.81 2222.47L1060.51 2381.65H1149.84V1737.28C1149.84 1650.62 1220.47 1580 1307.13 1580H2134.39C2221.05 1580 2291.67 1650.62 2291.67 1737.28V2119.78C2422.23 1989.61 2599.37 1909.82 2794.83 1909.82C2879.57 1909.82 2961.27 1925.09 3036.86 1952.58C3192.61 1787.28 3413.65 1683.83 3658.74 1683.83C4077.14 1683.83 4424.92 1984.64 4498.21 2381.65H4536.01C4623.43 2381.65 4691 2453.04 4691 2536.64C4691 2552.67 4686.8 2568.32 4682.98 2584.35L4277.94 4216.67C4261.91 4288.05 4198.54 4335.77 4127.15 4335.77H1584.66C1640.4 4542.29 1695.75 4653.38 1771.34 4705.29C1862.58 4764.84 2021.77 4768.66 2287.86 4764.84H2291.67H4087.06C4174.49 4764.84 4242.06 4836.23 4242.06 4919.83C4242.06 5007.25 4170.67 5074.82 4087.06 5074.82H2292.05C1962.22 5078.63 1759.89 5071 1596.88 4963.73C1430.05 4852.64 1342.63 4661.77 1255.21 4316.3L723.043 2302.25C723.043 2298.43 723.043 2298.43 719.226 2294.23C695.557 2206.81 655.854 2147.26 600.118 2115.58C544.382 2079.7 469.176 2064.04 381.755 2064.04C377.937 2064.04 373.738 2064.04 369.92 2064.04H154.992V2063.66ZM3221.24 3018.77C3221.24 2969.91 3269.73 2930.21 3329.28 2930.21C3388.84 2930.21 3437.32 2969.91 3437.32 3018.77V3617.72C3437.32 3666.58 3388.84 3706.28 3329.28 3706.28C3269.73 3706.28 3221.24 3666.58 3221.24 3617.72V3018.77ZM2574.17 3018.77C2574.17 2969.91 2622.65 2930.21 2682.21 2930.21C2741.76 2930.21 2790.24 2969.91 2790.24 3018.77V3617.72C2790.24 3666.58 2741.76 3706.28 2682.21 3706.28C2622.65 3706.28 2574.17 3666.58 2574.17 3617.72V3018.77ZM1927.48 3018.77C1927.48 2969.91 1975.96 2930.21 2035.52 2930.21C2095.07 2930.21 2143.55 2969.91 2143.55 3018.77V3617.72C2143.55 3666.58 2095.07 3706.28 2035.52 3706.28C1975.96 3706.28 1927.48 3666.58 1927.48 3617.72V3018.77ZM3266.67 2090.38C3354.86 2168.64 3424.72 2268.27 3468.62 2381.65H4226.4C4162.27 2127.79 3932.45 1939.6 3658.74 1939.6C3507.94 1939.6 3370.51 1996.48 3266.67 2090.38ZM3520.16 2691.24H2069.11H1147.94L1501.44 4021.98H4007.66L4337.11 2691.24H3520.16ZM2111.48 2381.65C2115.68 2370.58 2120.26 2359.89 2124.85 2349.2V1854.85C2124.85 1792.25 2073.31 1740.71 2010.7 1740.71H1439.6C1376.99 1740.71 1325.45 1791.86 1325.45 1854.85V2381.65H2111.48ZM3622.47 5257.29C3833.2 5257.29 4003.84 5427.92 4003.84 5638.64C4003.84 5849.36 3833.2 6020 3622.47 6020C3412.12 6020 3241.1 5849.36 3241.1 5638.64C3241.1 5427.92 3412.12 5257.29 3622.47 5257.29ZM1950.38 5257.29C2160.73 5257.29 2331.76 5427.92 2331.76 5638.64C2331.76 5849.36 2161.11 6020 1950.38 6020C1739.66 6020 1569.01 5849.36 1569.01 5638.64C1569.01 5427.92 1739.66 5257.29 1950.38 5257.29Z" fill="black"/>
</g>
<defs>
<clipPath id="clip0_36_174">
<rect width="4691" height="4440" fill="white" transform="translate(0 1580)"/>
</clipPath>
</defs>
</svg>
