<svg width="6411" height="6915" viewBox="0 0 6411 6915" fill="none" xmlns="http://www.w3.org/2000/svg">
<g clip-path="url(#clip0_36_143)">
<path d="M2512.99 9.95795C2399.08 29.1102 2206.55 98.6634 2146.07 143.017C2128.94 155.113 2096.68 174.265 2074.5 185.353C1995.88 224.666 1785.2 444.414 1737.82 535.136C1728.75 553.28 1708.59 588.56 1694.48 613.761C1651.13 687.346 1597.71 860.725 1584.61 971.607C1567.47 1116.76 1577.55 1410.1 1604.77 1526.02C1634 1654.04 1674.32 1792.13 1695.49 1835.48L1713.63 1873.78L1658.19 1921.16C1595.69 1974.59 1566.46 2030.03 1565.45 2094.54C1565.45 2184.25 1652.14 2541.09 1715.65 2711.45C1744.88 2789.06 1793.27 2858.62 1841.65 2893.9C1876.93 2919.1 1891.04 2923.13 1933.38 2920.11C1982.77 2917.08 1983.78 2918.09 2000.92 2954.38C2028.13 3011.84 2038.21 3101.55 2045.27 3351.54L2052.33 3583.38L2173.29 3655.96C2239.82 3696.28 2305.34 3728.54 2318.44 3728.54C2330.54 3728.54 2341.63 3732.57 2341.63 3736.6C2341.63 3750.71 2432.35 3789.02 2478.72 3796.07C2502.91 3799.1 2523.07 3805.15 2523.07 3809.18C2523.07 3822.28 2593.63 3846.47 2674.27 3860.59C2783.14 3880.75 3157.11 3878.73 3263.96 3857.56C3397.02 3831.35 3509.92 3798.09 3545.2 3773.9C3563.35 3761.8 3589.55 3748.7 3603.67 3745.67C3639.96 3736.6 3727.65 3665.03 3762.93 3615.64C3794.18 3573.3 3804.26 3511.81 3782.09 3504.76C3773.01 3501.73 3773.01 3488.63 3781.08 3451.33C3787.13 3423.11 3800.23 3335.41 3808.29 3254.77C3825.43 3099.53 3856.68 2940.27 3879.86 2881.8C3904.06 2824.34 3919.18 2813.26 3967.56 2818.3C4005.87 2822.33 4013.93 2819.3 4046.19 2787.05C4066.35 2766.89 4090.54 2730.6 4100.62 2707.41C4109.69 2684.23 4121.79 2658.02 4126.83 2649.96C4260.9 2424.16 4351.62 2017.93 4294.16 1907.05C4276.02 1872.78 4242.75 1848.58 4226.62 1858.66C4220.57 1861.69 4216.54 1857.66 4216.54 1849.59C4216.54 1839.51 4207.47 1833.46 4195.37 1833.46C4179.25 1833.46 4176.22 1829.43 4181.26 1815.32C4201.42 1761.89 4228.64 1568.35 4233.68 1439.33C4242.75 1202.44 4202.43 1018.98 4097.6 808.308C3995.79 605.697 3857.69 431.31 3710.52 318.412C3582.5 220.634 3372.83 132.937 3195.42 104.712C3147.03 96.6474 3103.69 88.5833 3099.66 85.5592C3095.63 83.5432 3015.99 76.4871 2921.24 70.439C2827.49 64.3909 2725.68 56.3267 2695.44 53.3027L2641.01 46.2465L2673.27 33.1423C2690.4 26.0862 2704.51 14.998 2704.51 8.94994C2704.51 -3.14627 2592.62 -3.14627 2512.99 9.95795Z" fill="black"/>
<path d="M1792.26 3700.31C1748.91 3729.54 1701.54 3764.82 1686.42 3778.94C1671.3 3793.05 1639.04 3814.22 1614.85 3824.3C1590.65 3835.39 1504.97 3879.74 1424.33 3924.09C1343.69 3967.44 1243.9 4019.85 1202.57 4041.02C1161.24 4062.19 1103.78 4094.45 1074.55 4114.61C1046.32 4133.76 1010.03 4151.9 993.907 4155.94C905.201 4178.11 528.202 4387.78 398.167 4488.58C300.39 4563.17 194.548 4703.29 194.548 4757.72C194.548 4772.84 190.516 4788.97 184.467 4791.99C160.275 4807.11 100.802 5061.14 69.5533 5280.88C48.3849 5427.05 35.2807 5630.67 23.1844 5956.25C18.1443 6108.47 11.0882 6290.92 7.05613 6361.48L0 6490.5L1652.14 6489.5C3265.98 6488.49 4370.77 6480.42 4382.87 6468.33C4389.92 6461.27 4349.6 6352.41 4313.31 6280.84C4289.12 6232.45 4286.1 6212.29 4276.02 6038.91C4262.91 5814.12 4265.94 5770.78 4307.26 5638.73C4350.61 5500.63 4373.79 5451.24 4440.32 5350.44C4551.21 5184.11 4718.54 5030.89 4874.78 4951.26C4914.09 4932.11 4962.48 4905.9 4981.63 4892.8C5045.13 4853.48 5187.27 4832.32 5385.84 4832.32C5482.61 4832.32 5592.49 4836.35 5630.79 4841.39L5698.33 4850.46V4817.2C5698.33 4776.87 5641.88 4668.01 5584.42 4597.45C5527.98 4528.9 5430.2 4446.24 5341.49 4392.82C5302.18 4369.64 5120.74 4272.87 4937.28 4179.12C4568.34 3990.62 4348.59 3870.67 4180.25 3767.85C4050.22 3688.22 3997.8 3662.01 3988.73 3671.08C3984.7 3675.11 3995.79 3733.58 4013.93 3801.11C4031.07 3869.66 4045.18 3933.16 4045.18 3943.24C4045.18 3953.32 4053.24 3973.48 4063.32 3987.6C4076.43 4009.77 4080.46 4036.99 4080.46 4126.7C4080.46 4222.46 4076.43 4248.67 4053.24 4316.21C4037.12 4358.55 4025.02 4403.91 4025.02 4417.01C4025.02 4429.11 4017.96 4452.29 4009.9 4467.41C4001.83 4482.53 3992.76 4512.77 3988.73 4532.93C3984.7 4553.09 3960.51 4635.75 3933.29 4716.39C3882.89 4869.61 3762.93 5293.99 3762.93 5318.18C3762.93 5326.24 3746.81 5377.65 3727.65 5434.1C3707.49 5490.55 3651.04 5675.02 3600.64 5844.36C3485.73 6235.48 3448.43 6351.4 3443.39 6345.35C3440.37 6342.33 3432.3 6308.05 3424.24 6267.73C3417.18 6227.41 3406.1 6190.11 3400.05 6184.07C3395.01 6179.03 3389.97 6156.85 3389.97 6136.69C3389.97 6067.14 3300.25 5497.61 3258.92 5311.12C3248.84 5263.75 3234.73 5174.03 3228.68 5111.54C3222.64 5049.04 3207.52 4955.29 3197.44 4904.89C3168.2 4767.8 3158.12 4662.97 3168.2 4623.66C3173.24 4605.51 3205.5 4547.05 3238.76 4494.63C3272.03 4442.21 3299.25 4393.83 3299.25 4388.79C3299.25 4382.74 3309.33 4372.66 3320.41 4365.6C3351.66 4345.44 3341.58 4296.05 3278.08 4157.95L3223.64 4041.02H2936.36H2648.07L2590.61 4168.03C2559.36 4237.59 2533.15 4305.12 2533.15 4317.22C2533.15 4342.42 2579.52 4419.03 2611.78 4448.26C2623.87 4459.35 2633.95 4472.45 2633.95 4478.5C2633.95 4484.55 2652.1 4518.82 2674.27 4555.11C2717.62 4624.66 2721.65 4650.87 2704.51 4733.53C2699.47 4759.74 2692.42 4809.13 2690.4 4842.4C2688.39 4875.66 2678.31 4932.11 2669.23 4968.4C2660.16 5004.69 2644.03 5088.35 2633.95 5154.88C2595.65 5406.89 2441.42 6305.03 2434.37 6323.17C2427.31 6339.3 2423.28 6335.27 2410.17 6297.97C2362.8 6166.93 2290.22 5925.01 2296.27 5915.93C2299.29 5910.89 2295.26 5905.85 2287.19 5905.85C2277.11 5905.85 2271.07 5896.78 2271.07 5881.66C2271.07 5846.38 2231.75 5701.23 2118.86 5316.16C2006.97 4938.16 1947.49 4745.63 1925.32 4694.22C1917.25 4676.07 1903.14 4619.62 1894.07 4570.23C1883.99 4519.83 1861.81 4434.15 1842.66 4378.71C1792.26 4225.49 1772.1 4118.64 1786.21 4084.37C1792.26 4069.25 1801.33 4035.98 1806.37 4010.78C1817.46 3952.32 1853.75 3812.2 1878.95 3727.53C1889.03 3691.24 1898.1 3658.98 1898.1 3654.95C1898.1 3636.81 1863.83 3651.93 1792.26 3700.31Z" fill="black"/>
<path d="M5283.03 4975.45C5272.95 4977.47 5264.88 4983.52 5264.88 4986.54C5264.88 4990.57 5240.69 4994.61 5210.45 4995.61C5150.98 4996.62 5043.12 5024.85 5043.12 5037.95C5043.12 5042.99 5025.98 5049.04 5003.81 5053.07C4948.37 5061.13 4790.11 5168.99 4705.43 5254.67C4629.83 5330.28 4533.06 5466.36 4521.97 5510.71C4518.95 5525.83 4508.87 5542.97 4500.81 5549.02C4492.74 5555.06 4485.68 5573.21 4484.68 5590.34C4483.67 5606.47 4478.63 5626.63 4471.57 5634.7C4449.4 5661.91 4429.24 5770.78 4422.18 5895.77C4417.14 6002.62 4419.16 6037.9 4438.31 6126.61C4480.64 6334.26 4558.26 6479.42 4705.43 6627.59C4827.4 6750.57 4936.27 6818.11 5088.48 6866.49C5625.75 7035.84 6180.16 6734.44 6328.34 6193.14C6354.55 6096.37 6355.56 6085.28 6350.52 5920.97C6346.49 5822.19 6338.42 5723.4 6329.35 5688.12C6313.22 5623.61 6283.99 5553.05 6272.9 5553.05C6269.88 5553.05 6253.75 5566.15 6237.62 5583.29C6221.49 5599.42 6203.35 5613.53 6197.3 5613.53C6180.16 5613.53 6113.64 5686.11 6102.55 5717.35C6096.5 5733.48 6091.46 5799 6091.46 5863.52C6091.46 6014.72 6076.34 6143.75 6051.14 6210.28C6032.99 6259.67 5948.32 6397.77 5918.08 6428.01C5873.73 6473.37 5762.84 6549.98 5693.29 6582.23C5583.42 6634.65 5510.84 6651.79 5394.92 6651.79C5197.35 6651.79 5035.06 6584.25 4890.91 6440.1C4753.82 6304.02 4705.43 6199.19 4691.32 6008.67C4676.2 5813.12 4702.41 5697.19 4790.11 5569.18C4866.72 5458.29 4981.63 5348.42 5058.24 5312.13C5082.43 5301.04 5108.64 5284.91 5116.7 5275.84C5128.8 5264.75 5170.13 5257.7 5271.94 5249.63C5472.54 5233.51 5543.1 5239.55 5651.96 5284.92C5702.36 5305.08 5747.72 5321.2 5753.77 5321.2C5769.9 5321.2 5940.26 5159.92 5940.26 5144.8C5940.26 5128.67 5825.34 5069.2 5794.09 5069.2C5780.99 5069.2 5765.87 5062.14 5758.81 5054.08C5740.67 5032.91 5639.87 4997.63 5582.41 4993.6C5555.19 4991.58 5515.88 4985.53 5496.73 4979.49C5462.46 4968.4 5318.31 4966.38 5283.03 4975.45Z" fill="black"/>
<path d="M6206.37 5128.67C6183.19 5139.76 6146.9 5162.95 6125.73 5182.1C6103.55 5200.24 6066.26 5229.47 6041.06 5245.6C5975.53 5286.93 5675.14 5592.36 5587.45 5704.25C5547.13 5756.67 5471.52 5864.53 5419.11 5944.16L5323.35 6089.31L5298.15 6065.12C5284.03 6052.02 5230.61 5989.52 5179.2 5925.01C5046.14 5758.68 5002.8 5729.45 4936.27 5760.7C4860.67 5796.99 4835.47 5903.84 4887.88 5965.33C4901.99 5982.46 4920.14 5996.58 4928.2 5996.58C4936.27 5996.58 4942.32 6002.62 4942.32 6009.68C4942.32 6033.87 5114.69 6275.8 5198.35 6369.54C5265.89 6444.14 5303.19 6470.34 5346.53 6470.34C5378.79 6470.34 5389.88 6463.29 5423.14 6425.99C5444.31 6401.8 5485.64 6339.3 5513.86 6286.88C5543.09 6234.47 5602.57 6136.69 5644.9 6071.17C5687.24 6005.65 5731.59 5933.07 5743.69 5910.89C5765.87 5869.57 5816.27 5814.12 5993.68 5634.7C6047.1 5580.26 6091.46 5527.85 6091.46 5519.78C6091.46 5511.72 6102.55 5501.64 6115.65 5498.61C6145.89 5491.56 6326.33 5357.49 6369.67 5310.12C6411 5265.76 6418.05 5241.57 6403.94 5190.16C6383.78 5115.57 6296.08 5088.35 6206.37 5128.67Z" fill="black"/>
</g>
<defs>
<clipPath id="clip0_36_143">
<rect width="6411" height="6915" fill="white"/>
</clipPath>
</defs>
</svg>
