<svg width="6055" height="6055" viewBox="0 0 6055 6055" fill="none" xmlns="http://www.w3.org/2000/svg">
<path d="M1989.01 101.265C1843.99 166.401 1773.93 361.811 1845.21 501.917C1855.04 521.58 1968.12 694.869 2094.7 885.362C2222.52 1075.86 2328.21 1239.32 2329.43 1246.69C2333.13 1261.43 1175.41 1612.92 1117.65 1614.16C1088.15 1614.16 1059.89 1593.26 976.316 1510.92C821.462 1360.99 809.173 1356.07 567.06 1356.07C367.964 1356.07 366.735 1356.07 302.826 1392.94C230.316 1434.73 192.217 1481.42 168.866 1561.31C146.745 1633.82 146.745 1668.24 171.325 1750.57C189.759 1812.02 211.881 1837.84 505.61 2134.02C853.417 2484.28 890.286 2511.32 1013.19 2511.32C1067.26 2511.32 1238.1 2465.85 1773.93 2308.53C2154.92 2196.69 2468.32 2108.21 2470.78 2110.67C2473.23 2113.12 2449.88 2293.79 2419.15 2512.55C2381.06 2774.33 2363.85 2931.64 2368.77 2970.96C2379.83 3074.21 2449.88 3166.37 2546.97 3206.93C2605.96 3231.52 2852.99 3230.28 2914.44 3204.47C2962.37 3184.81 3032.42 3124.59 3055.77 3082.8C3063.15 3069.29 3183.59 2763.26 3323.7 2403.17C3463.8 2041.84 3580.55 1745.66 3583.01 1743.2C3585.47 1741.98 3885.34 1653.49 4250.35 1546.57C4615.36 1440.86 4933.68 1345.01 4957.03 1335.18C5108.19 1273.72 5172.1 1090.6 5097.14 939.438C5025.86 798.104 4809.55 676.434 4574.81 649.395C4466.66 635.877 4357.28 659.228 3914.85 790.73C3688.71 858.325 3496.98 908.713 3489.61 905.027C3482.23 900.11 3243.81 721.907 2959.91 509.291C2676.02 295.445 2424.07 112.326 2400.72 100.036C2339.28 68.0818 2060.29 68.0818 1989.01 101.265ZM2295.03 286.842C2326.98 297.904 3227.83 968.934 3232.74 984.911C3236.44 992.285 2558.03 1198.76 2553.11 1192.61C2551.89 1191.39 2433.9 1013.18 2290.11 796.875C2108.22 524.038 2028.33 393.765 2028.33 370.414C2028.33 331.087 2060.29 290.53 2098.38 283.156C2150 273.324 2264.3 274.553 2295.03 286.842ZM4606.77 865.699C4743.18 890.279 4920.15 1004.58 4920.15 1067.25C4920.15 1131.16 4900.49 1138.54 4283.54 1317.97C3956.63 1413.83 3687.47 1491.25 3685.02 1491.25C3682.56 1491.25 3687.47 1467.91 3697.31 1440.86C3707.14 1412.6 3715.74 1388.02 3715.74 1386.8C3715.74 1376.95 3528.94 1317.97 3521.57 1325.34C3516.65 1329.03 3369.17 1705.1 3192.19 2158.6C2880.02 2964.83 2870.19 2984.49 2829.64 3005.38C2787.86 3027.5 2704.29 3032.42 2647.75 3016.43C2631.77 3012.75 2607.19 2994.32 2593.67 2975.88L2570.32 2943.93L2651.44 2369.99C2696.91 2054.14 2732.55 1787.45 2730.1 1776.38C2727.63 1760.4 2703.05 1751.81 2629.31 1741.98C2523.62 1727.22 2529.76 1723.54 2517.47 1813.26L2510.1 1872.24L2409.32 1901.75C1909.12 2052.91 1038.99 2302.4 1013.19 2302.4C987.377 2302.4 921.011 2242.17 670.296 1991.45C457.68 1778.84 360.59 1671.92 360.59 1654.71C360.59 1639.97 374.109 1611.7 390.086 1593.26C419.581 1558.85 420.811 1558.85 567.06 1558.85H715.769L825.149 1665.78C885.371 1726 959.11 1784.99 988.606 1798.5C1102.9 1850.12 1053.74 1862.41 2778.03 1348.7C3655.53 1088.15 4395.38 870.614 4422.42 864.47C4493.69 850.951 4525.65 850.951 4606.77 865.699Z" fill="#151515"/>
<path d="M4067.24 243.828C4020.54 261.035 3979.98 275.782 3977.52 278.241C3973.83 283.156 4031.6 458.903 4040.2 467.506C4048.8 476.109 4234.38 417.116 4239.3 404.827C4247.89 381.476 4187.68 219.248 4169.24 216.791C4159.41 215.562 4113.94 227.851 4067.24 243.828Z" fill="#151515"/>
<path d="M5451.08 342.148C5400.7 358.125 5357.68 372.873 5355.22 376.559C5350.31 381.476 5406.83 555.993 5416.68 565.825C5425.27 574.427 5610.85 515.436 5615.77 503.146C5623.14 484.711 5566.6 320.026 5551.86 316.34C5545.72 313.881 5500.25 326.171 5451.08 342.148Z" fill="#151515"/>
<path d="M1169.26 579.343C988.602 638.334 838.664 689.953 834.977 693.639C822.687 705.93 891.511 890.278 906.259 885.362C913.633 882.904 1066.03 834.974 1245.46 778.44C1424.9 721.907 1574.84 672.746 1579.75 669.059C1594.5 655.54 1535.5 477.337 1515.84 474.878C1506.01 474.878 1349.92 521.58 1169.26 579.343Z" fill="#151515"/>
<path d="M477.336 798.105C403.596 822.685 340.918 843.577 339.689 844.807C331.086 853.41 391.306 1027.93 404.825 1032.84C412.199 1035.3 483.481 1018.1 562.136 993.514C680.12 956.645 704.7 945.584 699.783 928.378C696.097 917.317 682.578 874.302 670.288 833.745C657.998 791.96 640.792 758.777 630.96 757.547C621.128 756.318 552.305 774.754 477.336 798.105Z" fill="#151515"/>
<path d="M5548.17 1289.7C5499.01 1304.45 5455.99 1320.43 5453.54 1322.89C5448.62 1327.8 5505.16 1503.55 5514.99 1513.38C5524.82 1521.98 5709.16 1463 5714.08 1449.47C5721.45 1431.03 5664.93 1266.35 5650.18 1262.67C5644.03 1261.43 5598.56 1273.72 5548.17 1289.7Z" fill="#151515"/>
<path d="M4545.31 1770.23C4342.52 1835.38 4175.38 1888.22 4174.15 1889.46C4172.91 1890.68 4185.21 1936.15 4202.42 1991.45L4233.14 2091.01L4321.63 2063.97C4813.22 1911.58 4993.89 1851.36 4993.89 1841.52C4993.89 1808.33 4939.81 1651.02 4927.52 1652.26C4920.15 1652.26 4748.09 1706.33 4545.31 1770.23Z" fill="#151515"/>
<path d="M3834.95 1996.37C3755.07 2020.96 3687.47 2044.31 3683.79 2046.77C3675.18 2056.6 3741.55 2240.94 3753.84 2240.94C3766.13 2240.94 4038.97 2154.92 4045.11 2148.77C4050.02 2143.85 3995.96 1966.88 3987.35 1957.05C3982.43 1953.36 3914.84 1970.57 3834.95 1996.37Z" fill="#151515"/>
<path d="M5283.93 2234.79C5263.04 2288.87 5253.21 2331.89 5259.35 2338.04C5265.5 2344.18 5310.97 2363.85 5360.13 2382.27C5409.29 2401.95 5444.93 2421.61 5440.02 2426.52C5435.1 2431.44 4997.57 2566.63 4469.12 2727.62C3940.64 2887.39 3501.89 3022.58 3495.74 3027.5C3483.46 3033.65 3524.01 3194.64 3543.67 3215.54C3548.59 3221.68 4010.69 3086.49 4568.66 2916.9C5127.85 2746.06 5587.5 2609.65 5591.18 2612.1C5593.64 2615.78 5570.29 2679.69 5539.57 2755.89C5508.84 2832.09 5485.49 2896 5487.95 2898.46C5511.3 2916.9 5673.53 2967.28 5680.9 2958.67C5688.27 2950.08 5764.47 2763.26 5911.95 2393.34C5914.41 2384.73 5798.88 2331.89 5621.9 2260.6C5458.46 2195.47 5324.49 2142.63 5322.03 2142.63C5320.8 2142.63 5303.6 2184.41 5283.93 2234.79Z" fill="#151515"/>
<path d="M1417.52 2655.12C1042.67 2773.1 732.965 2872.65 730.506 2873.88C729.278 2876.34 741.568 2923.03 758.774 2975.88L791.956 3074.21L862.009 3052.08C1190.15 2952.54 2162.28 2641.59 2169.66 2635.46C2180.72 2625.61 2126.64 2446.18 2110.66 2442.5C2104.53 2441.27 1792.36 2535.91 1417.52 2655.12Z" fill="#151515"/>
<path d="M393.764 2978.34C313.88 3004.15 246.285 3027.5 243.827 3029.96C236.453 3036.11 286.842 3203.25 299.132 3216.76C307.734 3224.14 587.946 3146.71 603.923 3131.97C607.609 3129.51 546.16 2927.95 541.244 2930.41C540.015 2930.41 473.649 2952.54 393.764 2978.34Z" fill="#151515"/>
<path d="M735.426 3444.13C708.388 3456.42 669.06 3485.91 646.938 3508.04C567.054 3591.61 569.512 3571.94 569.512 4317.94V4993.89H323.713H77.9141V5276.56C77.9141 5589.95 82.83 5616.99 155.341 5693.18C237.683 5780.45 236.454 5780.45 780.898 5780.45C1266.35 5780.45 1268.81 5780.45 1276.18 5806.26C1289.7 5849.27 1370.82 5930.39 1423.66 5953.74C1488.79 5984.46 1616.61 5984.46 1681.75 5953.74C1734.6 5930.39 1815.72 5849.27 1829.23 5806.26L1836.6 5780.45H2978.34H4120.07L4127.44 5806.26C4140.97 5849.27 4222.08 5930.39 4274.93 5953.74C4306.89 5968.48 4352.36 5977.09 4403.98 5977.09C4455.59 5977.09 4501.06 5968.48 4533.02 5953.74C4585.87 5930.39 4666.98 5849.27 4680.5 5806.26C4687.88 5780.45 4690.33 5780.45 5222.48 5780.45C5811.17 5780.45 5807.48 5780.45 5889.83 5703.03C5970.94 5625.59 5977.09 5598.56 5977.09 5279.02V4993.89H5731.28H5485.49V4314.26C5485.49 3557.19 5487.94 3583 5398.23 3498.2C5309.75 3414.63 5499.01 3420.78 3025.04 3420.78C868.157 3420.78 782.128 3422.01 735.426 3444.13ZM962.79 3764.89V3912.37H1061.11H1159.43V3764.89V3617.42H1454.39H1749.35V3912.37V4207.33H1257.75H766.151V3968.91C766.151 3823.89 771.067 3715.74 779.669 3691.15C795.646 3645.68 846.036 3618.65 917.317 3617.42H962.79V3764.89ZM2142.63 3764.89V3912.37H2240.94H2339.26V3764.89V3617.42H2634.22H2929.18V3912.37V4207.33H2437.59H1945.98V3912.37V3617.42H2044.31H2142.63V3764.89ZM3322.46 3764.89V3912.37H3420.78H3519.09V3764.89V3617.42H3814.06H4109.02V3912.37V4207.33H3617.42H3125.82V3912.37V3617.42H3224.15H3322.46V3764.89ZM4502.3 3764.89V3912.37H4600.61H4698.93V3764.89V3617.42H4938.59C5212.65 3617.42 5251.98 3626.02 5275.33 3691.15C5283.94 3715.74 5288.85 3823.89 5288.85 3968.91V4207.33H4797.26H4305.65V3912.37V3617.42H4403.98H4502.3V3764.89ZM962.79 4551.45V4698.93H1061.11H1159.43V4551.45V4403.98H1454.39H1749.35V4698.93V4993.89H1257.75H766.151V4698.93V4403.98H864.47H962.79V4551.45ZM2142.63 4551.45V4698.93H2240.94H2339.26V4551.45V4403.98H2634.22H2929.18V4698.93V4993.89H2437.59H1945.98V4698.93V4403.98H2044.31H2142.63V4551.45ZM3322.46 4551.45V4698.93H3420.78H3519.09V4551.45V4403.98H3814.06H4109.02V4698.93V4993.89H3617.42H3125.82V4698.93V4403.98H3224.15H3322.46V4551.45ZM4502.3 4551.45V4698.93H4600.61H4698.93V4551.45V4403.98H4993.89H5288.85V4698.93V4993.89H4797.26H4305.65V4698.93V4403.98H4403.98H4502.3V4551.45ZM5780.45 5331.87C5780.45 5501.47 5765.7 5549.4 5706.71 5570.29C5678.44 5578.89 5510.07 5583.81 5177.01 5583.81C4690.33 5583.81 4687.88 5583.81 4680.5 5558C4666.98 5514.99 4585.87 5433.88 4533.02 5410.52C4467.88 5379.8 4340.07 5379.8 4274.93 5410.52C4222.08 5433.88 4140.97 5514.99 4127.44 5558L4120.07 5583.81H2978.34H1836.6L1829.23 5558C1815.72 5514.99 1734.6 5433.88 1681.75 5410.52C1616.61 5379.8 1488.79 5379.8 1423.66 5410.52C1370.82 5433.88 1289.7 5514.99 1276.18 5558C1268.81 5583.81 1265.13 5583.81 828.829 5583.81C532.642 5583.81 375.331 5578.89 348.292 5570.29C289.301 5549.4 274.553 5501.47 274.553 5331.87V5190.54H3027.5H5780.45V5331.87ZM1614.16 5620.68C1667 5673.52 1627.68 5768.16 1552.7 5768.16C1506.01 5768.16 1466.68 5728.83 1466.68 5682.13C1466.68 5635.42 1506.01 5596.1 1552.7 5596.1C1573.6 5596.1 1600.63 5607.16 1614.16 5620.68ZM4465.42 5620.68C4518.26 5673.52 4478.94 5768.16 4403.98 5768.16C4357.27 5768.16 4317.94 5728.83 4317.94 5682.13C4317.94 5635.42 4357.27 5596.1 4403.98 5596.1C4424.86 5596.1 4451.91 5607.16 4465.42 5620.68Z" fill="#151515"/>
</svg>
