<svg width="10957" height="10831" viewBox="0 0 10957 10831" fill="none" xmlns="http://www.w3.org/2000/svg">
<path d="M6322.58 2890.32V5780.64H6093.76C5798.71 5780.64 5642.15 5895.05 5672.25 6087.74L5690.32 6232.25L8273.54 6250.32C10302.8 6262.36 10868.8 6250.32 10911 6190.1C11049.5 5967.31 10862.8 5780.64 10501.5 5780.64H10236.6V2890.32V0.000184154H8279.56H6322.58V2890.32ZM7526.88 903.225V1204.3H7255.91H6984.94V903.225V602.15H7255.91H7526.88V903.225ZM8610.75 903.225V1204.3H8309.67H8008.6V903.225V602.15H8309.67H8610.75V903.225ZM9634.4 903.225V1204.3H9333.33H9032.25V903.225V602.15H9333.33H9634.4V903.225ZM7526.88 1926.88V2227.95H7255.91H6984.94V1926.88V1625.8H7255.91H7526.88V1926.88ZM8610.75 1926.88V2227.95H8309.67H8008.6V1926.88V1625.8H8309.67H8610.75V1926.88ZM9634.4 1926.88V2227.95H9333.33H9032.25V1926.88V1625.8H9333.33H9634.4V1926.88ZM7526.88 2980.64V3251.61H7255.91H6984.94V2980.64V2709.67H7255.91H7526.88V2980.64ZM8610.75 2980.64V3251.61H8309.67H8008.6V2980.64V2709.67H8309.67H8610.75V2980.64ZM9634.4 2980.64V3251.61H9333.33H9032.25V2980.64V2709.67H9333.33H9634.4V2980.64ZM7526.88 4004.3V4275.26H7255.91H6984.94V4004.3V3733.33H7255.91H7526.88V4004.3ZM8610.75 4004.3V4275.26H8309.67H8008.6V4004.3V3733.33H8309.67H8610.75V4004.3ZM9634.4 4004.3V4275.26H9333.33H9032.25V4004.3V3733.33H9333.33H9634.4V4004.3ZM7526.88 5058.06V5359.13H7255.91H6984.94V5058.06V4756.98H7255.91H7526.88V5058.06ZM8610.75 5268.81V5780.64H8309.67H8008.6V5268.81V4756.98H8309.67H8610.75V5268.81ZM9634.4 5058.06V5359.13H9333.33H9032.25V5058.06V4756.98H9333.33H9634.4V5058.06Z" fill="#151515"/>
<path d="M4546.23 1144.08C3986.23 1288.6 3721.29 1409.03 3245.59 1716.13C2806.02 1999.14 2300.21 2480.86 2065.38 2836.13C1981.07 2962.58 1902.79 3070.96 1896.77 3070.96C1890.75 3070.96 1818.49 2908.38 1746.24 2709.67C1673.98 2510.96 1595.7 2348.38 1571.61 2348.38C1553.55 2348.38 1475.27 2498.92 1403.01 2679.57L1264.52 3010.75L1481.29 3552.68C1601.72 3853.76 1722.15 4094.62 1752.26 4094.62C1830.54 4094.62 2727.74 3733.33 2806.02 3667.09C2896.34 3594.83 3095.05 3070.96 3046.88 3028.81C3028.82 3010.75 2902.36 3040.86 2769.89 3095.05C2535.05 3185.37 2529.03 3185.37 2583.22 3083.01C2613.33 3022.79 2830.11 2793.98 3064.94 2577.2C3685.16 1987.09 4636.56 1565.59 5335.05 1565.59C5804.73 1565.59 6033.54 1390.97 5901.07 1138.06C5846.88 1041.72 5768.6 1023.65 5401.29 1029.68C5160.43 1029.68 4781.07 1077.85 4546.23 1144.08Z" fill="#151515"/>
<path d="M662.365 7466.66V10357H427.527C192.688 10357 0 10477.4 0 10615.9C6.0215 10838.7 30.1075 10838.7 2685.59 10826.7L5268.81 10808.6L5286.88 10664.1C5316.98 10471.4 5160.43 10357 4865.37 10357H4636.56V7466.66V4576.34H2649.46H662.365V7466.66ZM1926.88 5479.56V5780.64H1625.81H1324.73V5479.56V5178.49H1625.81H1926.88V5479.56ZM2950.54 5479.56V5780.64H2649.46H2348.39V5479.56V5178.49H2649.46H2950.54V5479.56ZM3974.19 5479.56V5780.64H3703.22H3432.26V5479.56V5178.49H3703.22H3974.19V5479.56ZM1926.88 6503.22V6804.29H1625.81H1324.73V6503.22V6202.14H1625.81H1926.88V6503.22ZM2950.54 6503.22V6804.29H2649.46H2348.39V6503.22V6202.14H2649.46H2950.54V6503.22ZM3974.19 6503.22V6804.29H3703.22H3432.26V6503.22V6202.14H3703.22H3974.19V6503.22ZM1926.88 7556.98V7827.95H1625.81H1324.73V7556.98V7286.01H1625.81H1926.88V7556.98ZM2950.54 7556.98V7827.95H2649.46H2348.39V7556.98V7286.01H2649.46H2950.54V7556.98ZM3974.19 7556.98V7827.95H3703.22H3432.26V7556.98V7286.01H3703.22H3974.19V7556.98ZM1926.88 8580.64V8851.6H1625.81H1324.73V8580.64V8309.67H1625.81H1926.88V8580.64ZM2950.54 8580.64V8851.6H2649.46H2348.39V8580.64V8309.67H2649.46H2950.54V8580.64ZM3974.19 8580.64V8851.6H3703.22H3432.26V8580.64V8309.67H3703.22H3974.19V8580.64ZM1926.88 9634.4V9935.47H1625.81H1324.73V9634.4V9333.32H1625.81H1926.88V9634.4ZM2950.54 9845.15V10357H2649.46H2348.39V9845.15V9333.32H2649.46H2950.54V9845.15ZM3974.19 9634.4V9935.47H3703.22H3432.26V9634.4V9333.32H3703.22H3974.19V9634.4Z" fill="#151515"/>
<path d="M8972.03 7069.24C8472.25 7249.89 8454.18 7261.93 8297.62 7581.07C8201.28 7761.71 8141.06 7918.27 8159.13 7936.34C8171.17 7948.38 8297.62 7918.27 8436.12 7864.08C8574.61 7809.88 8701.06 7773.76 8713.11 7791.82C8731.17 7803.86 8580.63 7978.49 8381.92 8171.17C7719.56 8809.45 6942.79 9176.77 6039.56 9267.09C5756.55 9297.2 5503.65 9345.37 5467.52 9381.5C5437.41 9411.6 5419.35 9513.97 5431.39 9610.31C5449.45 9778.92 5455.48 9784.94 5858.92 9803C6358.7 9827.09 7057.19 9664.51 7617.19 9393.54C8104.94 9158.7 8815.47 8604.72 9092.46 8231.39C9206.87 8080.85 9315.26 7948.38 9333.32 7948.38C9357.41 7948.38 9405.58 8050.74 9447.73 8171.17C9658.48 8749.24 9634.4 8737.2 9815.04 8345.8L9977.62 7990.53L9784.93 7442.57C9676.55 7147.52 9562.14 6894.62 9538.05 6888.6C9507.95 6882.57 9255.04 6960.85 8972.03 7069.24Z" fill="#151515"/>
</svg>
