<svg width="5191" height="3592" viewBox="0 0 5191 3592" fill="none" xmlns="http://www.w3.org/2000/svg">
<path d="M2895.53 2619C2839.26 2593.42 2781.29 2586.6 2719.91 2586.6C2370.37 2586.6 2019.12 2586.6 1669.58 2586.6C1309.81 2586.6 951.742 2586.6 591.97 2586.6C503.306 2586.6 453.859 2547.39 431.693 2460.43C421.462 2417.8 411.232 2376.88 399.296 2334.25C268.005 1810.79 138.419 1285.63 7.12834 760.465C0.308026 734.889 -3.10208 711.018 3.71823 685.441C20.769 618.943 77.0365 574.611 143.535 574.611C215.148 574.611 266.3 618.943 286.761 697.377C416.347 1215.72 545.933 1734.06 673.814 2254.11C682.339 2289.92 695.98 2300.15 733.491 2300.15C1345.61 2298.45 1957.74 2298.45 2569.86 2300.15C2610.78 2300.15 2627.83 2289.92 2641.47 2249C2743.78 1913.1 2851.2 1577.2 2955.21 1239.59C3074.56 864.475 3192.21 487.652 3309.86 112.535C3333.74 37.5117 3383.18 0 3458.21 0C3598.02 0 3736.13 0 3875.95 0C3964.61 1.70508 4027.7 63.0879 4026 144.932C4026 226.775 3961.2 288.158 3874.25 288.158C3787.29 288.158 3700.33 289.863 3613.37 286.453C3570.74 284.748 3551.99 296.684 3540.05 339.311C3338.85 988.945 3134.24 1638.58 2931.34 2288.22C2921.11 2322.32 2931.34 2329.14 2960.32 2339.37C3166.64 2409.28 3306.45 2590.01 3308.16 2787.8C3311.57 3033.33 3144.47 3236.24 2895.53 3287.39C2871.66 3292.51 2852.9 3295.92 2840.97 3323.2C2769.35 3492 2639.77 3585.78 2455.62 3590.89C2268.06 3596.01 2133.36 3503.94 2053.22 3336.84C2041.29 3312.97 2031.06 3304.44 2003.77 3304.44C1817.92 3306.15 1632.07 3304.44 1446.21 3304.44C1422.34 3304.44 1410.41 3309.56 1400.18 3333.43C1321.74 3498.82 1192.16 3590.89 1008.01 3590.89C823.861 3590.89 694.275 3498.82 615.841 3335.13C603.906 3309.56 590.265 3304.44 564.689 3304.44C476.025 3306.15 387.361 3304.44 300.402 3304.44C210.033 3304.44 145.24 3243.06 145.24 3159.51C145.24 3075.96 210.033 3016.28 302.107 3016.28C392.476 3016.28 481.14 3016.28 571.509 3016.28C593.675 3016.28 603.906 3011.17 614.136 2989C692.57 2823.61 822.156 2731.54 1004.6 2729.83C1190.45 2728.13 1321.74 2821.9 1400.18 2989C1410.41 3009.46 1420.64 3016.28 1442.8 3016.28C1632.07 3016.28 1819.63 3016.28 2008.89 3016.28C2031.06 3016.28 2042.99 3009.46 2051.52 2987.3C2073.68 2932.73 2107.78 2884.99 2150.41 2844.07C2360.14 2647.99 2696.04 2705.96 2827.33 2963.43C2835.85 2980.48 2835.85 3004.35 2869.95 2992.41C2951.8 2961.72 3011.48 2893.52 3018.3 2811.67C3025.12 2733.24 2979.08 2658.22 2895.53 2619ZM1004.6 3004.35C919.345 3006.05 847.732 3079.37 849.437 3162.92C851.142 3251.58 922.755 3321.49 1011.42 3319.79C1096.67 3318.08 1168.29 3244.76 1166.58 3161.21C1164.88 3072.55 1093.26 3002.64 1004.6 3004.35ZM2441.98 3004.35C2356.73 3004.35 2285.11 3077.67 2286.82 3162.92C2288.52 3251.58 2360.14 3321.49 2447.1 3321.49C2532.35 3321.49 2603.96 3246.47 2602.26 3162.92C2602.26 3072.55 2530.64 3002.64 2441.98 3004.35Z" fill="black"/>
<path d="M3692.44 1012.84C3692.44 1151.11 3853.75 1185.68 4441.37 1185.68C5028.99 1185.68 5190.3 1151.11 5190.3 1012.84C5190.3 874.568 5028.99 840 4441.37 840C3853.75 840 3692.44 874.568 3692.44 1012.84Z" fill="#151515"/>
<path d="M3462 1934.65C3462 2072.92 3611.79 2107.49 4095.71 2107.49C4579.63 2107.49 4729.42 2072.92 4729.42 1934.65C4729.42 1796.38 4579.63 1761.81 4095.71 1761.81C3611.79 1761.81 3462 1796.38 3462 1934.65Z" fill="#151515"/>
<rect x="865.5" y="1469.5" width="844" height="807" stroke="black" stroke-width="183"/>
<rect x="1520" y="830" width="892" height="478" stroke="black" stroke-width="140"/>
<rect x="1875.5" y="1452.5" width="765" height="841" stroke="black" stroke-width="149"/>
<path d="M169 658.5L3215 509.5" stroke="black" stroke-width="200"/>
</svg>
