<svg width="5191" height="5558" viewBox="0 0 5191 5558" fill="none" xmlns="http://www.w3.org/2000/svg">
<path d="M2895.53 4585C2839.26 4559.42 2781.29 4552.6 2719.91 4552.6C2370.37 4552.6 2019.12 4552.6 1669.58 4552.6C1309.81 4552.6 951.742 4552.6 591.97 4552.6C503.306 4552.6 453.859 4513.39 431.693 4426.43C421.462 4383.8 411.232 4342.88 399.296 4300.25C268.005 3776.79 138.419 3251.63 7.12834 2726.46C0.308026 2700.89 -3.10208 2677.02 3.71823 2651.44C20.769 2584.94 77.0365 2540.61 143.535 2540.61C215.148 2540.61 266.3 2584.94 286.761 2663.38C416.347 3181.72 545.933 3700.06 673.814 4220.11C682.339 4255.92 695.98 4266.15 733.491 4266.15C1345.61 4264.45 1957.74 4264.45 2569.86 4266.15C2610.78 4266.15 2627.83 4255.92 2641.47 4215C2743.78 3879.1 2851.2 3543.2 2955.21 3205.59C3074.56 2830.47 3192.21 2453.65 3309.86 2078.54C3333.74 2003.51 3383.18 1966 3458.21 1966C3598.02 1966 3736.13 1966 3875.95 1966C3964.61 1967.71 4027.7 2029.09 4026 2110.93C4026 2192.78 3961.2 2254.16 3874.25 2254.16C3787.29 2254.16 3700.33 2255.86 3613.37 2252.45C3570.74 2250.75 3551.99 2262.68 3540.05 2305.31C3338.85 2954.95 3134.24 3604.58 2931.34 4254.22C2921.11 4288.32 2931.34 4295.14 2960.32 4305.37C3166.64 4375.28 3306.45 4556.01 3308.16 4753.8C3311.57 4999.33 3144.47 5202.24 2895.53 5253.39C2871.66 5258.51 2852.9 5261.92 2840.97 5289.2C2769.35 5458 2639.77 5551.78 2455.62 5556.89C2268.06 5562.01 2133.36 5469.94 2053.22 5302.84C2041.29 5278.97 2031.06 5270.44 2003.77 5270.44C1817.92 5272.15 1632.07 5270.44 1446.21 5270.44C1422.34 5270.44 1410.41 5275.56 1400.18 5299.43C1321.74 5464.82 1192.16 5556.89 1008.01 5556.89C823.861 5556.89 694.275 5464.82 615.841 5301.13C603.906 5275.56 590.265 5270.44 564.689 5270.44C476.025 5272.15 387.361 5270.44 300.402 5270.44C210.033 5270.44 145.24 5209.06 145.24 5125.51C145.24 5041.96 210.033 4982.28 302.107 4982.28C392.476 4982.28 481.14 4982.28 571.509 4982.28C593.675 4982.28 603.906 4977.17 614.136 4955C692.57 4789.61 822.156 4697.54 1004.6 4695.83C1190.45 4694.13 1321.74 4787.9 1400.18 4955C1410.41 4975.46 1420.64 4982.28 1442.8 4982.28C1632.07 4982.28 1819.63 4982.28 2008.89 4982.28C2031.06 4982.28 2042.99 4975.46 2051.52 4953.3C2073.68 4898.73 2107.78 4850.99 2150.41 4810.07C2360.14 4613.99 2696.04 4671.96 2827.33 4929.43C2835.85 4946.48 2835.85 4970.35 2869.95 4958.41C2951.8 4927.72 3011.48 4859.52 3018.3 4777.67C3025.12 4699.24 2979.08 4624.22 2895.53 4585ZM1004.6 4970.35C919.345 4972.05 847.732 5045.37 849.437 5128.92C851.142 5217.58 922.755 5287.49 1011.42 5285.79C1096.67 5284.08 1168.29 5210.76 1166.58 5127.21C1164.88 5038.55 1093.26 4968.64 1004.6 4970.35ZM2441.98 4970.35C2356.73 4970.35 2285.11 5043.67 2286.82 5128.92C2288.52 5217.58 2360.14 5287.49 2447.1 5287.49C2532.35 5287.49 2603.96 5212.47 2602.26 5128.92C2602.26 5038.55 2530.64 4968.64 2441.98 4970.35Z" fill="black"/>
<path d="M3692.44 2978.84C3692.44 3117.11 3853.75 3151.68 4441.37 3151.68C5028.99 3151.68 5190.3 3117.11 5190.3 2978.84C5190.3 2840.57 5028.99 2806 4441.37 2806C3853.75 2806 3692.44 2840.57 3692.44 2978.84Z" fill="#151515"/>
<path d="M3462 3900.65C3462 4038.92 3611.79 4073.49 4095.71 4073.49C4579.63 4073.49 4729.42 4038.92 4729.42 3900.65C4729.42 3762.38 4579.63 3727.81 4095.71 3727.81C3611.79 3727.81 3462 3762.38 3462 3900.65Z" fill="#151515"/>
<rect x="865.5" y="3435.5" width="844" height="807" stroke="black" stroke-width="183"/>
<rect x="1520" y="2796" width="892" height="478" stroke="black" stroke-width="140"/>
<rect x="1875.5" y="3418.5" width="765" height="841" stroke="black" stroke-width="149"/>
<path d="M169 2624.5L3215 2475.5" stroke="black" stroke-width="200"/>
<path fill-rule="evenodd" clip-rule="evenodd" d="M1620.11 1304.85C1764.47 1304.85 1895.31 1362.94 1990.06 1456.69C2084.99 1550.48 2143.6 1680.15 2143.6 1823.36C2143.6 1897.08 2128.05 1967.24 2100.04 2030.78C2237.89 2015.69 2370.81 1967.15 2485.26 1890.36C2648.08 1781.12 2773.8 1614.33 2823.6 1405.27C2827.34 1389.55 2830.61 1373.69 2833.52 1357.74L2715.65 1360.2C2701.3 1359.84 2690.91 1355.22 2684.78 1346.49C2667.93 1322.59 2689.9 1298.23 2704.8 1280.99C2747.4 1232.45 2857.57 1082.67 2878.42 1057.03C2881.69 1052.77 2885.89 1049.28 2890.7 1046.85C2895.51 1044.41 2900.81 1043.08 2906.21 1042.95C2917.1 1042.76 2927.58 1047.52 2934.54 1055.84C2957.44 1081.25 3079.51 1231.31 3122.15 1276.74C3136.92 1292.46 3155.24 1314.17 3140.66 1336.8C3134.98 1345.85 3124.83 1350.88 3110.43 1351.84L2997.58 1354.26C2993.2 1384.38 2987.67 1413.5 2980.97 1441.61C2921.39 1691.85 2770.8 1891.51 2575.67 2022.46C2402.88 2138.33 2194.97 2200.16 1984.48 2195.41C1890.19 2285.96 1761.7 2341.81 1620.11 2341.81C1475.7 2341.81 1344.91 2283.72 1250.16 2189.97C1155.23 2096.18 1096.57 1966.47 1096.57 1823.36C1096.57 1680.15 1155.23 1550.48 1249.88 1456.69C1344.59 1362.94 1475.52 1304.85 1620.11 1304.85ZM1975.43 2009.93C1907.91 2135.81 1774.16 2221.56 1620.16 2221.56C1466.06 2221.56 1332.27 2135.72 1264.75 2009.66C1273.19 2004.18 1282.79 1999.15 1290.73 1994.85C1344.5 1965.18 1470.12 1967.38 1514.15 1928.11L1567.45 2086.4L1573.68 2097.92L1597.5 2030.73L1581.43 2013.32C1569.3 1995.76 1573.5 1975.92 1595.88 1972.31C1603.45 1971.13 1611.94 1971.86 1620.2 1971.86C1628.88 1971.86 1638.62 1971.04 1646.83 1972.86C1667.69 1977.43 1669.81 1997.41 1659.48 2013.32L1643.37 2030.73L1666.17 2095.04L1670.74 2086.4L1734.06 1928.11C1773.75 1963.54 1913.68 1970.62 1957.43 1994.85L1975.43 2009.93ZM1532.65 1900.83C1514.98 1885.33 1501.09 1874.05 1498.09 1841.82L1496.19 1841.87C1491.81 1841.82 1487.61 1840.86 1483.68 1838.62C1477.36 1835.06 1472.89 1828.93 1469.88 1822.03C1463.56 1807.59 1458.53 1769.56 1474.5 1758.77L1471.18 1752.6C1470.58 1744.92 1470.4 1735.69 1470.3 1725.91C1469.66 1690.25 1468.92 1646.92 1439.94 1638.24L1427.43 1634.5L1435.74 1624.49C1459.09 1595.83 1483.59 1570.68 1508.38 1551.49C1536.26 1529.64 1564.63 1515.15 1592.42 1510.95C1620.99 1506.65 1648.73 1513.19 1674.25 1533.62C1681.77 1539.7 1689.15 1546.96 1696.17 1555.46C1723.49 1558.07 1745.73 1572.6 1761.66 1593.4C1771.16 1605.74 1778.36 1620.41 1782.98 1636C1787.59 1651.5 1789.58 1668.04 1788.7 1684.32C1787.18 1713.43 1776.42 1741.86 1754.74 1762.61C1758.57 1762.75 1762.12 1763.62 1765.3 1765.26C1777.4 1771.7 1777.81 1785.6 1774.58 1797.35C1771.44 1807.09 1767.52 1818.42 1763.73 1827.88C1759.12 1840.73 1752.47 1843.14 1739.5 1841.73C1738.86 1873.5 1724.09 1882.23 1704.15 1900.83C1690.26 1941.33 1548.99 1940.37 1532.65 1900.83ZM2826.32 740.87C2751.93 845.584 2629.03 914.01 2489.97 914.01C2348.84 914.01 2224.37 843.529 2150.34 736.207C2174.99 647.672 2273.94 665.864 2364.4 608.547C2399.42 701.882 2574.24 702.064 2613.57 608.547C2705.45 666.732 2777.87 656.174 2826.32 740.87ZM1023.56 1094.83L1024.11 1089.12C1058.54 807.238 1204.01 580.437 1404.12 429.832C1589.47 290.241 1821.98 216.607 2056.33 225.52C2074.66 199.101 2095.33 174.419 2118.13 151.839C2212.83 58.094 2343.76 0 2488.35 0C2632.71 0 2763.55 58.094 2858.3 151.839C2953.24 245.631 3011.84 375.303 3011.84 518.504C3011.84 661.613 2953.24 791.329 2858.53 885.122L2854.89 888.461C2760.42 980.238 2631.01 1036.96 2488.35 1036.96C2343.95 1036.96 2213.16 978.871 2118.36 885.122C2023.48 791.329 1964.82 661.613 1964.82 518.504C1964.82 472.385 1970.9 427.729 1982.3 385.175C1808.55 392.489 1639.4 453.005 1501.41 556.898C1337.43 680.307 1217.44 865.648 1186.2 1096.24L1295.16 1097.25C1308.96 1098.02 1318.74 1102.74 1324.42 1111.37C1339.93 1134.82 1318.1 1157.63 1303.28 1173.72C1260.78 1219.19 1150.38 1360.11 1129.57 1384.16C1126.31 1388.16 1122.19 1391.38 1117.49 1393.58C1112.8 1395.78 1107.67 1396.91 1102.48 1396.86C1097.27 1396.83 1092.14 1395.63 1087.48 1393.34C1082.82 1391.05 1078.74 1387.74 1075.57 1383.65C1054.3 1358.56 941.364 1210.65 901.673 1165.72C887.92 1150.18 870.983 1128.78 885.659 1107.4C891.382 1098.89 901.305 1094.32 915.15 1093.82L1023.56 1094.83ZM2488.35 60.0137C2744.03 60.0137 2951.3 265.285 2951.3 518.504C2951.3 771.673 2744.03 976.944 2488.35 976.944C2232.67 976.944 2025.36 771.673 2025.36 518.504C2025.36 265.285 2232.67 60.0137 2488.35 60.0137ZM2397.85 602.057C2396.47 599.588 2402.33 583.773 2403.81 581.26C2386.64 566.13 2373.07 550.91 2370.16 519.463L2368.32 519.509C2364.12 519.463 2359.96 518.504 2356.18 516.309C2349.99 512.881 2345.7 506.894 2342.75 500.22C2336.56 486.143 2331.67 449.12 2347.27 438.516L2344.32 436.642L2343.99 432.528C2343.39 425.078 2343.25 416.074 2343.12 406.612C2342.56 371.829 2341.83 341.159 2313.58 332.704L2301.44 329.093L2309.42 319.312C2332.27 291.338 2356.13 266.93 2380.17 248.191C2407.36 226.937 2435.05 212.859 2462.1 208.745C2489.88 204.586 2516.88 210.893 2541.75 230.822C2549.09 236.718 2556.24 243.757 2563.12 252.076C2589.7 254.59 2611.4 268.805 2626.9 289.007C2636.18 301.074 2643.19 315.335 2647.67 330.509C2652.15 345.639 2654.04 361.728 2653.25 377.588C2651.73 405.926 2641.26 422.107 2620.16 442.31C2623.85 442.446 2627.37 443.315 2630.45 444.915C2642.22 451.177 2642.59 464.752 2639.5 476.133C2636.45 485.595 2632.58 496.61 2628.88 505.888C2624.46 518.413 2617.9 520.743 2605.35 519.372C2604.71 550.27 2590.3 565.445 2570.87 583.591L2575.25 598.812C2563.03 657.636 2432.97 664.036 2397.85 602.057ZM1620.11 1364.87C1875.79 1364.87 2083.06 1570.14 2083.06 1823.36C2083.06 2076.53 1875.79 2281.8 1620.11 2281.8C1364.43 2281.8 1157.17 2076.53 1157.17 1823.36C1157.17 1570.14 1364.43 1364.87 1620.11 1364.87Z" fill="black"/>
</svg>
