<svg id="Layer_1" data-name="Layer 1" xmlns="http://www.w3.org/2000/svg" viewBox="0 0 122.88 122.88"><defs><style>.cls-1{fill-rule:evenodd;}</style></defs><title>share-square</title><path class="cls-1" d="M20,0h82.88a20.06,20.06,0,0,1,20,20v82.88a20.06,20.06,0,0,1-20,20H20a20.06,20.06,0,0,1-20-20V20A20.06,20.06,0,0,1,20,0ZM79.6,30h0a12.88,12.88,0,1,1-8.25,22.77L54.24,59.92a14.13,14.13,0,0,1,.1,1.46l17.78,8.19A12.77,12.77,0,1,1,67,77.12L51.25,69.84a12.88,12.88,0,1,1-1.16-17.92l16.79-7a12.41,12.41,0,0,1-.16-2A12.88,12.88,0,0,1,79.6,30Z"/></svg>