<svg width="12495" height="7560" viewBox="0 0 12495 7560" fill="none" xmlns="http://www.w3.org/2000/svg">
<g clip-path="url(#clip0_36_177)">
<path fill-rule="evenodd" clip-rule="evenodd" d="M9601.06 1904.75L7772.77 1894.58V664.068C7772.77 481.017 7698.54 315.254 7577.53 195.254C7457.55 74.2373 7291.8 0 7108.77 0H2040.81C1857.78 0 1692.03 74.2373 1572.04 195.254C1452.06 315.254 1376.81 481.017 1376.81 664.068C1376.81 763.729 1457.14 844.068 1556.79 844.068C1656.44 844.068 1736.77 763.729 1736.77 664.068C1736.77 580.678 1771.35 504.407 1826.25 449.492C1881.16 394.576 1957.43 360 2040.81 360H7108.77C7192.15 360 7268.41 394.576 7323.32 449.492C7378.23 504.407 7412.81 580.678 7412.81 664.068V6298.98H6397.99C6298.34 6298.98 6218.01 6379.32 6218.01 6478.98C6218.01 6578.64 6298.34 6658.98 6397.99 6658.98H7592.79C7692.44 6658.98 7772.77 6578.64 7772.77 6478.98V6274.58H8858.76C8941.12 4401.36 11630.7 4143.05 11904.2 6274.58H12495L12313 4320L10373.9 3577.63L9601.06 1904.75ZM269.464 3817.63C119.988 3817.63 0 3736.27 0 3636.61C0 3536.95 121.005 3455.59 269.464 3455.59H2698.71C2848.18 3455.59 2968.17 3536.95 2968.17 3636.61C2968.17 3736.27 2847.17 3817.63 2698.71 3817.63H269.464ZM825.679 2843.39C713.826 2843.39 623.326 2763.05 623.326 2663.39C623.326 2563.73 713.826 2483.39 825.679 2483.39H2699.73C2811.58 2483.39 2902.08 2563.73 2902.08 2663.39C2902.08 2763.05 2811.58 2843.39 2699.73 2843.39H825.679ZM1082.94 1869.15C971.088 1869.15 880.588 1788.81 880.588 1689.15C880.588 1589.49 971.088 1509.15 1082.94 1509.15H2698.71C2810.56 1509.15 2901.06 1589.49 2901.06 1689.15C2901.06 1788.81 2810.56 1869.15 2698.71 1869.15H1082.94ZM2690.57 6297.97C2790.22 6297.97 2870.56 6378.31 2870.56 6477.97C2870.56 6577.63 2790.22 6657.97 2690.57 6657.97H2040.81C1858.79 6657.97 1693.05 6578.64 1572.04 6453.56C1452.06 6328.47 1376.81 6157.63 1376.81 5976.61V4654.58C1376.81 4554.92 1457.14 4474.58 1556.79 4474.58C1656.44 4474.58 1736.77 4554.92 1736.77 4654.58V5976.61C1736.77 6063.05 1772.36 6145.42 1830.32 6205.42C1885.23 6262.37 1959.46 6298.98 2039.79 6298.98H2690.57V6297.97ZM4520.9 5122.37C3847.74 5122.37 3301.7 5668.47 3301.7 6341.7C3301.7 7014.92 3847.74 7561.02 4520.9 7561.02C5194.05 7561.02 5740.09 7014.92 5740.09 6341.7C5739.08 5668.47 5194.05 5122.37 4520.9 5122.37ZM4520.9 5872.88C4262.62 5872.88 4052.13 6082.37 4052.13 6341.7C4052.13 6600 4261.6 6810.51 4520.9 6810.51C4779.17 6810.51 4989.66 6601.02 4989.66 6341.7C4988.64 6082.37 4779.17 5872.88 4520.9 5872.88ZM10377.9 5122.37C9704.78 5122.37 9158.73 5668.47 9158.73 6341.7C9158.73 7014.92 9704.78 7561.02 10377.9 7561.02C11051.1 7561.02 11597.1 7014.92 11597.1 6341.7C11597.1 5668.47 11051.1 5122.37 10377.9 5122.37ZM10377.9 5872.88C10119.6 5872.88 9909.16 6082.37 9909.16 6341.7C9909.16 6600 10118.6 6810.51 10377.9 6810.51C10637.2 6810.51 10846.7 6601.02 10846.7 6341.7C10846.7 6082.37 10637.2 5872.88 10377.9 5872.88ZM9130.26 2421.36L8222.21 2411.19V3579.66H9744.43L9130.26 2421.36Z" fill="black"/>
</g>
<defs>
<clipPath id="clip0_36_177">
<rect width="12495" height="7560" fill="white"/>
</clipPath>
</defs>
</svg>
