<svg width="13492" height="7921" viewBox="0 0 13492 7921" fill="none" xmlns="http://www.w3.org/2000/svg">
<g clip-path="url(#clip0_36_180)">
<path fill-rule="evenodd" clip-rule="evenodd" d="M10410 2889.55L6730.63 6737.52L4691.68 4843.72L4902.49 4548.4L6395.74 5928.4L6414.41 5945.96C6482.86 6008.23 6573.24 6040.78 6665.68 6036.45C6758.12 6032.13 6845.06 5991.29 6907.4 5922.91L7027.08 5786.78L7594.74 5159.9L10101.4 2604.1L10410 2889.55ZM10562.6 4806.39V4062.05C10562.1 4055.84 10562.1 4049.6 10562.6 4043.39C10575.8 3714.03 10796.5 3604.25 11094 3699.76C11110.2 3705.37 11125.4 3713.52 11139 3723.91C11890 4313.46 12589.5 4901.91 13335 5491.45L13344.9 5501.33C13397.9 5540.88 13438.6 5594.73 13462.1 5656.56C13485.6 5718.39 13491.1 5785.65 13477.7 5850.45C13446.5 5959.55 13378.7 6054.55 13285.6 6119.43L11267.5 7753.03C10911.7 8032.98 10540.6 7980.28 10540.6 7465.39C10540.6 7235.94 10540.6 7004.29 10540.6 6774.84H7674.89L9561.23 4798.71L10562.6 4806.39ZM3352.14 3629.5C3352.14 3809.55 3368.61 4031.31 3352.14 4206.97C3348.4 4274.19 3335.85 4340.63 3314.81 4404.58C3279.04 4519.45 3205.03 4618.63 3105.09 4685.63C3007.01 4747.96 2891.68 4777.56 2775.7 4770.17C2696.19 4764.61 2617.84 4747.98 2542.93 4720.76C2523.66 4714.18 2504.94 4706.1 2486.93 4696.61C2469.45 4686.65 2452.59 4675.65 2436.42 4663.67C2075.18 4380.43 1700.77 4075.23 1325.26 3771.12C976.105 3486.78 625.849 3202.43 236.065 2892.84L214.106 2873.08C132.832 2805.76 69.4643 2719.4 29.6448 2621.67L23.057 2599.71C-3.75314 2511.72 -7.15906 2418.26 13.1751 2328.54C33.4259 2246.6 70.8509 2169.88 122.973 2103.48C170.079 2041.36 225.074 1985.63 286.573 1937.71C965.125 1427.21 1627.21 832.172 2305.76 305.203C2454.52 177.326 2641.31 102.078 2837.18 91.1217C2912.87 90.3433 2987.81 106.079 3056.78 137.231C3127.2 169.467 3188.93 218.015 3236.85 278.854C3335.15 417.232 3383.89 584.717 3375.2 754.224V1232.89H6108.07L5702.92 1656.66H3157.79C3130.02 1656.37 3102.57 1650.6 3077.03 1639.67C3051.49 1628.74 3028.36 1612.88 3008.97 1592.98C2989.59 1573.09 2974.33 1549.56 2964.06 1523.75C2953.8 1497.94 2948.74 1470.35 2949.18 1442.58C2949.18 1284.49 2949.18 1124.2 2949.18 966.109V754.224C2956.35 679.536 2939.42 604.514 2900.87 540.143C2894.64 532.024 2886.79 525.294 2877.81 520.382C2864.86 515.422 2851.03 513.179 2837.18 513.795C2735.9 525.293 2640.91 568.745 2565.98 637.852L548.99 2270.36C516.761 2294.55 487.953 2322.98 463.348 2354.89C447.889 2373.9 436.66 2395.98 430.408 2419.67C426.483 2436.27 426.483 2453.56 430.408 2470.17V2480.05C445.468 2513.91 467.989 2543.94 496.287 2567.87C852.033 2846.73 1222.05 3146.44 1594.27 3446.16C1966.48 3745.87 2300.27 4020.33 2692.25 4324.44C2725.75 4335.08 2760.4 4341.71 2795.46 4344.2C2824.06 4346.97 2852.83 4340.83 2877.81 4326.63C2898.23 4311.89 2912.96 4290.57 2919.53 4266.25C2927.98 4238.78 2933.14 4210.4 2934.9 4181.72V3413.22C2935.74 3358.83 2957.57 3306.86 2995.83 3268.19C3034.1 3229.52 3085.84 3207.14 3140.23 3205.73H4221.74L3834.15 3611.93L3818.78 3629.5H3352.14ZM10309 1893.79L6630.71 5741.76L4591.76 3847.97L8271.1 0L10309 1893.79ZM7986.72 2706.2C8029.06 2823.89 8035.55 2951.48 8005.37 3072.86C7975.19 3194.23 7909.69 3303.93 7817.15 3388.08C7724.62 3472.23 7609.21 3527.06 7485.51 3545.63C7361.81 3564.19 7235.39 3545.67 7122.22 3492.39C7009.05 3439.11 6914.22 3353.48 6849.73 3246.32C6785.24 3139.16 6753.97 3015.28 6759.89 2890.35C6765.81 2765.42 6808.64 2645.05 6882.98 2544.47C6957.31 2443.88 7059.81 2367.59 7177.51 2325.25C7255.66 2297.13 7338.58 2284.69 7421.54 2288.62C7504.5 2292.54 7585.88 2312.77 7661.02 2348.15C7736.17 2383.52 7803.6 2433.35 7859.49 2494.79C7915.37 2556.22 7958.6 2628.06 7986.72 2706.2ZM9389.94 2267.06L6931.56 4794.32C6851.53 4720.4 6745.47 4681.21 6636.61 4685.32C6527.74 4689.44 6424.94 4736.53 6350.73 4816.28L5544.81 4068.64C5618.73 3988.62 5657.93 3882.58 5653.82 3773.72C5649.7 3664.87 5602.61 3562.08 5522.85 3487.87L7981.23 952.935C8020.83 990.005 8067.39 1018.86 8118.21 1037.84C8169.03 1056.81 8223.11 1065.53 8277.32 1063.49C8331.53 1061.45 8384.8 1048.69 8434.05 1025.94C8483.3 1003.2 8527.55 970.921 8564.26 930.978L9371.27 1679.71C9297.14 1759.77 9257.72 1865.92 9261.63 1974.95C9265.54 2083.98 9312.46 2187.03 9392.14 2261.57L9389.94 2267.06Z" fill="black"/>
</g>
<defs>
<clipPath id="clip0_36_180">
<rect width="13492" height="7921" fill="white"/>
</clipPath>
</defs>
</svg>
