<svg width="3664" height="3664" viewBox="0 0 3664 3664" fill="none" xmlns="http://www.w3.org/2000/svg">
<g clip-path="url(#clip0_25_122)">
<mask id="mask0_25_122" style="mask-type:luminance" maskUnits="userSpaceOnUse" x="0" y="0" width="3664" height="3664">
<path d="M3664 0H0V3664H3664V0Z" fill="white"/>
</mask>
<g mask="url(#mask0_25_122)">
<path d="M103.767 13.5969C88.023 20.7531 62.9762 39.3593 48.6637 54.3875C-3.57696 109.491 0.00115824 35.0656 0.00115824 1039.09C0.00115824 1899.27 0.716784 1944.35 13.598 1971.55C30.773 2009.47 67.2699 2045.25 107.345 2063.87C135.97 2076.75 156.007 2078.9 281.241 2081.05L422.22 2083.9V2873.95V3664H1832H3241.78V3234.63V2805.25H3177.38H3112.97V3170.22V3535.2H1832H551.033V2808.83V2083.18L1061.27 2081.05C1631.63 2078.9 1597.99 2081.75 1655.96 2026.65C1714.64 1970.83 1710.35 2040.97 1710.35 1157.17V372.125H2043.1H2375.88V737.095V1102.06H2744.42H3112.97V1531.44V1960.82H3177.38H3241.78V1487.07V1012.61L2857.5 628.32L2472.48 243.312H2091.77H1710.35V189.64C1710.35 159.584 1706.05 125.234 1700.33 111.638C1686.01 76.5718 1642.36 31.4875 1607.3 15.0281C1577.24 0 1569.37 0 854.458 0C166.026 0 130.96 0.715625 103.767 13.5969ZM1565.07 144.556L1581.53 159.584V1037.66V1915.73L1562.93 1932.9L1544.32 1950.08H855.173H166.026L147.42 1932.9L128.814 1915.73V1038.37V161.731L144.557 145.272L159.585 128.813H854.458H1548.61L1565.07 144.556ZM2762.32 719.203L3016.35 973.25H2760.17H2504.7V719.203C2504.7 579.657 2505.4 465.157 2506.83 465.157C2507.55 465.157 2622.77 579.657 2762.32 719.203Z" fill="#151515"/>
<path d="M178.906 397.171V615.437H855.173H1531.44V397.171V178.906H855.173H178.906V397.171ZM1402.63 397.171V486.624H855.173H307.719V397.171V307.719H855.173H1402.63V397.171Z" fill="#151515"/>
<path d="M327.04 676.266C311.297 681.276 291.26 693.441 281.24 702.743C247.605 734.231 243.312 751.406 243.312 857.318C243.312 948.918 244.743 958.938 259.772 981.123C295.553 1034.79 348.51 1050.54 467.303 1042.67C520.26 1039.09 536.003 1035.51 559.618 1019.77C603.988 990.426 615.438 957.506 615.438 855.173C615.438 737.81 597.547 699.166 531.71 675.551C495.213 662.668 362.822 662.668 327.04 676.266ZM486.625 855.173V916.001H429.375H372.125V855.173V794.343H429.375H486.625V855.173Z" fill="#151515"/>
<path d="M762.14 671.972C730.652 679.844 703.459 699.165 685.569 727.79C673.402 748.544 669.825 767.865 666.962 827.977C659.09 999.012 699.165 1044.81 855.172 1044.81C1003.31 1044.81 1044.81 1001.87 1044.81 850.877C1044.81 742.819 1016.9 690.577 949.634 673.402C913.852 664.815 796.49 664.099 762.14 671.972ZM916 855.172V915.999H855.172H794.344V855.172V794.344H855.172H916V855.172Z" fill="#151515"/>
<path d="M1178.64 675.55C1113.51 699.165 1095.62 737.81 1094.91 855.173C1094.91 931.028 1097.05 945.34 1111.37 973.25C1139.28 1029.07 1176.49 1044.1 1284.55 1044.1C1379.73 1044.81 1416.94 1030.5 1451.29 980.407C1465.6 958.938 1467.03 948.92 1467.03 857.32C1467.03 747.828 1462.74 731.37 1424.09 699.166C1411.93 688.432 1390.46 676.982 1375.43 672.688C1337.5 662.67 1210.84 664.1 1178.64 675.55ZM1338.22 855.173V916H1280.97H1223.72V855.173V794.345H1280.97H1338.22V855.173Z" fill="#151515"/>
<path d="M307.003 1111.36C287.681 1122.1 269.074 1139.27 259.056 1156.45C244.028 1182.21 243.311 1191.51 244.744 1289.56C246.891 1382.59 248.321 1396.9 261.919 1414.07C295.553 1459.87 307.003 1463.45 419.356 1465.6C513.103 1467.75 524.553 1467.03 549.599 1452.72C563.911 1444.85 584.666 1426.24 593.969 1411.93C610.428 1388.31 611.859 1377.58 614.721 1300.29C616.869 1207.97 611.144 1173.62 585.381 1141.42C557.471 1105.64 521.691 1094.91 425.081 1094.91C348.509 1094.91 334.911 1097.05 307.003 1111.36ZM486.624 1280.97V1338.22H429.374H372.124V1280.97V1223.72H429.374H486.624V1280.97Z" fill="#151515"/>
<path d="M740.673 1108.5C683.423 1134.98 666.248 1172.91 665.531 1277.39C665.531 1360.4 673.404 1393.32 699.166 1424.09C731.369 1462.74 747.829 1467.03 857.319 1467.03C948.919 1467.03 958.938 1465.6 980.406 1450.57C1030.5 1416.94 1044.81 1380.44 1044.81 1280.97C1044.81 1175.77 1029.07 1139.99 973.251 1110.65C945.341 1097.05 931.029 1094.91 855.173 1094.91C787.188 1094.91 763.573 1097.77 740.673 1108.5ZM916.001 1280.97V1338.22H855.173H794.344V1280.97V1223.72H855.173H916.001V1280.97Z" fill="#151515"/>
<path d="M1184.36 1099.92C1158.6 1106.36 1122.1 1139.28 1108.5 1169.33C1097.77 1192.95 1094.91 1215.85 1094.91 1283.83C1094.91 1388.31 1107.07 1420.52 1156.45 1449.86C1186.51 1467.75 1190.8 1467.75 1290.27 1465.6C1389.03 1463.45 1394.04 1462.74 1418.37 1444.13C1459.88 1412.64 1467.03 1388.31 1467.03 1280.25C1467.03 1192.23 1465.6 1183.64 1449.14 1155.02C1420.52 1106.36 1388.31 1094.91 1283.83 1095.62C1237.32 1096.34 1192.23 1098.49 1184.36 1099.92ZM1338.22 1280.97V1338.22H1280.97H1223.72V1280.97V1223.72H1280.97H1338.22V1280.97Z" fill="#151515"/>
<path d="M311.299 1535.73C251.187 1567.22 241.167 1594.41 244.745 1724.66C246.892 1813.4 248.324 1823.4 264.067 1845.6C292.692 1885.67 327.042 1896.4 427.23 1896.4C518.83 1896.4 543.877 1891.4 571.787 1865.63C604.705 1834.85 615.439 1799.08 615.439 1713.92C615.439 1670.27 611.862 1623.75 608.282 1610.16C600.412 1580.81 564.63 1542.89 534.574 1532.15C501.655 1519.27 337.062 1522.13 311.299 1535.73ZM486.627 1710.34V1767.6H429.377H372.127V1710.34V1653.09H429.377H486.627V1710.34Z" fill="#151515"/>
<path d="M740.67 1534.3C710.614 1547.18 681.989 1582.96 671.97 1619.46C667.677 1636.64 665.529 1682.44 666.962 1728.24C669.824 1817.68 678.412 1840.58 720.632 1872.8C745.679 1892.1 749.974 1892.83 843.72 1894.98C933.174 1897.12 943.192 1895.7 973.249 1880.65C1032.64 1849.9 1050.54 1799.08 1043.38 1675.28C1038.37 1592.98 1015.47 1551.48 963.945 1532.15C934.604 1520.7 767.149 1522.85 740.67 1534.3ZM915.999 1710.34V1767.6H855.17H794.342V1710.34V1653.09H855.17H915.999V1710.34Z" fill="#151515"/>
<path d="M1170.05 1534.3C1143.57 1546.46 1112.8 1578.67 1102.78 1605.15C1092.76 1630.91 1092.76 1776.9 1102.06 1810.53C1109.93 1839.87 1145.72 1877.8 1175.77 1888.53C1187.22 1892.82 1235.17 1896.4 1283.83 1896.4C1388.31 1896.4 1424.09 1883.52 1451.29 1835.58C1466.32 1809.1 1467.03 1799.8 1465.6 1703.19C1463.45 1607.29 1462.02 1597.27 1446.99 1575.81C1416.22 1533.58 1386.88 1524.28 1283.12 1524.28C1222.29 1525 1184.36 1527.86 1170.05 1534.3ZM1338.22 1710.34V1767.6H1280.97H1223.72V1710.34V1653.09H1280.97H1338.22V1710.34Z" fill="#151515"/>
<path d="M1953.65 1345.37V1409.78H2018.05H2082.47V1345.37V1280.97H2018.05H1953.65V1345.37Z" fill="#151515"/>
<path d="M2196.97 1345.37V1409.78H2565.52H2934.05V1345.37V1280.97H2565.52H2196.97V1345.37Z" fill="#151515"/>
<path d="M1953.65 1588.69V1653.09H2018.05H2082.47V1588.69V1524.28H2018.05H1953.65V1588.69Z" fill="#151515"/>
<path d="M2196.97 1588.69V1653.09H2565.52H2934.05V1588.69V1524.28H2565.52H2196.97V1588.69Z" fill="#151515"/>
<path d="M1953.65 1832V1896.4H2018.05H2082.47V1832V1767.6H2018.05H1953.65V1832Z" fill="#151515"/>
<path d="M2196.97 1832V1896.4H2565.52H2934.05V1832V1767.6H2565.52H2196.97V1832Z" fill="#151515"/>
<path d="M3395.65 1913.58C3367.02 1927.18 3252.52 2038.82 2825.28 2466.05L2290.72 3002.05L2214.85 3166.65C2172.63 3256.8 2136.85 3339.82 2134.7 3349.85C2131.13 3369.88 2141.87 3397.07 2160.47 3411.38C2186.23 3431.42 2219.87 3421.4 2385.9 3344.83L2551.2 3268.97L3090.78 2731.55C3521.6 2301.45 3633.23 2186.23 3646.82 2157.6C3666.15 2117.53 3669.72 2062.43 3655.4 2016.63C3643.95 1979.42 3600.3 1930.05 3560.23 1911.43C3514.43 1889.97 3443.58 1890.68 3395.65 1913.58ZM3519.45 2041.68C3543.77 2064.58 3540.2 2092.48 3507.28 2127.55L3478.65 2157.6L3439.3 2118.25L3399.22 2079.6L3422.83 2055.27C3460.75 2015.2 3486.52 2011.62 3519.45 2041.68ZM3347.7 2213.43L3384.9 2251.35L3367.02 2268.53L3349.12 2285.7L3309.77 2247.07L3270.4 2208.42L3286.15 2191.95C3294.73 2182.65 3303.32 2175.5 3306.18 2175.5C3308.33 2175.5 3326.95 2192.67 3347.7 2213.43ZM3218.88 2342.25L3256.1 2379.45L2863.93 2770.18L2472.48 3161.63L2407.35 3190.97C2371.58 3206.72 2340.1 3220.32 2337.95 3220.32C2335.8 3220.32 2347.97 3188.82 2365.85 3150.18L2398.05 3080.77L2785.93 2692.18C2999.18 2478.92 3175.23 2304.32 3177.37 2304.32C3179.52 2304.32 3198.13 2321.5 3218.88 2342.25Z" fill="#151515"/>
<path d="M1953.65 2075.32V2139.72H2018.05H2082.47V2075.32V2010.9H2018.05H1953.65V2075.32Z" fill="#151515"/>
<path d="M2196.97 2075.32V2139.72H2565.52H2934.05V2075.32V2010.9H2565.52H2196.97V2075.32Z" fill="#151515"/>
<path d="M1288.84 2204.12C1021.2 2260.65 822.253 2476.78 795.775 2740.85C775.022 2939.07 840.86 3118.7 981.122 3253.23C1057.69 3325.5 1119.24 3362 1223.72 3395.65C1303.87 3421.4 1441.98 3428.55 1526.43 3410.67C1720.36 3370.6 1877.8 3246.8 1960.1 3069.32C1996.6 2990.6 2010.9 2931.92 2015.92 2843.18C2032.37 2555.5 1849.9 2298.6 1572.94 2217.72C1513.55 2200.55 1344.66 2192.67 1288.84 2204.12ZM1519.27 2340.1C1665.98 2377.3 1781.2 2473.2 1846.32 2612.75C1952.23 2841.03 1849.9 3126.57 1621.61 3240.35C1523.57 3289.02 1397.62 3304.75 1295.28 3280.42C1162.18 3249.65 1032.65 3147.32 974.682 3027.1C934.607 2946.23 923.157 2896.13 923.157 2808.83C923.157 2721.52 935.322 2671.43 974.682 2590.57C1016.19 2505.4 1101.35 2420.25 1187.94 2377.3C1221.57 2360.85 1268.09 2342.95 1291.7 2337.23C1355.39 2322.2 1454.15 2322.92 1519.27 2340.1Z" fill="#151515"/>
<path d="M1338.22 2472.48C1338.22 2492.52 1334.64 2506.12 1329.63 2507.55C1256.64 2528.3 1198.67 2570.53 1173.63 2619.9C1155.02 2656.4 1154.3 2717.95 1172.91 2754.45C1190.8 2789.5 1238.03 2831.02 1279.54 2848.9C1297.43 2856.78 1346.81 2867.5 1388.31 2872.52C1468.46 2882.55 1504.25 2896.13 1517.84 2921.18C1537.88 2959.1 1441.99 2999.9 1370.42 2984.15C1328.2 2974.85 1296.71 2956.97 1290.99 2939.8C1287.41 2928.35 1278.11 2926.9 1223 2926.9H1159.31V2948.38C1159.31 2969.85 1177.2 3011.35 1196.53 3034.25C1215.85 3057.87 1262.36 3087.2 1297.43 3099.37C1334.64 3111.55 1334.64 3112.25 1336.79 3144.45L1338.94 3177.38H1403.34H1467.03V3145.9V3114.4L1504.96 3101.52C1598.71 3070.75 1653.1 3005.63 1653.1 2926.2C1653.1 2891.85 1623.75 2833.88 1595.13 2808.83C1555.05 2775.2 1502.1 2755.15 1433.4 2748C1345.38 2737.98 1333.21 2735.12 1309.6 2714.37C1283.83 2692.9 1283.12 2683.6 1304.59 2663.55C1328.2 2641.37 1358.26 2632.07 1406.92 2632.07C1454.87 2632.78 1503.53 2651.4 1518.56 2676.45C1526.43 2688.6 1535.73 2690.75 1590.12 2690.75C1650.95 2690.75 1653.1 2690.03 1653.1 2674.3C1653.1 2644.95 1615.17 2581.25 1583.68 2557.65C1558.63 2538.32 1517.84 2519.72 1476.34 2507.55C1470.61 2506.12 1467.03 2492.52 1467.03 2472.48V2440.28H1402.63H1338.22V2472.48Z" fill="#151515"/>
</g>
</g>
<defs>
<clipPath id="clip0_25_122">
<rect width="3664" height="3664" fill="white"/>
</clipPath>
</defs>
</svg>
