<?xml version="1.0" encoding="utf-8"?>
<!-- Svg Vector Icons : http://www.onlinewebfonts.com/icon -->
<!DOCTYPE svg PUBLIC "-//W3C//DTD SVG 1.1//EN" "http://www.w3.org/Graphics/SVG/1.1/DTD/svg11.dtd">
<svg version="1.1" xmlns="http://www.w3.org/2000/svg" xmlns:xlink="http://www.w3.org/1999/xlink" x="0px" y="0px" viewBox="0 0 256 256" enable-background="new 0 0 256 256" xml:space="preserve">
<metadata> Svg Vector Icons : http://www.onlinewebfonts.com/icon </metadata>
<g><g><path fill="#000000" d="M245.9,201.8c-1.6-8-16.4-12.2-31-12.2c-0.2,0-0.4,0-0.6,0V183v-12.2v-12.2c0-9-15.7-13.7-31.1-13.7c-15.5,0-31.1,4.7-31.1,13.7v12.2V183v12.2v12.2c0,9,15.7,13.7,31.1,13.7c0.2,0,0.4,0,0.6,0v6.5c0,9,15.7,13.7,31.1,13.7c15.5,0,31.1-4.7,31.1-13.7v-12.2v-12.2v-1.4L245.9,201.8L245.9,201.8z M214.9,235.9c-15.8,0-25.8-5-25.8-8.4c0-0.9,0.7-1.9,2.1-3c6,3,14.9,4.5,23.7,4.5c8.8,0,17.7-1.5,23.7-4.5c1.4,1,2.1,2,2.1,3C240.7,230.9,230.6,235.9,214.9,235.9z M157.3,207.3c0-0.9,0.7-1.9,2.1-3c6,3,14.9,4.5,23.7,4.5c0.2,0,0.4,0,0.6,0v6.5v0.3c-0.2,0-0.4,0-0.6,0C167.3,215.7,157.3,210.7,157.3,207.3z M235.6,220c-1.1,0.5-2.4,1-3.8,1.4c-4.3,1.3-10.1,2.3-17,2.3c-6.9,0-12.7-0.9-17-2.3c-1.3-0.4-2.5-0.8-3.5-1.3c-0.1,0-0.2-0.1-0.3-0.1c-1.2-0.5-2.1-1.1-2.9-1.7c-0.2-0.1-0.3-0.3-0.5-0.4c-1-0.9-1.6-1.7-1.6-2.5c0,0,0,0,0-0.1c0-0.9,0.7-2,2.1-3c1.5,0.7,3.3,1.4,5.1,2c1.2,0.4,2.5,0.7,3.8,1c0.5,0.1,1,0.2,1.6,0.3c1.7,0.3,3.5,0.6,5.3,0.8c0.8,0.1,1.7,0.2,2.6,0.2c1.8,0.1,3.6,0.2,5.5,0.2s3.7-0.1,5.5-0.2c3.3-0.2,6.4-0.7,9.4-1.3c3.3-0.7,6.3-1.7,8.8-3c1.4,1,2.1,2,2.1,3c0,0.9-0.7,2-2.1,3C237.8,218.9,236.8,219.5,235.6,220z M162.3,199.8c-1.2-0.5-2.1-1.1-2.9-1.7c-1.4-1-2.1-2-2.1-3s0.7-1.9,2.1-3c2.5,1.3,5.5,2.2,8.8,3c3,0.7,6.1,1.1,9.4,1.3c1.8,0.1,3.6,0.2,5.5,0.2c1.3,0,2.7,0,4.1-0.1c-0.9,0.7-1.6,1.5-2.1,2.4c-0.8,1.3-1.3,2.7-1.3,4.2l0,0v0.3c-0.2,0-0.4,0-0.6,0c-6.9,0-12.7-0.9-17-2.3C164.7,200.8,163.4,200.3,162.3,199.8z M157.3,183c0-0.9,0.7-1.9,2.1-3c2.5,1.3,5.5,2.2,8.8,3c3,0.7,6.1,1.1,9.4,1.3c1.8,0.1,3.6,0.2,5.5,0.2s3.7-0.1,5.5-0.2c3.3-0.2,6.4-0.7,9.4-1.3c3.3-0.7,6.3-1.7,8.8-3c1.4,1,2.1,2,2.1,3c0,0.9-0.7,2-2.1,3c-0.8,0.6-1.7,1.1-2.9,1.7c-1.1,0.5-2.4,1-3.8,1.4c-4.3,1.3-10.1,2.3-17,2.3s-12.7-0.9-17-2.3c-1.4-0.4-2.7-0.9-3.8-1.4c-1.2-0.5-2.1-1.1-2.9-1.7C158,185,157.3,183.9,157.3,183z M157.3,170.8c0-0.9,0.7-2,2.1-3c2.5,1.3,5.5,2.2,8.8,3c3,0.7,6.1,1.1,9.4,1.3c1.8,0.1,3.6,0.2,5.4,0.2c1.8,0,3.6-0.1,5.4-0.2c3.3-0.2,6.5-0.7,9.4-1.3c3.3-0.7,6.3-1.7,8.8-3c1.4,1,2.1,2,2.1,3c0,0.9-0.7,2-2.1,3c-0.8,0.6-1.7,1.1-2.9,1.7c-1.1,0.5-2.4,1-3.8,1.4c-4.3,1.3-10.1,2.3-17,2.3s-12.7-0.9-17-2.3c-1.4-0.4-2.7-0.9-3.8-1.4c-1.2-0.5-2.1-1.1-2.9-1.7C158,172.8,157.3,171.8,157.3,170.8z"/><path fill="#000000" d="M140.2,200.5l-10.2-9.8c-2.8-2.7-7.4-2.7-10.2,0l-23.6,22.7l-23.6-22.7c-2.8-2.7-7.4-2.7-10.2,0l-22.7,21.9l-14.9-14.4V42c0-6.9,5.6-12.5,12.5-12.5c0,0,0.1,0,0.2,0c0.1,0,0.1,0,0.2,0h0c7.3,0,13.2,5.6,13.2,12.5c0,6.9-5.9,12.5-13.3,12.5c-4.1,0-7.4,3.3-7.4,7.4s3.3,7.4,7.4,7.4h129.9v66.5h14.7V68.3c11.9-3.2,20.6-13.7,20.6-26.3c0-15-12.6-27.3-28-27.3H37.6c-0.1,0-0.1,0-0.2,0c-0.1,0-0.1,0-0.2,0C22.2,14.8,10,27,10,42v159.4c0,2,0.8,3.9,2.2,5.3l22.3,21.5c2.8,2.7,7.4,2.7,10.2,0l22.7-21.9L91.1,229c2.9,2.7,7.4,2.7,10.2,0l23.6-22.7l15.3,14.7V200.5L140.2,200.5z M62.5,29.5h112.4c7.3,0,13.3,5.6,13.3,12.5c0,6.9-5.9,12.5-13.3,12.5H62.5c2-3.8,3.1-8,3.1-12.5C65.7,37.5,64.5,33.2,62.5,29.5z"/><path fill="#000000" d="M72.1,88.8H55.6c-1.5,0-2.7,1.2-2.7,2.7v16.2c0,1.5,1.2,2.7,2.7,2.7h16.5c1.5,0,2.7-1.2,2.7-2.7V91.5C74.8,90,73.6,88.8,72.1,88.8z M72.1,118.7H55.6c-1.5,0-2.7,1.2-2.7,2.7v15.8c0,1.5,1.2,2.7,2.7,2.7h16.5c1.5,0,2.7-1.2,2.7-2.7v-15.8C74.8,119.9,73.6,118.7,72.1,118.7z M72.1,148.2H55.6c-1.5,0-2.7,1.2-2.7,2.7v16.2c0,1.5,1.2,2.7,2.7,2.7h16.5c1.5,0,2.7-1.2,2.7-2.7v-16.2C74.8,149.5,73.6,148.2,72.1,148.2z M132.8,88.8H85.2c-1.5,0-2.7,1.2-2.7,2.7v16.2c0,1.5,1.2,2.7,2.7,2.7h47.7c1.5,0,2.7-1.2,2.7-2.7V91.5C135.6,90,134.4,88.8,132.8,88.8z M132.8,118.7H85.2c-1.5,0-2.7,1.2-2.7,2.7v15.8c0,1.5,1.2,2.7,2.7,2.7h47.7c1.5,0,2.7-1.2,2.7-2.7v-15.8C135.6,119.9,134.4,118.7,132.8,118.7z M132.8,148.2H85.2c-1.5,0-2.7,1.2-2.7,2.7v16.2c0,1.5,1.2,2.7,2.7,2.7h47.7c1.5,0,2.7-1.2,2.7-2.7v-16.2C135.6,149.5,134.4,148.2,132.8,148.2z"/></g></g>
</svg>