<svg width="16" height="16" viewBox="0 0 16 16" fill="none" xmlns="http://www.w3.org/2000/svg">
<rect x="0.5" y="0.5" width="15" height="15" rx="1.5" stroke="black"/>
<path d="M7.92045 13V6.45455H8.92614V13H7.92045ZM8.43182 5.36364C8.2358 5.36364 8.06676 5.29688 7.92472 5.16335C7.78551 5.02983 7.71591 4.86932 7.71591 4.68182C7.71591 4.49432 7.78551 4.33381 7.92472 4.20028C8.06676 4.06676 8.2358 4 8.43182 4C8.62784 4 8.79545 4.06676 8.93466 4.20028C9.0767 4.33381 9.14773 4.49432 9.14773 4.68182C9.14773 4.86932 9.0767 5.02983 8.93466 5.16335C8.79545 5.29688 8.62784 5.36364 8.43182 5.36364Z" fill="black"/>
</svg>
